<?xml version="1.0" encoding="us-ascii" standalone="no"?><svg xmlns="http://www.w3.org/2000/svg" xmlns:xlink="http://www.w3.org/1999/xlink" contentStyleType="text/css" height="1015px" preserveAspectRatio="none" style="width:1384px;height:1015px;background:#FFFFFF;" version="1.1" viewBox="0 0 1384 1015" width="1384px" zoomAndPan="magnify"><defs/><g><text fill="#000000" font-family="sans-serif" font-size="14" font-weight="bold" lengthAdjust="spacing" textLength="199" x="591" y="32.9951">compiler embed injection</text><ellipse cx="696" cy="57.2969" fill="#222222" rx="10" ry="10" style="stroke:#222222;stroke-width:1.0;"/><rect fill="#F1F1F1" height="33.9688" rx="12.5" ry="12.5" style="stroke:#181818;stroke-width:0.5;" width="73" x="659.5" y="87.2969"/><text fill="#000000" font-family="sans-serif" font-size="12" lengthAdjust="spacing" textLength="53" x="669.5" y="108.4355">compiler</text><rect fill="#00FF7F" height="33.9688" rx="12.5" ry="12.5" style="stroke:#181818;stroke-width:0.5;" width="210" x="591" y="141.2656"/><text fill="#000000" font-family="sans-serif" font-size="12" lengthAdjust="spacing" textLength="190" x="601" y="162.4043">Embed::injectIncludes fromFile</text><rect fill="#00FF7F" height="33.9688" rx="12.5" ry="12.5" style="stroke:#181818;stroke-width:0.5;" width="204" x="594" y="195.2344"/><text fill="#000000" font-family="sans-serif" font-size="12" lengthAdjust="spacing" textLength="184" x="604" y="216.373">Embed::filterIncludes fromFile</text><rect fill="#00FF7F" height="179.8823" style="stroke:#000000;stroke-width:1.5;" width="404" x="580" y="294.9136"/><path d="M699,294.9136 L699,304.2104 L689,314.2104 L580,314.2104 " fill="none" style="stroke:#000000;stroke-width:1.5;"/><text fill="#000000" font-family="sans-serif" font-size="14" lengthAdjust="spacing" textLength="109" x="583" y="308.9087">Embed::include</text><rect fill="#00FF7F" height="75.875" rx="12.5" ry="12.5" style="stroke:#181818;stroke-width:0.5;" width="212" x="590" y="331.2104"/><text fill="#000000" font-family="sans-serif" font-size="12" lengthAdjust="spacing" textLength="189" x="600" y="352.3491">Embed::parseInclude $include</text><text fill="#000000" font-family="sans-serif" font-size="12" lengthAdjust="spacing" textLength="8" x="600" y="366.3179">&#160;&#160;</text><text fill="#000000" font-family="sans-serif" font-size="12" lengthAdjust="spacing" text-decoration="wavy underline" textLength="176" x="608" y="366.3179">uses Embed::assertAsName</text><text fill="#000000" font-family="sans-serif" font-size="12" lengthAdjust="spacing" textLength="8" x="600" y="380.2866">&#160;&#160;</text><text fill="#000000" font-family="sans-serif" font-size="12" lengthAdjust="spacing" text-decoration="wavy underline" textLength="184" x="608" y="380.2866">uses Embed::assertResource</text><text fill="#000000" font-family="sans-serif" font-size="12" lengthAdjust="spacing" textLength="4" x="600" y="394.2554">&#160;</text><polygon fill="#AAAAAA" points="604,427.0854,788,427.0854,800,439.0854,788,451.0854,604,451.0854,592,439.0854,604,427.0854" style="stroke:#181818;stroke-width:0.5;"/><text fill="#008000" font-family="sans-serif" font-size="11" lengthAdjust="spacing" textLength="78" x="700" y="461.2959">valid directive</text><text fill="#000000" font-family="sans-serif" font-size="11" lengthAdjust="spacing" textLength="184" x="604" y="442.8936">include directive can be parsed?</text><text fill="#FF0000" font-family="sans-serif" font-size="11" lengthAdjust="spacing" textLength="132" x="800" y="436.4912">invalid include directive</text><ellipse cx="952" cy="439.0854" fill="none" rx="10" ry="10" style="stroke:#FF0000;stroke-width:1.5;"/><line style="stroke:#FF0000;stroke-width:2.5;" x1="945.8128" x2="958.1872" y1="432.8983" y2="445.2726"/><line style="stroke:#FF0000;stroke-width:2.5;" x1="958.1872" x2="945.8128" y1="432.8983" y2="445.2726"/><polygon fill="#AAAAAA" points="48,494.7959,224,494.7959,236,506.7959,224,518.7959,48,518.7959,36,506.7959,48,494.7959" style="stroke:#181818;stroke-width:0.5;"/><text fill="#000000" font-family="sans-serif" font-size="11" lengthAdjust="spacing" textLength="20" x="140" y="529.0063">yes</text><text fill="#000000" font-family="sans-serif" font-size="11" lengthAdjust="spacing" textLength="176" x="48" y="510.604">include name already injected?</text><rect fill="#F1F1F1" height="33.9688" rx="12.5" ry="12.5" style="stroke:#181818;stroke-width:0.5;" width="92" x="90" y="551.6006"/><text fill="#000000" font-family="sans-serif" font-size="12" lengthAdjust="spacing" textLength="72" x="100" y="572.7393">display skip</text><polygon fill="#AAAAAA" points="268,494.7959,470,494.7959,482,506.7959,470,518.7959,268,518.7959,256,506.7959,268,494.7959" style="stroke:#181818;stroke-width:0.5;"/><text fill="#000000" font-family="sans-serif" font-size="11" lengthAdjust="spacing" textLength="20" x="373" y="529.0063">yes</text><text fill="#000000" font-family="sans-serif" font-size="11" lengthAdjust="spacing" textLength="202" x="268" y="510.604">include resources already injected?</text><text fill="#008000" font-family="sans-serif" font-size="11" lengthAdjust="spacing" textLength="132" x="482" y="504.2017">embed can be included</text><rect fill="#F1F1F1" height="33.9688" rx="12.5" ry="12.5" style="stroke:#181818;stroke-width:0.5;" width="116" x="311" y="551.6006"/><text fill="#000000" font-family="sans-serif" font-size="12" lengthAdjust="spacing" textLength="96" x="321" y="572.7393">display warning</text><rect fill="#D3D3D3" height="283.8125" style="stroke:#000000;stroke-width:1.5;" width="844" x="502" y="533.9971"/><path d="M621,533.9971 L621,543.2939 L611,553.2939 L502,553.2939 " fill="none" style="stroke:#000000;stroke-width:1.5;"/><text fill="#000000" font-family="sans-serif" font-size="14" lengthAdjust="spacing" textLength="109" x="505" y="547.9922">Embed::include</text><rect fill="#00FF7F" height="33.9688" rx="12.5" ry="12.5" style="stroke:#181818;stroke-width:0.5;" width="260" x="799" y="570.2939"/><text fill="#000000" font-family="sans-serif" font-size="12" lengthAdjust="spacing" text-decoration="underline" textLength="96" x="809" y="591.4326">Embed::include</text><text fill="#000000" font-family="sans-serif" font-size="12" lengthAdjust="spacing" textLength="4" x="905" y="591.4326">&#160;</text><text fill="#000000" font-family="sans-serif" font-size="12" font-weight="bold" lengthAdjust="spacing" textLength="71" x="909" y="591.4326">$resource</text><text fill="#000000" font-family="sans-serif" font-size="12" lengthAdjust="spacing" textLength="4" x="980" y="591.4326">&#160;</text><text fill="#000000" font-family="sans-serif" font-size="12" font-weight="bold" lengthAdjust="spacing" textLength="65" x="984" y="591.4326">$asName</text><polygon fill="#AAAAAA" points="886.5,624.2627,971.5,624.2627,983.5,636.2627,971.5,648.2627,886.5,648.2627,874.5,636.2627,886.5,624.2627" style="stroke:#181818;stroke-width:0.5;"/><text fill="#000000" font-family="sans-serif" font-size="11" lengthAdjust="spacing" textLength="85" x="886.5" y="640.0708">resource type?</text><rect fill="#00FF7F" height="33.9688" rx="12.5" ry="12.5" style="stroke:#181818;stroke-width:0.5;" width="137" x="512" y="683.8721"/><text fill="#000000" font-family="sans-serif" font-size="12" lengthAdjust="spacing" textLength="117" x="522" y="705.0107">Embed::includeFile</text><rect fill="#00FF7F" height="33.9688" rx="12.5" ry="12.5" style="stroke:#181818;stroke-width:0.5;" width="133" x="705.5" y="683.8721"/><text fill="#000000" font-family="sans-serif" font-size="12" lengthAdjust="spacing" textLength="113" x="715.5" y="705.0107">Embed::includeDir</text><rect fill="#00FF7F" height="33.9688" rx="12.5" ry="12.5" style="stroke:#181818;stroke-width:0.5;" width="238" x="930" y="683.8721"/><text fill="#000000" font-family="sans-serif" font-size="12" lengthAdjust="spacing" textLength="218" x="940" y="705.0107">Embed::includeFrameworkFunction</text><rect fill="#00FF7F" height="33.9688" rx="12.5" ry="12.5" style="stroke:#181818;stroke-width:0.5;" width="91" x="1003.5" y="737.8408"/><text fill="#000000" font-family="sans-serif" font-size="12" lengthAdjust="spacing" textLength="71" x="1013.5" y="758.9795">bin/compile</text><ellipse cx="1299" cy="693.8721" fill="none" rx="10" ry="10" style="stroke:#FF0000;stroke-width:1.5;"/><line style="stroke:#FF0000;stroke-width:2.5;" x1="1292.8128" x2="1305.1872" y1="687.6849" y2="700.0593"/><line style="stroke:#FF0000;stroke-width:2.5;" x1="1305.1872" x2="1292.8128" y1="687.6849" y2="700.0593"/><polygon fill="#AAAAAA" points="929,781.8096,929,781.8096,941,793.8096,929,805.8096,929,805.8096,917,793.8096,929,781.8096" style="stroke:#181818;stroke-width:0.5;"/><polygon fill="#AAAAAA" points="878.5,842.5132,979.5,842.5132,991.5,854.5132,979.5,866.5132,878.5,866.5132,866.5,854.5132,878.5,842.5132" style="stroke:#181818;stroke-width:0.5;"/><text fill="#000000" font-family="sans-serif" font-size="11" lengthAdjust="spacing" textLength="101" x="878.5" y="858.3213">include success ?</text><text fill="#FF0000" font-family="sans-serif" font-size="11" lengthAdjust="spacing" textLength="73" x="991.5" y="839.1143">display error</text><text fill="#FF0000" font-family="sans-serif" font-size="11" lengthAdjust="spacing" textLength="71" x="991.5" y="851.9189">and return 2</text><ellipse cx="1084.5" cy="854.5132" fill="none" rx="10" ry="10" style="stroke:#FF0000;stroke-width:1.5;"/><line style="stroke:#FF0000;stroke-width:2.5;" x1="1078.3128" x2="1090.6872" y1="848.326" y2="860.7004"/><line style="stroke:#FF0000;stroke-width:2.5;" x1="1090.6872" x2="1078.3128" y1="848.326" y2="860.7004"/><polygon fill="#AAAAAA" points="673,249.2031,719,249.2031,731,261.2031,719,273.2031,673,273.2031,661,261.2031,673,249.2031" style="stroke:#181818;stroke-width:0.5;"/><text fill="#008000" font-family="sans-serif" font-size="11" lengthAdjust="spacing" textLength="76" x="700" y="283.4136">include found</text><text fill="#000000" font-family="sans-serif" font-size="11" lengthAdjust="spacing" textLength="46" x="673" y="265.0112">include?</text><text fill="#000000" font-family="sans-serif" font-size="11" lengthAdjust="spacing" textLength="157" x="504" y="258.6089">no more include to process</text><rect fill="#F1F1F1" height="33.9688" rx="12.5" ry="12.5" style="stroke:#181818;stroke-width:0.5;" width="103" x="644.5" y="928.5132"/><text fill="#000000" font-family="sans-serif" font-size="12" lengthAdjust="spacing" textLength="83" x="654.5" y="949.6519">Output result</text><ellipse cx="696" cy="993.4819" fill="none" rx="11" ry="11" style="stroke:#222222;stroke-width:1.0;"/><ellipse cx="696" cy="993.4819" fill="#222222" rx="6" ry="6" style="stroke:#111111;stroke-width:1.0;"/><line style="stroke:#181818;stroke-width:1.0;" x1="696" x2="696" y1="67.2969" y2="87.2969"/><polygon fill="#181818" points="692,77.2969,696,87.2969,700,77.2969,696,81.2969" style="stroke:#181818;stroke-width:1.0;"/><line style="stroke:#181818;stroke-width:1.0;" x1="696" x2="696" y1="121.2656" y2="141.2656"/><polygon fill="#181818" points="692,131.2656,696,141.2656,700,131.2656,696,135.2656" style="stroke:#181818;stroke-width:1.0;"/><line style="stroke:#181818;stroke-width:1.0;" x1="696" x2="696" y1="175.2344" y2="195.2344"/><polygon fill="#181818" points="692,185.2344,696,195.2344,700,185.2344,696,189.2344" style="stroke:#181818;stroke-width:1.0;"/><line style="stroke:#181818;stroke-width:1.0;" x1="696" x2="696" y1="451.0854" y2="479.7959"/><line style="stroke:#FF0000;stroke-width:1.0;" x1="800" x2="942" y1="439.0854" y2="439.0854"/><polygon fill="#FF0000" points="932,435.0854,942,439.0854,932,443.0854,936,439.0854" style="stroke:#FF0000;stroke-width:1.0;"/><line style="stroke:#181818;stroke-width:1.0;" x1="696" x2="696" y1="407.0854" y2="427.0854"/><polygon fill="#181818" points="692,417.0854,696,427.0854,700,417.0854,696,421.0854" style="stroke:#181818;stroke-width:1.0;"/><line style="stroke:#181818;stroke-width:1.0;" x1="1049" x2="1049" y1="717.8408" y2="737.8408"/><polygon fill="#181818" points="1045,727.8408,1049,737.8408,1053,727.8408,1049,731.8408" style="stroke:#181818;stroke-width:1.0;"/><line style="stroke:#181818;stroke-width:1.0;" x1="874.5" x2="580.5" y1="636.2627" y2="636.2627"/><line style="stroke:#181818;stroke-width:1.0;" x1="580.5" x2="580.5" y1="636.2627" y2="683.8721"/><polygon fill="#181818" points="576.5,673.8721,580.5,683.8721,584.5,673.8721,580.5,677.8721" style="stroke:#181818;stroke-width:1.0;"/><text fill="#000000" font-family="sans-serif" font-size="11" lengthAdjust="spacing" textLength="97" x="584.5" y="663.8755">resource is a file</text><line style="stroke:#181818;stroke-width:1.0;" x1="983.5" x2="1299" y1="636.2627" y2="636.2627"/><line style="stroke:#181818;stroke-width:1.0;" x1="1299" x2="1299" y1="636.2627" y2="683.8721"/><polygon fill="#181818" points="1295,673.8721,1299,683.8721,1303,673.8721,1299,677.8721" style="stroke:#181818;stroke-width:1.0;"/><text fill="#000000" font-family="sans-serif" font-size="11" lengthAdjust="spacing" textLength="29" x="1303" y="663.8755">error</text><line style="stroke:#181818;stroke-width:1.0;" x1="772" x2="772" y1="636.2627" y2="683.8721"/><polygon fill="#181818" points="768,673.8721,772,683.8721,776,673.8721,772,677.8721" style="stroke:#181818;stroke-width:1.0;"/><text fill="#000000" font-family="sans-serif" font-size="11" lengthAdjust="spacing" textLength="130" x="776" y="658.8755">resource is a directory</text><line style="stroke:#181818;stroke-width:1.0;" x1="1049" x2="1049" y1="636.2627" y2="683.8721"/><polygon fill="#181818" points="1045,673.8721,1049,683.8721,1053,673.8721,1049,677.8721" style="stroke:#181818;stroke-width:1.0;"/><text fill="#000000" font-family="sans-serif" font-size="11" lengthAdjust="spacing" textLength="222" x="1053" y="658.8755">resource is a bash framework function</text><line style="stroke:#181818;stroke-width:1.0;" x1="580.5" x2="580.5" y1="717.8408" y2="793.8096"/><line style="stroke:#181818;stroke-width:1.0;" x1="580.5" x2="917" y1="793.8096" y2="793.8096"/><polygon fill="#181818" points="907,789.8096,917,793.8096,907,797.8096,911,793.8096" style="stroke:#181818;stroke-width:1.0;"/><line style="stroke:#181818;stroke-width:1.0;" x1="1049" x2="1049" y1="771.8096" y2="793.8096"/><line style="stroke:#181818;stroke-width:1.0;" x1="1049" x2="941" y1="793.8096" y2="793.8096"/><polygon fill="#181818" points="951,789.8096,941,793.8096,951,797.8096,947,793.8096" style="stroke:#181818;stroke-width:1.0;"/><line style="stroke:#181818;stroke-width:1.0;" x1="772" x2="772" y1="717.8408" y2="793.8096"/><polygon fill="#181818" points="768,783.8096,772,793.8096,776,783.8096,772,787.8096" style="stroke:#181818;stroke-width:1.0;"/><line style="stroke:#181818;stroke-width:1.0;" x1="929" x2="929" y1="604.2627" y2="624.2627"/><polygon fill="#181818" points="925,614.2627,929,624.2627,933,614.2627,929,618.2627" style="stroke:#181818;stroke-width:1.0;"/><line style="stroke:#181818;stroke-width:1.0;" x1="929" x2="929" y1="866.5132" y2="886.5132"/><polygon fill="#181818" points="925,876.5132,929,886.5132,933,876.5132,929,880.5132" style="stroke:#181818;stroke-width:1.0;"/><line style="stroke:#FF0000;stroke-width:1.0;" x1="991.5" x2="1074.5" y1="854.5132" y2="854.5132"/><polygon fill="#FF0000" points="1064.5,850.5132,1074.5,854.5132,1064.5,858.5132,1068.5,854.5132" style="stroke:#FF0000;stroke-width:1.0;"/><line style="stroke:#181818;stroke-width:1.0;" x1="929" x2="929" y1="805.8096" y2="842.5132"/><polygon fill="#181818" points="925,832.5132,929,842.5132,933,832.5132,929,836.5132" style="stroke:#181818;stroke-width:1.0;"/><line style="stroke:#181818;stroke-width:1.0;" x1="136" x2="136" y1="518.7959" y2="551.6006"/><polygon fill="#181818" points="132,541.6006,136,551.6006,140,541.6006,136,545.6006" style="stroke:#181818;stroke-width:1.0;"/><line style="stroke:#181818;stroke-width:1.0;" x1="136" x2="136" y1="585.5693" y2="886.5132"/><polygon fill="#181818" points="132,876.5132,136,886.5132,140,876.5132,136,880.5132" style="stroke:#181818;stroke-width:1.0;"/><line style="stroke:#181818;stroke-width:1.0;" x1="369" x2="369" y1="518.7959" y2="551.6006"/><polygon fill="#181818" points="365,541.6006,369,551.6006,373,541.6006,369,545.6006" style="stroke:#181818;stroke-width:1.0;"/><line style="stroke:#181818;stroke-width:1.0;" x1="369" x2="369" y1="585.5693" y2="886.5132"/><polygon fill="#181818" points="365,876.5132,369,886.5132,373,876.5132,369,880.5132" style="stroke:#181818;stroke-width:1.0;"/><line style="stroke:#181818;stroke-width:1.0;" x1="236" x2="256" y1="506.7959" y2="506.7959"/><polygon fill="#181818" points="246,502.7959,256,506.7959,246,510.7959,250,506.7959" style="stroke:#181818;stroke-width:1.0;"/><line style="stroke:#008000;stroke-width:1.0;" x1="696" x2="136" y1="479.7959" y2="479.7959"/><line style="stroke:#008000;stroke-width:1.0;" x1="136" x2="136" y1="479.7959" y2="494.7959"/><polygon fill="#008000" points="132,484.7959,136,494.7959,140,484.7959,136,488.7959" style="stroke:#008000;stroke-width:1.0;"/><line style="stroke:#008000;stroke-width:1.0;" x1="482" x2="929" y1="506.7959" y2="506.7959"/><line style="stroke:#008000;stroke-width:1.0;" x1="929" x2="929" y1="506.7959" y2="570.2939"/><polygon fill="#008000" points="925,560.2939,929,570.2939,933,560.2939,929,564.2939" style="stroke:#008000;stroke-width:1.0;"/><line style="stroke:#181818;stroke-width:1.0;" x1="136" x2="929" y1="886.5132" y2="886.5132"/><line style="stroke:#008000;stroke-width:1.0;" x1="696" x2="696" y1="273.2031" y2="331.2104"/><polygon fill="#008000" points="692,321.2104,696,331.2104,700,321.2104,696,325.2104" style="stroke:#008000;stroke-width:1.0;"/><line style="stroke:#181818;stroke-width:1.0;" x1="696" x2="696" y1="886.5132" y2="896.5132"/><line style="stroke:#181818;stroke-width:1.0;" x1="696" x2="1358" y1="896.5132" y2="896.5132"/><polygon fill="#181818" points="1354,637.5127,1358,627.5127,1362,637.5127,1358,633.5127" style="stroke:#181818;stroke-width:1.0;"/><line style="stroke:#181818;stroke-width:1.0;" x1="1358" x2="1358" y1="261.2031" y2="896.5132"/><line style="stroke:#181818;stroke-width:1.0;" x1="1358" x2="731" y1="261.2031" y2="261.2031"/><polygon fill="#181818" points="741,257.2031,731,261.2031,741,265.2031,737,261.2031" style="stroke:#181818;stroke-width:1.0;"/><line style="stroke:#181818;stroke-width:1.0;" x1="661" x2="24" y1="261.2031" y2="261.2031"/><polygon fill="#181818" points="20,623.5127,24,633.5127,28,623.5127,24,627.5127" style="stroke:#181818;stroke-width:1.0;"/><line style="stroke:#181818;stroke-width:1.0;" x1="24" x2="24" y1="261.2031" y2="908.5132"/><line style="stroke:#181818;stroke-width:1.0;" x1="24" x2="696" y1="908.5132" y2="908.5132"/><line style="stroke:#181818;stroke-width:1.0;" x1="696" x2="696" y1="908.5132" y2="928.5132"/><polygon fill="#181818" points="692,918.5132,696,928.5132,700,918.5132,696,922.5132" style="stroke:#181818;stroke-width:1.0;"/><line style="stroke:#181818;stroke-width:1.0;" x1="696" x2="696" y1="229.2031" y2="249.2031"/><polygon fill="#181818" points="692,239.2031,696,249.2031,700,239.2031,696,243.2031" style="stroke:#181818;stroke-width:1.0;"/><line style="stroke:#181818;stroke-width:1.0;" x1="696" x2="696" y1="962.4819" y2="982.4819"/><polygon fill="#181818" points="692,972.4819,696,982.4819,700,972.4819,696,976.4819" style="stroke:#181818;stroke-width:1.0;"/><!--SRC=[bLHTJzim57tthxXIaTPMWgoi1PfE83O6ceGsQUnjcoedTXf3OaUsqof2zBVlEd7wHM6i3qsS-tNkyRdN2fjnY5LUY8nhu7d46GXvpsChb2JcGSY2Qfh38m5u1wcrXGc3O2PiMaP761SK6PMspBFrIvIfA1YE1uCHI-9JDXoCJiOd0pwAXcDwDeZVZwFXwP1HUZe-E_uG61q7ajl0g5B7F55wnjUfZAqo7bnhbT-rI7wgE_Vnw9xEQUTsC1mXC8fevy9MLuBcIh9FD7wOQLLAzbbbIaFdilvjE7vPcJHdv8aOIxKb96o9c13IkIkqaBCRpRaClpXUmh0XvgkCiv9n0mdYkaRt5xmJaLckztWlKdn0LpIMYnu80zsFiGCKpbo6Ss-2n3NHG-27lpgrvS_XEPwG22lS1S4AMEE_2QE-Ce1zo33US0yC3dnmxGsmN9O6qNfFQWpNzj9yepbVBbzn-S6R2_HEa_fV9AikWGdjH3L7jL494OSQ1DlN_PncWgq3Uc1JBdtjRI80U6RuAXml4wbhmf_LxQqpe5yRZnaa8_uf4lAynXCXsvr8v09efZbbbP-LkW-74heLDqsba0c3Ggu0XwXmV3YectcqfypyJx85rHAliystmrmplvvWNuVro3xYNjRGhPYbzaPZiKTFqPQ6fjFjWEaK-ls3jfb-tvreBPX-V-8Jc8MmSGhTrWjiLQ3mlJMchf4L7quG518t8wt7VXbx0CrGlPAgaO3IrTloNGdzQhg8cXId6HjSAFq0IIdhPVb6i6tSjG-Rx8-AX0pyDje1mxN6nRKkjgldjQBhjuRw-lpqR2XD6QF-35pySyPsXmSsHgxLPetijzomKCcGF5jg2SUJDyvRyvtWm-z9gI1NUgLdi0eAhHpk7gxixwKjIkkkgCmiRc9ZLV4N]--></g></svg>