<?xml version="1.0" encoding="us-ascii" standalone="no"?><svg xmlns="http://www.w3.org/2000/svg" xmlns:xlink="http://www.w3.org/1999/xlink" contentStyleType="text/css" height="1471px" preserveAspectRatio="none" style="width:1935px;height:1471px;background:#FFFFFF;" version="1.1" viewBox="0 0 1935 1471" width="1935px" zoomAndPan="magnify"><defs/><g><text fill="#000000" font-family="sans-serif" font-size="14" font-weight="bold" lengthAdjust="spacing" textLength="217" x="857.5" y="32.9951">compiler facade generation</text><ellipse cx="962.5" cy="57.2969" fill="#222222" rx="10" ry="10" style="stroke:#222222;stroke-width:1.0;"/><path d="M1125,91.7148 L1125,100.2813 L1105,104.2813 L1125,108.2813 L1125,116.8477 A0,0 0 0 0 1125,116.8477 L1712,116.8477 A0,0 0 0 0 1712,116.8477 L1712,101.7148 L1702,91.7148 L1125,91.7148 A0,0 0 0 0 1125,91.7148 " fill="#FEFFDD" style="stroke:#181818;stroke-width:0.5;"/><path d="M1702,91.7148 L1702,101.7148 L1712,101.7148 L1702,91.7148 " fill="#FEFFDD" style="stroke:#181818;stroke-width:0.5;"/><text fill="#000000" font-family="sans-serif" font-size="13" lengthAdjust="spacing" textLength="566" x="1131" y="108.7817">this phase occurs before compiler begin to compile the script during template evaluation</text><rect fill="#F1F1F1" height="33.9688" rx="12.5" ry="12.5" style="stroke:#181818;stroke-width:0.5;" width="285" x="820" y="87.2969"/><text fill="#000000" font-family="sans-serif" font-size="12" lengthAdjust="spacing" textLength="265" x="830" y="108.4355">compile scriptFile (facade directive phase)</text><rect fill="#D3D3D3" height="1147.8906" style="stroke:#000000;stroke-width:1.5;" width="1913" x="11" y="131.2656"/><path d="M198,131.2656 L198,140.5625 L188,150.5625 L11,150.5625 " fill="none" style="stroke:#000000;stroke-width:1.5;"/><text fill="#000000" font-family="sans-serif" font-size="14" lengthAdjust="spacing" textLength="177" x="14" y="145.2607">Compiler::Facade::facade</text><rect fill="#00FF7F" height="33.9688" rx="12.5" ry="12.5" style="stroke:#181818;stroke-width:0.5;" width="258" x="833.5" y="167.5625"/><text fill="#000000" font-family="sans-serif" font-size="12" lengthAdjust="spacing" textLength="234" x="847.5" y="188.7012">Compiler::Facade::generate scriptFile</text><rect fill="#00FF7F" height="33.9688" rx="12.5" ry="12.5" style="stroke:#181818;stroke-width:0.5;" width="224" x="850.5" y="221.5313"/><text fill="#000000" font-family="sans-serif" font-size="12" lengthAdjust="spacing" textLength="204" x="860.5" y="242.6699">Compiler::Facade::filter scriptFile</text><polygon fill="#AAAAAA" points="893.5,275.5,1031.5,275.5,1043.5,287.5,1031.5,299.5,893.5,299.5,881.5,287.5,893.5,275.5" style="stroke:#181818;stroke-width:0.5;"/><text fill="#000000" font-family="sans-serif" font-size="11" lengthAdjust="spacing" textLength="138" x="893.5" y="291.3081">facade directives count?</text><rect fill="#00FF7F" height="61.9063" rx="12.5" ry="12.5" style="stroke:#181818;stroke-width:0.5;" width="322" x="534.25" y="347.9141"/><text fill="#000000" font-family="sans-serif" font-size="12" lengthAdjust="spacing" textLength="261" x="544.25" y="369.0527">Compiler::Facade::parse $facadeDirective</text><text fill="#000000" font-family="sans-serif" font-size="12" lengthAdjust="spacing" textLength="8" x="544.25" y="383.0215">&#160;&#160;</text><text fill="#000000" font-family="sans-serif" font-size="12" lengthAdjust="spacing" text-decoration="wavy underline" textLength="294" x="552.25" y="383.0215">uses Compiler::Facade::assertFacadeTemplate</text><text fill="#000000" font-family="sans-serif" font-size="12" lengthAdjust="spacing" textLength="4" x="544.25" y="396.9902">&#160;</text><polygon fill="#AAAAAA" points="636.25,444.8203,754.25,444.8203,766.25,456.8203,754.25,468.8203,636.25,468.8203,624.25,456.8203,636.25,444.8203" style="stroke:#181818;stroke-width:0.5;"/><text fill="#000000" font-family="sans-serif" font-size="11" lengthAdjust="spacing" textLength="118" x="636.25" y="460.6284">facade parse result?</text><rect fill="#87CEFA" height="708.7578" style="stroke:#000000;stroke-width:1.5;" width="1028.5" x="21" y="504.4297"/><path d="M337,504.4297 L337,513.7266 L327,523.7266 L21,523.7266 " fill="none" style="stroke:#000000;stroke-width:1.5;"/><text fill="#000000" font-family="sans-serif" font-size="14" lengthAdjust="spacing" textLength="306" x="24" y="518.4248">Compiler::Facade::generateFacadeScriptFile</text><rect fill="#FF00FF" height="280.3984" style="stroke:#000000;stroke-width:1.5;" width="765.5" x="31" y="534.4297"/><path d="M372,534.4297 L372,543.7266 L362,553.7266 L31,553.7266 " fill="none" style="stroke:#000000;stroke-width:1.5;"/><text fill="#000000" font-family="sans-serif" font-size="14" lengthAdjust="spacing" textLength="331" x="34" y="548.4248">Compiler::Facade::generateFacadeChoiceScript</text><path d="M549.5,570.5781 L549.5,586.7109 L529.5,590.7109 L549.5,594.7109 L549.5,610.8438 A0,0 0 0 0 549.5,610.8438 L786.5,610.8438 A0,0 0 0 0 786.5,610.8438 L786.5,580.5781 L776.5,570.5781 L549.5,570.5781 A0,0 0 0 0 549.5,570.5781 " fill="#FEFFDD" style="stroke:#181818;stroke-width:0.5;"/><path d="M776.5,570.5781 L776.5,580.5781 L786.5,580.5781 L776.5,570.5781 " fill="#FEFFDD" style="stroke:#181818;stroke-width:0.5;"/><text fill="#000000" font-family="sans-serif" font-size="13" lengthAdjust="spacing" textLength="178" x="555.5" y="587.645">list all IMPLEMENT directives</text><text fill="#000000" font-family="sans-serif" font-size="13" lengthAdjust="spacing" textLength="216" x="555.5" y="602.7778">and merge all the function names</text><rect fill="#FF00FF" height="33.9688" rx="12.5" ry="12.5" style="stroke:#181818;stroke-width:0.5;" width="319" x="210.5" y="573.7266"/><text fill="#000000" font-family="sans-serif" font-size="12" lengthAdjust="spacing" textLength="299" x="220.5" y="594.8652">Compiler::Implement::mergeInterfacesFunctions</text><polygon fill="#AAAAAA" points="337,630.8438,403,630.8438,415,642.8438,403,654.8438,337,654.8438,325,642.8438,337,630.8438" style="stroke:#181818;stroke-width:0.5;"/><text fill="#000000" font-family="sans-serif" font-size="11" lengthAdjust="spacing" textLength="66" x="337" y="646.6519">implement?</text><ellipse cx="51" cy="708.2969" fill="none" rx="10" ry="10" style="stroke:#FF0000;stroke-width:1.5;"/><line style="stroke:#FF0000;stroke-width:2.5;" x1="44.8128" x2="57.1872" y1="702.1097" y2="714.4841"/><line style="stroke:#FF0000;stroke-width:2.5;" x1="57.1872" x2="44.8128" y1="702.1097" y2="714.4841"/><path d="M151,698.2969 L151,768.8281 A0,0 0 0 0 151,768.8281 L401,768.8281 A0,0 0 0 0 401,768.8281 L401,737.5625 L421,733.5625 L401,729.5625 L401,708.2969 L391,698.2969 L151,698.2969 A0,0 0 0 0 151,698.2969 " fill="#FEFFDD" style="stroke:#181818;stroke-width:0.5;"/><path d="M391,698.2969 L391,708.2969 L401,708.2969 L391,698.2969 " fill="#FEFFDD" style="stroke:#181818;stroke-width:0.5;"/><text fill="#000000" font-family="sans-serif" font-size="13" lengthAdjust="spacing" textLength="160" x="157" y="715.3638">generate the switch case</text><text fill="#000000" font-family="sans-serif" font-size="13" lengthAdjust="spacing" textLength="166" x="157" y="730.4966">to call the public functions</text><text fill="#000000" font-family="sans-serif" font-size="13" lengthAdjust="spacing" textLength="136" x="157" y="745.6294">of the script file using</text><text fill="#000000" font-family="sans-serif" font-size="13" lengthAdjust="spacing" textLength="229" x="157" y="760.7622">interfaceFunctions computed above</text><rect fill="#FF00FF" height="47.9375" rx="12.5" ry="12.5" style="stroke:#181818;stroke-width:0.5;" width="194" x="421" y="709.5938"/><text fill="#000000" font-family="sans-serif" font-size="12" lengthAdjust="spacing" textLength="174" x="431" y="730.7324">generate switch case script</text><text fill="#000000" font-family="sans-serif" font-size="12" lengthAdjust="spacing" textLength="150" x="431" y="744.7012">from interface functions</text><polygon fill="#AAAAAA" points="370,778.8281,370,778.8281,382,790.8281,370,802.8281,370,802.8281,358,790.8281,370,778.8281" style="stroke:#181818;stroke-width:0.5;"/><path d="M538.5,824.8281 L538.5,856.0938 L518.5,860.0938 L538.5,864.0938 L538.5,895.3594 A0,0 0 0 0 538.5,895.3594 L1039.5,895.3594 A0,0 0 0 0 1039.5,895.3594 L1039.5,834.8281 L1029.5,824.8281 L538.5,824.8281 A0,0 0 0 0 538.5,824.8281 " fill="#FEFFDD" style="stroke:#181818;stroke-width:0.5;"/><path d="M1029.5,824.8281 L1029.5,834.8281 L1039.5,834.8281 L1029.5,824.8281 " fill="#FEFFDD" style="stroke:#181818;stroke-width:0.5;"/><text fill="#000000" font-family="sans-serif" font-size="13" lengthAdjust="spacing" textLength="331" x="544.5" y="841.895">copy back IMPLEMENT directives inside template file</text><text fill="#000000" font-family="sans-serif" font-size="13" lengthAdjust="spacing" textLength="437" x="544.5" y="857.0278">This way, the compiler will automatically check for function presence.</text><text fill="#000000" font-family="sans-serif" font-size="13" lengthAdjust="spacing" textLength="480" x="544.5" y="872.1606">Note that compiler only checks using regexp, does not check if the function</text><text fill="#000000" font-family="sans-serif" font-size="13" lengthAdjust="spacing" textLength="122" x="544.5" y="887.2935">is really accessible.</text><rect fill="#00BFFF" height="33.9688" rx="12.5" ry="12.5" style="stroke:#181818;stroke-width:0.5;" width="297" x="221.5" y="843.1094"/><text fill="#000000" font-family="sans-serif" font-size="12" lengthAdjust="spacing" textLength="273" x="235.5" y="864.248">Compiler::Facade::generateFacadeHeaders</text><path d="M537,905.3594 L537,929.0586 L517,933.0586 L537,937.0586 L537,960.7578 A0,0 0 0 0 537,960.7578 L1019,960.7578 A0,0 0 0 0 1019,960.7578 L1019,915.3594 L1009,905.3594 L537,905.3594 A0,0 0 0 0 537,905.3594 " fill="#FEFFDD" style="stroke:#181818;stroke-width:0.5;"/><path d="M1009,905.3594 L1009,915.3594 L1019,915.3594 L1009,905.3594 " fill="#FEFFDD" style="stroke:#181818;stroke-width:0.5;"/><text fill="#000000" font-family="sans-serif" font-size="13" lengthAdjust="spacing" textLength="357" x="543" y="922.4263">move the script inside main function of the template file</text><text fill="#000000" font-family="sans-serif" font-size="13" lengthAdjust="spacing" textLength="461" x="543" y="937.5591">The script needs to be compiled before being able to know if all interface</text><text fill="#000000" font-family="sans-serif" font-size="13" lengthAdjust="spacing" textLength="218" x="543" y="952.6919">functions have been implemented</text><rect fill="#00BFFF" height="33.9688" rx="12.5" ry="12.5" style="stroke:#181818;stroke-width:0.5;" width="294" x="223" y="916.0742"/><text fill="#000000" font-family="sans-serif" font-size="12" lengthAdjust="spacing" textLength="270" x="237" y="937.2129">Compiler::Facade::generateFacadeContent</text><rect fill="#00BFFF" height="33.9688" rx="12.5" ry="12.5" style="stroke:#181818;stroke-width:0.5;" width="317" x="211.5" y="980.7578"/><text fill="#000000" font-family="sans-serif" font-size="12" lengthAdjust="spacing" textLength="293" x="225.5" y="1001.8965">Compiler::Facade::generateMainFunctionName</text><path d="M461,1024.7266 L461,1108.957 L441,1112.957 L461,1116.957 L461,1201.1875 A0,0 0 0 0 461,1201.1875 L825,1201.1875 A0,0 0 0 0 825,1201.1875 L825,1034.7266 L815,1024.7266 L461,1024.7266 A0,0 0 0 0 461,1024.7266 " fill="#FEFFDD" style="stroke:#181818;stroke-width:0.5;"/><path d="M815,1024.7266 L815,1034.7266 L825,1034.7266 L815,1024.7266 " fill="#FEFFDD" style="stroke:#181818;stroke-width:0.5;"/><text fill="#008000" font-family="sans-serif" font-size="13" lengthAdjust="spacing" textLength="343" x="467" y="1041.7935">The following variables will be used when the template</text><text fill="#008000" font-family="sans-serif" font-size="13" lengthAdjust="spacing" textLength="188" x="467" y="1056.9263">will evaluated by the compiler</text><text fill="#000000" font-family="sans-serif" font-size="13" lengthAdjust="spacing" textLength="198" x="467" y="1072.0591">export FACADE_HEADERS_FILE</text><text fill="#000000" font-family="sans-serif" font-size="13" lengthAdjust="spacing" textLength="197" x="467" y="1087.1919">export FACADE_CONTENT_FILE</text><text fill="#000000" font-family="sans-serif" font-size="13" lengthAdjust="spacing" textLength="236" x="467" y="1102.3247">export FACADE_CHOICE_SCRIPT_FILE</text><text fill="#000000" font-family="sans-serif" font-size="13" lengthAdjust="spacing" textLength="196" x="467" y="1117.4575">export MAIN_FUNCTION_NAME</text><text fill="#FF0000" font-family="sans-serif" font-size="13" lengthAdjust="spacing" textLength="251" x="467" y="1132.5903">The following variable actually overrides</text><text fill="#FF0000" font-family="sans-serif" font-size="13" lengthAdjust="spacing" textLength="197" x="467" y="1147.7231">the file variable of the compiler</text><text fill="#FF0000" font-family="sans-serif" font-size="13" lengthAdjust="spacing" textLength="259" x="467" y="1162.856">it represents the facade template to use</text><text fill="#FF0000" font-family="sans-serif" font-size="13" lengthAdjust="spacing" textLength="240" x="467" y="1177.9888">(not really nice, part to be refactored)</text><text fill="#000000" font-family="sans-serif" font-size="13" lengthAdjust="spacing" textLength="63" x="467" y="1193.1216">export file</text><rect fill="#00BFFF" height="33.9688" rx="12.5" ry="12.5" style="stroke:#181818;stroke-width:0.5;" width="142" x="299" y="1095.9727"/><text fill="#000000" font-family="sans-serif" font-size="12" lengthAdjust="spacing" textLength="118" x="313" y="1117.1113">export all variables</text><rect fill="#FFC0CB" height="33.9688" rx="12.5" ry="12.5" style="stroke:#181818;stroke-width:0.5;" width="129" x="305.5" y="1233.1875"/><text fill="#000000" font-family="sans-serif" font-size="12" lengthAdjust="spacing" textLength="109" x="315.5" y="1254.3262">compilerContinue</text><ellipse cx="1079.5" cy="514.4297" fill="none" rx="10" ry="10" style="stroke:#FF0000;stroke-width:1.5;"/><line style="stroke:#FF0000;stroke-width:2.5;" x1="1073.3128" x2="1085.6872" y1="508.2425" y2="520.6169"/><line style="stroke:#FF0000;stroke-width:2.5;" x1="1085.6872" x2="1073.3128" y1="508.2425" y2="520.6169"/><ellipse cx="1177.5" cy="514.4297" fill="none" rx="10" ry="10" style="stroke:#FF0000;stroke-width:1.5;"/><line style="stroke:#FF0000;stroke-width:2.5;" x1="1171.3128" x2="1183.6872" y1="508.2425" y2="520.6169"/><line style="stroke:#FF0000;stroke-width:2.5;" x1="1183.6872" x2="1171.3128" y1="508.2425" y2="520.6169"/><rect fill="#FFC0CB" height="33.9688" rx="12.5" ry="12.5" style="stroke:#181818;stroke-width:0.5;" width="129" x="1399.5" y="347.9141"/><text fill="#000000" font-family="sans-serif" font-size="12" lengthAdjust="spacing" textLength="109" x="1409.5" y="369.0527">compilerContinue</text><rect fill="#F1F1F1" height="33.9688" rx="12.5" ry="12.5" style="stroke:#181818;stroke-width:0.5;" width="286" x="1628" y="360.7188"/><text fill="#000000" font-family="sans-serif" font-size="12" lengthAdjust="spacing" textLength="266" x="1638" y="381.8574">You can provide only one FACADE directive</text><ellipse cx="1771" cy="439.6875" fill="none" rx="10" ry="10" style="stroke:#FF0000;stroke-width:1.5;"/><line style="stroke:#FF0000;stroke-width:2.5;" x1="1764.8128" x2="1777.1872" y1="433.5003" y2="445.8747"/><line style="stroke:#FF0000;stroke-width:2.5;" x1="1777.1872" x2="1764.8128" y1="433.5003" y2="445.8747"/><rect fill="#FFC0CB" height="129.2344" style="stroke:#000000;stroke-width:1.5;" width="273" x="826" y="1289.1563"/><path d="M958,1289.1563 L958,1298.4531 L948,1308.4531 L826,1308.4531 " fill="none" style="stroke:#000000;stroke-width:1.5;"/><text fill="#000000" font-family="sans-serif" font-size="14" lengthAdjust="spacing" textLength="122" x="829" y="1303.1514">compilerContinue</text><rect fill="#F1F1F1" height="33.9688" rx="12.5" ry="12.5" style="stroke:#181818;stroke-width:0.5;" width="253" x="836" y="1318.4531"/><text fill="#000000" font-family="sans-serif" font-size="12" lengthAdjust="spacing" textLength="233" x="846" y="1339.5918">Continue normal compilation process</text><rect fill="#F1F1F1" height="33.9688" rx="12.5" ry="12.5" style="stroke:#181818;stroke-width:0.5;" width="103" x="911" y="1372.4219"/><text fill="#000000" font-family="sans-serif" font-size="12" lengthAdjust="spacing" textLength="83" x="921" y="1393.5605">Output result</text><ellipse cx="962.5" cy="1449.3906" fill="none" rx="11" ry="11" style="stroke:#222222;stroke-width:1.0;"/><ellipse cx="962.5" cy="1449.3906" fill="#222222" rx="6" ry="6" style="stroke:#111111;stroke-width:1.0;"/><line style="stroke:#181818;stroke-width:1.0;" x1="962.5" x2="962.5" y1="67.2969" y2="87.2969"/><polygon fill="#181818" points="958.5,77.2969,962.5,87.2969,966.5,77.2969,962.5,81.2969" style="stroke:#181818;stroke-width:1.0;"/><line style="stroke:#181818;stroke-width:1.0;" x1="962.5" x2="962.5" y1="201.5313" y2="221.5313"/><polygon fill="#181818" points="958.5,211.5313,962.5,221.5313,966.5,211.5313,962.5,215.5313" style="stroke:#181818;stroke-width:1.0;"/><line style="stroke:#181818;stroke-width:1.0;" x1="325" x2="51" y1="642.8438" y2="642.8438"/><line style="stroke:#181818;stroke-width:1.0;" x1="51" x2="51" y1="642.8438" y2="698.2969"/><polygon fill="#181818" points="47,688.2969,51,698.2969,55,688.2969,51,692.2969" style="stroke:#181818;stroke-width:1.0;"/><text fill="#FF0000" font-family="sans-serif" font-size="11" lengthAdjust="spacing" textLength="90" x="51" y="676.1484">invalid interface</text><line style="stroke:#181818;stroke-width:1.0;" x1="415" x2="635" y1="642.8438" y2="642.8438"/><line style="stroke:#181818;stroke-width:1.0;" x1="635" x2="635" y1="642.8438" y2="790.8281"/><line style="stroke:#181818;stroke-width:1.0;" x1="635" x2="382" y1="790.8281" y2="790.8281"/><polygon fill="#181818" points="392,786.8281,382,790.8281,392,794.8281,388,790.8281" style="stroke:#181818;stroke-width:1.0;"/><text fill="#008000" font-family="sans-serif" font-size="11" lengthAdjust="spacing" textLength="68" x="639" y="640.2495">no interface</text><text fill="#008000" font-family="sans-serif" font-size="11" lengthAdjust="spacing" textLength="74" x="639" y="653.0542">implemented</text><line style="stroke:#181818;stroke-width:1.0;" x1="518" x2="518" y1="642.8438" y2="709.5938"/><polygon fill="#181818" points="514,699.5938,518,709.5938,522,699.5938,518,703.5938" style="stroke:#181818;stroke-width:1.0;"/><text fill="#008000" font-family="sans-serif" font-size="11" lengthAdjust="spacing" textLength="80" x="518" y="676.7969">valid interface</text><line style="stroke:#181818;stroke-width:1.0;" x1="518" x2="518" y1="757.5313" y2="790.8281"/><line style="stroke:#181818;stroke-width:1.0;" x1="518" x2="382" y1="790.8281" y2="790.8281"/><polygon fill="#181818" points="392,786.8281,382,790.8281,392,794.8281,388,790.8281" style="stroke:#181818;stroke-width:1.0;"/><line style="stroke:#181818;stroke-width:1.0;" x1="370" x2="370" y1="607.6953" y2="630.8438"/><polygon fill="#181818" points="366,620.8438,370,630.8438,374,620.8438,370,624.8438" style="stroke:#181818;stroke-width:1.0;"/><line style="stroke:#181818;stroke-width:1.0;" x1="370" x2="370" y1="802.8281" y2="843.1094"/><polygon fill="#181818" points="366,833.1094,370,843.1094,374,833.1094,370,837.1094" style="stroke:#181818;stroke-width:1.0;"/><line style="stroke:#181818;stroke-width:1.0;" x1="370" x2="370" y1="877.0781" y2="916.0742"/><polygon fill="#181818" points="366,906.0742,370,916.0742,374,906.0742,370,910.0742" style="stroke:#181818;stroke-width:1.0;"/><line style="stroke:#181818;stroke-width:1.0;" x1="370" x2="370" y1="950.043" y2="980.7578"/><polygon fill="#181818" points="366,970.7578,370,980.7578,374,970.7578,370,974.7578" style="stroke:#181818;stroke-width:1.0;"/><line style="stroke:#181818;stroke-width:1.0;" x1="370" x2="370" y1="1014.7266" y2="1095.9727"/><polygon fill="#181818" points="366,1085.9727,370,1095.9727,374,1085.9727,370,1089.9727" style="stroke:#181818;stroke-width:1.0;"/><line style="stroke:#181818;stroke-width:1.0;" x1="370" x2="370" y1="1129.9414" y2="1233.1875"/><polygon fill="#181818" points="366,1223.1875,370,1233.1875,374,1223.1875,370,1227.1875" style="stroke:#181818;stroke-width:1.0;"/><line style="stroke:#181818;stroke-width:1.0;" x1="624.25" x2="370" y1="456.8203" y2="456.8203"/><line style="stroke:#181818;stroke-width:1.0;" x1="370" x2="370" y1="456.8203" y2="573.7266"/><polygon fill="#181818" points="366,563.7266,370,573.7266,374,563.7266,370,567.7266" style="stroke:#181818;stroke-width:1.0;"/><text fill="#008000" font-family="sans-serif" font-size="11" lengthAdjust="spacing" textLength="157" x="370" y="522.3042">valid directive and template</text><line style="stroke:#181818;stroke-width:1.0;" x1="766.25" x2="1177.5" y1="456.8203" y2="456.8203"/><line style="stroke:#181818;stroke-width:1.0;" x1="1177.5" x2="1177.5" y1="456.8203" y2="504.4297"/><polygon fill="#181818" points="1173.5,494.4297,1177.5,504.4297,1181.5,494.4297,1177.5,498.4297" style="stroke:#181818;stroke-width:1.0;"/><text fill="#FF0000" font-family="sans-serif" font-size="11" lengthAdjust="spacing" textLength="202" x="1177.5" y="484.4331">facade directive template not found</text><line style="stroke:#181818;stroke-width:1.0;" x1="1079.5" x2="1079.5" y1="456.8203" y2="504.4297"/><polygon fill="#181818" points="1075.5,494.4297,1079.5,504.4297,1083.5,494.4297,1079.5,498.4297" style="stroke:#181818;stroke-width:1.0;"/><text fill="#FF0000" font-family="sans-serif" font-size="11" lengthAdjust="spacing" textLength="68" x="1079.5" y="479.4331">parse failed</text><line style="stroke:#181818;stroke-width:1.0;" x1="695.25" x2="695.25" y1="409.8203" y2="444.8203"/><polygon fill="#181818" points="691.25,434.8203,695.25,444.8203,699.25,434.8203,695.25,438.8203" style="stroke:#181818;stroke-width:1.0;"/><line style="stroke:#181818;stroke-width:1.0;" x1="1771" x2="1771" y1="394.6875" y2="429.6875"/><polygon fill="#181818" points="1767,419.6875,1771,429.6875,1775,419.6875,1771,423.6875" style="stroke:#181818;stroke-width:1.0;"/><line style="stroke:#181818;stroke-width:1.0;" x1="881.5" x2="695.25" y1="287.5" y2="287.5"/><line style="stroke:#181818;stroke-width:1.0;" x1="695.25" x2="695.25" y1="287.5" y2="347.9141"/><polygon fill="#181818" points="691.25,337.9141,695.25,347.9141,699.25,337.9141,695.25,341.9141" style="stroke:#181818;stroke-width:1.0;"/><text fill="#008000" font-family="sans-serif" font-size="11" lengthAdjust="spacing" textLength="101" x="695.25" y="321.5151">One facade found</text><line style="stroke:#181818;stroke-width:1.0;" x1="1043.5" x2="1771" y1="287.5" y2="287.5"/><line style="stroke:#181818;stroke-width:1.0;" x1="1771" x2="1771" y1="287.5" y2="360.7188"/><polygon fill="#181818" points="1767,350.7188,1771,360.7188,1775,350.7188,1771,354.7188" style="stroke:#181818;stroke-width:1.0;"/><text fill="#FF0000" font-family="sans-serif" font-size="11" lengthAdjust="spacing" textLength="84" x="1771" y="321.5151">more than one</text><text fill="#FF0000" font-family="sans-serif" font-size="11" lengthAdjust="spacing" textLength="90" x="1771" y="334.3198">facade directive</text><line style="stroke:#181818;stroke-width:1.0;" x1="1464" x2="1464" y1="287.5" y2="347.9141"/><polygon fill="#181818" points="1460,337.9141,1464,347.9141,1468,337.9141,1464,341.9141" style="stroke:#181818;stroke-width:1.0;"/><text fill="#008000" font-family="sans-serif" font-size="11" lengthAdjust="spacing" textLength="144" x="1464" y="316.5151">no facade directive found</text><line style="stroke:#181818;stroke-width:1.0;" x1="962.5" x2="962.5" y1="255.5" y2="275.5"/><polygon fill="#181818" points="958.5,265.5,962.5,275.5,966.5,265.5,962.5,269.5" style="stroke:#181818;stroke-width:1.0;"/><line style="stroke:#181818;stroke-width:1.0;" x1="962.5" x2="962.5" y1="121.2656" y2="167.5625"/><polygon fill="#181818" points="958.5,157.5625,962.5,167.5625,966.5,157.5625,962.5,161.5625" style="stroke:#181818;stroke-width:1.0;"/><line style="stroke:#181818;stroke-width:1.0;" x1="962.5" x2="962.5" y1="1352.4219" y2="1372.4219"/><polygon fill="#181818" points="958.5,1362.4219,962.5,1372.4219,966.5,1362.4219,962.5,1366.4219" style="stroke:#181818;stroke-width:1.0;"/><line style="stroke:#181818;stroke-width:1.0;" x1="962.5" x2="962.5" y1="1406.3906" y2="1438.3906"/><polygon fill="#181818" points="958.5,1428.3906,962.5,1438.3906,966.5,1428.3906,962.5,1432.3906" style="stroke:#181818;stroke-width:1.0;"/><!--SRC=[fLTjRzis4FxkNq7K0vO0QJnlJjF8GuhKiHi3iLFKteTX7G9AEjbS958WANl6aFps7ILAecovsKi_kBR4U-xkkNlk6Crq32GGISfYa2IY0Gs1h823f9e9tb5FZATKqeJyrI7aUxBMEbLUhxTYUftvvsZPIsFATPR4zHS_5dvlSDNlNuHHS1aE-XVlhjxruS8VND7t_U27AtzmEGWflRnw_-DFFIM37WVTKoAJ0KH2hg26KdeNGsyYHR8e8rcAXNbu_WVTqEvzVt21WT50imtJkrj64y73ZpHuMacHyN0aOY59zoR_vnmSLwyaX9tdJaTfAdMdurakY0eaI_N4V3snj8HCWZ47agwfWjDXXmiDHBBLMdj4hvagNX0H19bKn3V9EEpwi6ASQ54-GPFI3mapoVYAQ4WmTGI53OspeWGTp5epyvMCB9JdJVAGFC-6rhqtGNoIT8TrmZIxYzJWVP80t6ininLsqnmUsBLuOx76H5mZGjIMwM1zo9B2F3EkFvpYcS3GSl9pO2ZtLWRz-e53sM-HgPGvHiZRtxhvwz_VNkU_Nma8gK7WxmgSsz9pRad8oqkcC8f3AweKI5tyMbh6Nrvogs7-kPTIuKM2ok8YdTQ4i68iT9g4yh2gvwaDwLkbB6jI_5xK_LSKT_6q-nXdaElmtuADre855f9qPnJVQkeWaUgXm_4KGuS47tfU0YZAASVQ8oEW9XaFZ5yrT11gBJWF2OcPqeJ6CPdEFj-FP-FvqkcGnad3L-ueFswq4La_XDEaSHXuQDmvJygAiJBe3wVEsqQrKF3NZ1VLOcLEfurGi0lnLDc3ZjTZc6u77CTiTFO1yxKcYrno1uNKll889s2DN37Jg82jGGnHimI4LD3vnAdXzuwPqLHodsP-p8BQqTvH4RdJAp9jcYaKwjwnAkAgPVBXbsa82VN51lO9tYjh2ybSrAXVUUDLLNm8_mdtwAxWedhstAc-Tcy1KgivxrM1tG5-IASQhMe8HBeZFkwcLZ5WMehXjAbsW67LiLwQ1REbkxES-MghR1bMZ6PQ9BWkJFbs95W3-i3bKoienUa5F81p1t0kyewWkWOJl3HNHJrnwgtWp_ICX08ZnAmiE8iQ2dLGCKW9UHWqm5cXc1yxNiiI_qUUHmABo_KhF2VOM6vxMc8JYkktOiHsy76sAtCE42eZ3h-YFIoNkm-69EgRRIx84nTRGuqHKTMa3cYb9hAc6sCCd3XD-_zPcc6AfTJcE3I7no2mfa8MWtb39JC9lDQz3QaPUY8Hns9hygyWYcxqpJ10ZhPhpCyb-HXQRcMlF8RRNQF5NSaMOKzkHZUtuyUxCNv-MJnEflVZeuT63_Cb2ksLGtSFqz7uSJ7wClryxEZiPZf_dFmo7osd3_F7-SriV9YEsItjr9YRPvRB0fjJIkn7rMwUoyhCqyhITceB7Uv6qoYxGkLQ5TeiBYzLWsD_PWhQhK-CigriELuLplBBXUrv2GYbiTiRKzMoqf1DSu0_s_-xAUDFvSLQ6Wapda7PRI5eQaVmmPekBbuHDOehVU_lvd8h7nWVtDeh9aoopftpEAQx8TfNqO4J1_TRULTP6rWtwiHC5HpAEA1ulT_Qygakp4xetgyYGqWpxyN6pBnye2EIRVJQUjYf4wtJD7y9rTVAD_knlobooc-ENlaGwPG9ZMr_KhjkX9dznedta6bS-FRwF2p-rXBftm00]--></g></svg>