<?xml version="1.0" encoding="us-ascii" standalone="no"?><svg xmlns="http://www.w3.org/2000/svg" xmlns:xlink="http://www.w3.org/1999/xlink" contentStyleType="text/css" height="1099px" preserveAspectRatio="none" style="width:758px;height:1099px;background:#FFFFFF;" version="1.1" viewBox="0 0 758 1099" width="758px" zoomAndPan="magnify"><defs/><g><text fill="#000000" font-family="sans-serif" font-size="14" font-weight="bold" lengthAdjust="spacing" textLength="205" x="275" y="32.9951">compiler require directive</text><ellipse cx="241.5" cy="57.2969" fill="#222222" rx="10" ry="10" style="stroke:#222222;stroke-width:1.0;"/><path d="M405,77.2969 L405,100.9961 L385,104.9961 L405,108.9961 L405,132.6953 A0,0 0 0 0 405,132.6953 L746,132.6953 A0,0 0 0 0 746,132.6953 L746,87.2969 L736,77.2969 L405,77.2969 A0,0 0 0 0 405,77.2969 " fill="#FEFFDD" style="stroke:#181818;stroke-width:0.5;"/><path d="M736,77.2969 L736,87.2969 L746,87.2969 L736,77.2969 " fill="#FEFFDD" style="stroke:#181818;stroke-width:0.5;"/><text fill="#000000" font-family="sans-serif" font-size="13" font-weight="bold" lengthAdjust="spacing" textLength="80" x="411" y="94.3638">first phase</text><text fill="#000000" font-family="sans-serif" font-size="13" lengthAdjust="spacing" textLength="236" x="495" y="94.3638">occurs during importFunctions phase</text><text fill="#000000" font-family="sans-serif" font-size="13" lengthAdjust="spacing" textLength="303" x="411" y="109.4966">where we collect functions linked to require that</text><text fill="#000000" font-family="sans-serif" font-size="13" lengthAdjust="spacing" textLength="135" x="411" y="124.6294">need to be imported.</text><rect fill="#F1F1F1" height="33.9688" rx="12.5" ry="12.5" style="stroke:#181818;stroke-width:0.5;" width="287" x="98" y="88.0117"/><text fill="#000000" font-family="sans-serif" font-size="12" lengthAdjust="spacing" textLength="267" x="108" y="109.1504">compile scriptFile (require directive phase)</text><rect fill="none" height="504.7578" style="stroke:#000000;stroke-width:1.5;" width="594" x="11" y="142.6953"/><path d="M184,142.6953 L184,151.9922 L174,161.9922 L11,161.9922 " fill="none" style="stroke:#000000;stroke-width:1.5;"/><text fill="#000000" font-family="sans-serif" font-size="14" lengthAdjust="spacing" textLength="163" x="14" y="156.6904">compilerImportFunction</text><rect fill="#F1F1F1" height="33.9688" rx="12.5" ry="12.5" style="stroke:#181818;stroke-width:0.5;" width="299" x="92" y="178.9922"/><text fill="#000000" font-family="sans-serif" font-size="12" lengthAdjust="spacing" textLength="279" x="102" y="200.1309">Compiler::extractUniqueFrameworkFunctions</text><rect fill="#87CEFA" height="344.5547" style="stroke:#000000;stroke-width:1.5;" width="574" x="21" y="222.9609"/><path d="M223,222.9609 L223,232.2578 L213,242.2578 L21,242.2578 " fill="none" style="stroke:#000000;stroke-width:1.5;"/><text fill="#000000" font-family="sans-serif" font-size="14" lengthAdjust="spacing" textLength="192" x="24" y="236.9561">Compiler::Require::requires</text><rect fill="#00FF7F" height="33.9688" rx="12.5" ry="12.5" style="stroke:#181818;stroke-width:0.5;" width="226" x="128.5" y="259.2578"/><text fill="#000000" font-family="sans-serif" font-size="12" lengthAdjust="spacing" textLength="206" x="138.5" y="280.3965">Compiler::Require::filter scriptFile</text><rect fill="#00FF7F" height="61.9063" rx="12.5" ry="12.5" style="stroke:#181818;stroke-width:0.5;" width="285" x="99" y="373.6406"/><text fill="#000000" font-family="sans-serif" font-size="12" lengthAdjust="spacing" textLength="265" x="109" y="394.7793">Compiler::Require::parse $requireDirective</text><text fill="#000000" font-family="sans-serif" font-size="12" lengthAdjust="spacing" textLength="8" x="109" y="408.748">&#160;&#160;</text><text fill="#000000" font-family="sans-serif" font-size="12" lengthAdjust="spacing" text-decoration="wavy underline" textLength="248" x="117" y="408.748">uses Compiler::Require::assertInterface</text><text fill="#000000" font-family="sans-serif" font-size="12" lengthAdjust="spacing" textLength="4" x="109" y="422.7168">&#160;</text><polygon fill="#AAAAAA" points="61,455.5469,422,455.5469,434,467.5469,422,479.5469,61,479.5469,49,467.5469,61,455.5469" style="stroke:#181818;stroke-width:0.5;"/><text fill="#000000" font-family="sans-serif" font-size="11" lengthAdjust="spacing" textLength="361" x="61" y="471.355">implement directive can't be parsed or function does not exist?</text><text fill="#FF0000" font-family="sans-serif" font-size="11" lengthAdjust="spacing" textLength="88" x="434" y="464.9526">invalid directive</text><ellipse cx="542" cy="467.5469" fill="none" rx="10" ry="10" style="stroke:#FF0000;stroke-width:1.5;"/><line style="stroke:#FF0000;stroke-width:2.5;" x1="535.8128" x2="548.1872" y1="461.3597" y2="473.7341"/><line style="stroke:#FF0000;stroke-width:2.5;" x1="548.1872" x2="535.8128" y1="461.3597" y2="473.7341"/><rect fill="#F1F1F1" height="33.9688" rx="12.5" ry="12.5" style="stroke:#181818;stroke-width:0.5;" width="174" x="154.5" y="499.5469"/><text fill="#000000" font-family="sans-serif" font-size="12" lengthAdjust="spacing" textLength="154" x="164.5" y="520.6855">Compiler::Require::parse</text><polygon fill="#AAAAAA" points="193.5,317.9302,289.5,317.9302,301.5,329.9302,289.5,341.9302,193.5,341.9302,181.5,329.9302,193.5,317.9302" style="stroke:#181818;stroke-width:0.5;"/><text fill="#008000" font-family="sans-serif" font-size="11" lengthAdjust="spacing" textLength="129" x="245.5" y="352.1406">require directive found</text><text fill="#000000" font-family="sans-serif" font-size="11" lengthAdjust="spacing" textLength="96" x="193.5" y="333.7383">requireDirective?</text><text fill="#000000" font-family="sans-serif" font-size="11" lengthAdjust="spacing" textLength="93" x="68.5" y="314.5313">no more require</text><text fill="#000000" font-family="sans-serif" font-size="11" lengthAdjust="spacing" textLength="113" x="68.5" y="327.3359">directive to process</text><rect fill="#F1F1F1" height="47.9375" rx="12.5" ry="12.5" style="stroke:#181818;stroke-width:0.5;" width="290" x="96.5" y="587.5156"/><text fill="#000000" font-family="sans-serif" font-size="12" lengthAdjust="spacing" textLength="234" x="106.5" y="608.6543">import functions from 2 previous task</text><text fill="#000000" font-family="sans-serif" font-size="12" lengthAdjust="spacing" textLength="270" x="106.5" y="622.623">and inject them before # FUNCTIONS token</text><rect fill="#87CEFA" height="146.9609" style="stroke:#000000;stroke-width:1.5;" width="647" x="72" y="701.1938"/><path d="M274,701.1938 L274,710.4907 L264,720.4907 L72,720.4907 " fill="none" style="stroke:#000000;stroke-width:1.5;"/><text fill="#000000" font-family="sans-serif" font-size="14" lengthAdjust="spacing" textLength="192" x="75" y="715.189">Compiler::Require::requires</text><path d="M411,740.4907 L411,826.1548 L699,826.1548 L699,750.4907 L689,740.4907 L411,740.4907 " fill="#FEFFDD" style="stroke:#181818;stroke-width:0.5;"/><path d="M689,740.4907 L689,750.4907 L699,750.4907 L689,740.4907 " fill="#FEFFDD" style="stroke:#181818;stroke-width:0.5;"/><text fill="#000000" font-family="sans-serif" font-size="13" font-weight="bold" lengthAdjust="spacing" textLength="103" x="417" y="757.5576">second phase</text><text fill="#000000" font-family="sans-serif" font-size="13" lengthAdjust="spacing" textLength="237" x="417" y="772.6904">call again Compiler::Require::requires</text><text fill="#000000" font-family="sans-serif" font-size="13" lengthAdjust="spacing" textLength="267" x="417" y="787.8232">to get final list of requires in reverse order</text><text fill="#000000" font-family="sans-serif" font-size="13" lengthAdjust="spacing" textLength="266" x="417" y="802.9561">to add the calls to those require functions</text><text fill="#000000" font-family="sans-serif" font-size="13" lengthAdjust="spacing" textLength="122" x="417" y="818.0889">just after the token</text><text fill="#000000" font-family="sans-serif" font-size="13" lengthAdjust="spacing" text-decoration="wavy underline" textLength="79" x="543" y="818.0889"># REQUIRES</text><rect fill="#F1F1F1" height="33.9688" rx="12.5" ry="12.5" style="stroke:#181818;stroke-width:0.5;" width="319" x="82" y="766.3384"/><text fill="#000000" font-family="sans-serif" font-size="12" lengthAdjust="spacing" textLength="299" x="92" y="787.4771">File::insertFileAfterToken requires "# REQUIRES"</text><rect fill="#FFC0CB" height="190.2031" style="stroke:#000000;stroke-width:1.5;" width="341" x="71" y="858.1548"/><path d="M175,858.1548 L175,867.4517 L165,877.4517 L71,877.4517 " fill="none" style="stroke:#000000;stroke-width:1.5;"/><text fill="#000000" font-family="sans-serif" font-size="14" lengthAdjust="spacing" textLength="94" x="74" y="872.1499">compilerEnds</text><rect fill="#F1F1F1" height="33.9688" rx="12.5" ry="12.5" style="stroke:#181818;stroke-width:0.5;" width="319" x="82" y="894.4517"/><text fill="#000000" font-family="sans-serif" font-size="12" lengthAdjust="spacing" textLength="299" x="92" y="915.5903">Compiler::Implement::mergeInterfacesFunctions</text><rect fill="#F1F1F1" height="33.9688" rx="12.5" ry="12.5" style="stroke:#181818;stroke-width:0.5;" width="321" x="81" y="948.4204"/><text fill="#000000" font-family="sans-serif" font-size="12" lengthAdjust="spacing" textLength="301" x="91" y="969.5591">Compiler::Implement::validateInterfaceFunctions</text><rect fill="#F1F1F1" height="33.9688" rx="12.5" ry="12.5" style="stroke:#181818;stroke-width:0.5;" width="103" x="190" y="1002.3892"/><text fill="#000000" font-family="sans-serif" font-size="12" lengthAdjust="spacing" textLength="83" x="200" y="1023.5278">Output result</text><ellipse cx="241.5" cy="1078.3579" fill="none" rx="10" ry="10" style="stroke:#FF0000;stroke-width:1.5;"/><line style="stroke:#FF0000;stroke-width:2.5;" x1="235.3128" x2="247.6872" y1="1072.1707" y2="1084.5451"/><line style="stroke:#FF0000;stroke-width:2.5;" x1="247.6872" x2="235.3128" y1="1072.1707" y2="1084.5451"/><line style="stroke:#181818;stroke-width:1.0;" x1="241.5" x2="241.5" y1="67.2969" y2="88.0117"/><polygon fill="#181818" points="237.5,78.0117,241.5,88.0117,245.5,78.0117,241.5,82.0117" style="stroke:#181818;stroke-width:1.0;"/><line style="stroke:#181818;stroke-width:1.0;" x1="241.5" x2="241.5" y1="479.5469" y2="499.5469"/><polygon fill="#181818" points="237.5,489.5469,241.5,499.5469,245.5,489.5469,241.5,493.5469" style="stroke:#181818;stroke-width:1.0;"/><line style="stroke:#FF0000;stroke-width:1.0;" x1="434" x2="532" y1="467.5469" y2="467.5469"/><polygon fill="#FF0000" points="522,463.5469,532,467.5469,522,471.5469,526,467.5469" style="stroke:#FF0000;stroke-width:1.0;"/><line style="stroke:#181818;stroke-width:1.0;" x1="241.5" x2="241.5" y1="435.5469" y2="455.5469"/><polygon fill="#181818" points="237.5,445.5469,241.5,455.5469,245.5,445.5469,241.5,449.5469" style="stroke:#181818;stroke-width:1.0;"/><line style="stroke:#008000;stroke-width:1.0;" x1="241.5" x2="241.5" y1="341.9302" y2="373.6406"/><polygon fill="#008000" points="237.5,363.6406,241.5,373.6406,245.5,363.6406,241.5,367.6406" style="stroke:#008000;stroke-width:1.0;"/><line style="stroke:#181818;stroke-width:1.0;" x1="241.5" x2="241.5" y1="533.5156" y2="543.5156"/><line style="stroke:#181818;stroke-width:1.0;" x1="241.5" x2="576" y1="543.5156" y2="543.5156"/><polygon fill="#181818" points="572,469.1758,576,459.1758,580,469.1758,576,465.1758" style="stroke:#181818;stroke-width:1.0;"/><line style="stroke:#181818;stroke-width:1.0;" x1="576" x2="576" y1="329.9302" y2="543.5156"/><line style="stroke:#181818;stroke-width:1.0;" x1="576" x2="301.5" y1="329.9302" y2="329.9302"/><polygon fill="#181818" points="311.5,325.9302,301.5,329.9302,311.5,333.9302,307.5,329.9302" style="stroke:#181818;stroke-width:1.0;"/><line style="stroke:#181818;stroke-width:1.0;" x1="181.5" x2="37" y1="329.9302" y2="329.9302"/><polygon fill="#181818" points="33,455.1758,37,465.1758,41,455.1758,37,459.1758" style="stroke:#181818;stroke-width:1.0;"/><line style="stroke:#181818;stroke-width:1.0;" x1="37" x2="37" y1="329.9302" y2="555.5156"/><line style="stroke:#181818;stroke-width:1.0;" x1="37" x2="241.5" y1="555.5156" y2="555.5156"/><line style="stroke:#181818;stroke-width:1.0;" x1="241.5" x2="241.5" y1="555.5156" y2="587.5156"/><polygon fill="#181818" points="237.5,577.5156,241.5,587.5156,245.5,577.5156,241.5,581.5156" style="stroke:#181818;stroke-width:1.0;"/><line style="stroke:#181818;stroke-width:1.0;" x1="241.5" x2="241.5" y1="293.2266" y2="317.9302"/><polygon fill="#181818" points="237.5,307.9302,241.5,317.9302,245.5,307.9302,241.5,311.9302" style="stroke:#181818;stroke-width:1.0;"/><line style="stroke:#181818;stroke-width:1.0;" x1="241.5" x2="241.5" y1="212.9609" y2="259.2578"/><polygon fill="#181818" points="237.5,249.2578,241.5,259.2578,245.5,249.2578,241.5,253.2578" style="stroke:#181818;stroke-width:1.0;"/><line style="stroke:#181818;stroke-width:1.0;" x1="241.5" x2="241.5" y1="121.9805" y2="178.9922"/><polygon fill="#181818" points="237.5,168.9922,241.5,178.9922,245.5,168.9922,241.5,172.9922" style="stroke:#181818;stroke-width:1.0;"/><line style="stroke:#008000;stroke-width:1.5;stroke-dasharray:7.0,7.0;" x1="241.5" x2="241.5" y1="635.4531" y2="766.3384"/><polygon fill="#008000" points="237.5,756.3384,241.5,766.3384,245.5,756.3384,241.5,760.3384" style="stroke:#008000;stroke-width:1.0;"/><text fill="#000000" font-family="sans-serif" font-size="11" lengthAdjust="spacing" textLength="49" x="245.5" y="668.7578">compiler</text><text fill="#000000" font-family="sans-serif" font-size="11" lengthAdjust="spacing" textLength="46" x="245.5" y="681.5625">process</text><text fill="#000000" font-family="sans-serif" font-size="11" lengthAdjust="spacing" textLength="55" x="245.5" y="694.3672">continues</text><text fill="#000000" font-family="sans-serif" font-size="11" lengthAdjust="spacing" textLength="4" x="245.5" y="707.1719">&#160;</text><line style="stroke:#181818;stroke-width:1.0;" x1="241.5" x2="241.5" y1="928.4204" y2="948.4204"/><polygon fill="#181818" points="237.5,938.4204,241.5,948.4204,245.5,938.4204,241.5,942.4204" style="stroke:#181818;stroke-width:1.0;"/><line style="stroke:#181818;stroke-width:1.0;" x1="241.5" x2="241.5" y1="982.3892" y2="1002.3892"/><polygon fill="#181818" points="237.5,992.3892,241.5,1002.3892,245.5,992.3892,241.5,996.3892" style="stroke:#181818;stroke-width:1.0;"/><line style="stroke:#181818;stroke-width:1.0;" x1="241.5" x2="241.5" y1="800.3071" y2="894.4517"/><polygon fill="#181818" points="237.5,884.4517,241.5,894.4517,245.5,884.4517,241.5,888.4517" style="stroke:#181818;stroke-width:1.0;"/><line style="stroke:#181818;stroke-width:1.0;" x1="241.5" x2="241.5" y1="1036.3579" y2="1068.3579"/><polygon fill="#181818" points="237.5,1058.3579,241.5,1068.3579,245.5,1058.3579,241.5,1062.3579" style="stroke:#181818;stroke-width:1.0;"/><!--SRC=[bLNRRXit47tVhnX81M8RYLMbSXoj2XU9OnK2WWInxAUs3zHoLakBIsx8eHoZYB-zmzLUPCTkKJr813ddpCoPYqYHHiXiMIcD3Xn-3SeXIFxAI6qnyHjbAk542Nyd02-W8AfyEXgj5HLXTSp8KQM5eL3g_h3ITZMQJCVZ4vbdft8oFdapVJF6azLaAjwEiv-dgydfH0fnEdtx-fUHTzd888sy3Ix3tBerzbIUxZIEviwMopQIAxkCbyStOYk67yUJ4mvCn6WLtNrGehH6lXVPPkriCFBSQkjW-Ax-x1bUT4yEPV8zIJm9HqcIDbg0pvogQ1wF1p_80bKXF1xE4cC9mQbrGSnzT9GhvsdtU7G4Dik2yo23KsODggoietamp62DtranwhP0fhwDLT2QwI7lJBGo6vH0jYiC5I9wChYxNc53Y_8uGIDZE4d2Af6A331eAxjuu7nG5pCzRnxJ5B-HOsMkZVeQSCuQuwrrcoxMMSBcUwmzy78NLves0Ve133z6EPQRk_Sw83jYAC1mMKKHVdU89dq2dYjDt7-zwBCQTbliw_-XbV-tGr0U3dxDOWNJTIGz-x56UQp_OSq3yEgFOMttrwkpvkQ_Gk9yFS9FZtqtQ83x- -3HmnD8uJqwMXZEA1SPtjytc5dpgt8uuB9fBD7GNi2PC2yerhHsBO6xi-q5a9PzSNa1lobF3mNW3ZvJPYkqaZtR8VSAcYvQpf_D-km1k5sQCsgF-uQFX693bJyhuxFIxR9bS5D4Ow6qNA16q3zDdpXtSkLiXjx7SdsFBPFk-dfl67BU0V2Q3N6hRF10mc_YG1i9ojp4mU64IvOlZrw6CB_-T7wr-FnfoVGRDBCuv6tuBwNmHIr7j_kI9e8aiuQK2UYJsODH-bzD3_1eCtXaNjck1hxAXDOWra8P-1TcDcHnriX2A2CqRmJUBpPlHVISEf-t65lLEibfr00XPLIZTkBZ1HNMTzBtehBrJM16aSVfYuXQA-xj8LnUVBbUN5uiw_PjTmiN9avdcYeJUpoUtqNiLGtheXhqy44j_1ChYJTm5AxY7VTu7ItQuKZJ4ldle1iblxUIdaFKSo2e1pt4V0vK1U9GVT1KnyQv_GC0]--></g></svg>