<?xml version="1.0" encoding="us-ascii" standalone="no"?><svg xmlns="http://www.w3.org/2000/svg" xmlns:xlink="http://www.w3.org/1999/xlink" contentStyleType="text/css" height="897px" preserveAspectRatio="none" style="width:925px;height:897px;background:#FFFFFF;" version="1.1" viewBox="0 0 925 897" width="925px" zoomAndPan="magnify"><defs/><g><text fill="#000000" font-family="sans-serif" font-size="14" font-weight="bold" lengthAdjust="spacing" textLength="231" x="345.5" y="32.9951">compiler implement interface</text><ellipse cx="308.5" cy="57.2969" fill="#222222" rx="10" ry="10" style="stroke:#222222;stroke-width:1.0;"/><path d="M482,91.7148 L482,100.2813 L462,104.2813 L482,108.2813 L482,116.8477 A0,0 0 0 0 482,116.8477 L913,116.8477 A0,0 0 0 0 913,116.8477 L913,101.7148 L903,91.7148 L482,91.7148 A0,0 0 0 0 482,91.7148 " fill="#FEFFDD" style="stroke:#181818;stroke-width:0.5;"/><path d="M903,91.7148 L903,101.7148 L913,101.7148 L903,91.7148 " fill="#FEFFDD" style="stroke:#181818;stroke-width:0.5;"/><text fill="#000000" font-family="sans-serif" font-size="13" lengthAdjust="spacing" textLength="410" x="488" y="108.7817">this phase occurs when the scriptFile has been entirely compiled</text><rect fill="#F1F1F1" height="33.9688" rx="12.5" ry="12.5" style="stroke:#181818;stroke-width:0.5;" width="307" x="155" y="87.2969"/><text fill="#000000" font-family="sans-serif" font-size="12" lengthAdjust="spacing" textLength="287" x="165" y="108.4355">compile scriptFile (implement directive phase)</text><rect fill="#D3D3D3" height="659.1406" style="stroke:#000000;stroke-width:1.5;" width="558" x="47.5" y="131.2656"/><path d="M271.5,131.2656 L271.5,140.5625 L261.5,150.5625 L47.5,150.5625 " fill="none" style="stroke:#000000;stroke-width:1.5;"/><text fill="#000000" font-family="sans-serif" font-size="14" lengthAdjust="spacing" textLength="214" x="50.5" y="145.2607">Compiler::Implement::interface</text><rect fill="#00FF7F" height="33.9688" rx="12.5" ry="12.5" style="stroke:#181818;stroke-width:0.5;" width="275" x="171" y="167.5625"/><text fill="#000000" font-family="sans-serif" font-size="12" lengthAdjust="spacing" textLength="251" x="185" y="188.7012">Compiler::Implement::interface scriptFile</text><rect fill="#87CEFA" height="356.2651" style="stroke:#000000;stroke-width:1.5;" width="482" x="113.5" y="211.5313"/><path d="M345.5,211.5313 L345.5,220.8281 L335.5,230.8281 L113.5,230.8281 " fill="none" style="stroke:#000000;stroke-width:1.5;"/><text fill="#000000" font-family="sans-serif" font-size="14" lengthAdjust="spacing" textLength="222" x="116.5" y="225.5264">Compiler::Implement::interfaces</text><rect fill="#00FF7F" height="33.9688" rx="12.5" ry="12.5" style="stroke:#181818;stroke-width:0.5;" width="243" x="187" y="247.8281"/><text fill="#000000" font-family="sans-serif" font-size="12" lengthAdjust="spacing" textLength="223" x="197" y="268.9668">Compiler::Implement::filter scriptFile</text><rect fill="#00FF7F" height="61.9063" rx="12.5" ry="12.5" style="stroke:#181818;stroke-width:0.5;" width="322" x="147.5" y="357.5073"/><text fill="#000000" font-family="sans-serif" font-size="12" lengthAdjust="spacing" textLength="302" x="157.5" y="378.646">Compiler::Implement::parse $implementDirective</text><text fill="#000000" font-family="sans-serif" font-size="12" lengthAdjust="spacing" textLength="8" x="157.5" y="392.6147">&#160;&#160;</text><text fill="#000000" font-family="sans-serif" font-size="12" lengthAdjust="spacing" text-decoration="wavy underline" textLength="265" x="165.5" y="392.6147">uses Compiler::Implement::assertInterface</text><text fill="#000000" font-family="sans-serif" font-size="12" lengthAdjust="spacing" textLength="4" x="157.5" y="406.5835">&#160;</text><polygon fill="#AAAAAA" points="206.5,444.1172,410.5,444.1172,422.5,456.1172,410.5,468.1172,206.5,468.1172,194.5,456.1172,206.5,444.1172" style="stroke:#181818;stroke-width:0.5;"/><text fill="#008000" font-family="sans-serif" font-size="11" lengthAdjust="spacing" textLength="78" x="312.5" y="478.3276">valid directive</text><text fill="#000000" font-family="sans-serif" font-size="11" lengthAdjust="spacing" textLength="204" x="206.5" y="459.9253">implement directive can be parsed?</text><text fill="#FF0000" font-family="sans-serif" font-size="11" lengthAdjust="spacing" textLength="100" x="422.5" y="440.7183">invalid implement</text><text fill="#FF0000" font-family="sans-serif" font-size="11" lengthAdjust="spacing" textLength="48" x="422.5" y="453.5229">directive</text><ellipse cx="542.5" cy="456.1172" fill="none" rx="10" ry="10" style="stroke:#FF0000;stroke-width:1.5;"/><line style="stroke:#FF0000;stroke-width:2.5;" x1="536.3128" x2="548.6872" y1="449.93" y2="462.3044"/><line style="stroke:#FF0000;stroke-width:2.5;" x1="548.6872" x2="536.3128" y1="449.93" y2="462.3044"/><rect fill="#00FF7F" height="33.9688" rx="12.5" ry="12.5" style="stroke:#181818;stroke-width:0.5;" width="264" x="176.5" y="499.8276"/><text fill="#000000" font-family="sans-serif" font-size="12" lengthAdjust="spacing" textLength="244" x="186.5" y="520.9663">add interfaceFunction to interfaces list</text><polygon fill="#AAAAAA" points="251,301.7969,366,301.7969,378,313.7969,366,325.7969,251,325.7969,239,313.7969,251,301.7969" style="stroke:#181818;stroke-width:0.5;"/><text fill="#008000" font-family="sans-serif" font-size="11" lengthAdjust="spacing" textLength="148" x="312.5" y="336.0073">implement directive found</text><text fill="#000000" font-family="sans-serif" font-size="11" lengthAdjust="spacing" textLength="115" x="251" y="317.605">implementDirective?</text><text fill="#000000" font-family="sans-serif" font-size="11" lengthAdjust="spacing" textLength="229" x="10" y="311.2026">no more implement directive to process</text><rect fill="#00FF7F" height="33.9688" rx="12.5" ry="12.5" style="stroke:#181818;stroke-width:0.5;" width="407" x="105" y="587.7964"/><text fill="#000000" font-family="sans-serif" font-size="12" lengthAdjust="spacing" textLength="387" x="115" y="608.9351">Compiler::Implement::mergeInterfacesFunctions interfacesList</text><rect fill="#00FF7F" height="33.9688" rx="12.5" ry="12.5" style="stroke:#181818;stroke-width:0.5;" width="502" x="57.5" y="641.7651"/><text fill="#000000" font-family="sans-serif" font-size="12" lengthAdjust="spacing" textLength="482" x="67.5" y="662.9038">Compiler::Implement::validateInterfaceFunctions scriptFile interfaceFunctions</text><polygon fill="#AAAAAA" points="188,700.4375,429,700.4375,441,712.4375,429,724.4375,188,724.4375,176,712.4375,188,700.4375" style="stroke:#181818;stroke-width:0.5;"/><text fill="#000000" font-family="sans-serif" font-size="11" lengthAdjust="spacing" textLength="241" x="188" y="716.2456">one function cannot be found in scriptFile?</text><text fill="#FF0000" font-family="sans-serif" font-size="11" lengthAdjust="spacing" textLength="94" x="441" y="697.0386">missing function</text><text fill="#FF0000" font-family="sans-serif" font-size="11" lengthAdjust="spacing" textLength="87" x="441" y="709.8433">#functionName</text><ellipse cx="555" cy="712.4375" fill="none" rx="10" ry="10" style="stroke:#FF0000;stroke-width:1.5;"/><line style="stroke:#FF0000;stroke-width:2.5;" x1="548.8128" x2="561.1872" y1="706.2503" y2="718.6247"/><line style="stroke:#FF0000;stroke-width:2.5;" x1="561.1872" x2="548.8128" y1="706.2503" y2="718.6247"/><rect fill="#00FF7F" height="33.9688" rx="12.5" ry="12.5" style="stroke:#181818;stroke-width:0.5;" width="334" x="141.5" y="744.4375"/><text fill="#000000" font-family="sans-serif" font-size="12" lengthAdjust="spacing" textLength="314" x="151.5" y="765.5762">All functions of interfaces have been implemented</text><rect fill="#F1F1F1" height="33.9688" rx="12.5" ry="12.5" style="stroke:#181818;stroke-width:0.5;" width="103" x="257" y="810.4063"/><text fill="#000000" font-family="sans-serif" font-size="12" lengthAdjust="spacing" textLength="83" x="267" y="831.5449">Output result</text><ellipse cx="308.5" cy="875.375" fill="none" rx="11" ry="11" style="stroke:#222222;stroke-width:1.0;"/><ellipse cx="308.5" cy="875.375" fill="#222222" rx="6" ry="6" style="stroke:#222222;stroke-width:1.0;"/><line style="stroke:#181818;stroke-width:1.0;" x1="308.5" x2="308.5" y1="67.2969" y2="87.2969"/><polygon fill="#181818" points="304.5,77.2969,308.5,87.2969,312.5,77.2969,308.5,81.2969" style="stroke:#181818;stroke-width:1.0;"/><line style="stroke:#181818;stroke-width:1.0;" x1="308.5" x2="308.5" y1="468.1172" y2="499.8276"/><polygon fill="#181818" points="304.5,489.8276,308.5,499.8276,312.5,489.8276,308.5,493.8276" style="stroke:#181818;stroke-width:1.0;"/><line style="stroke:#FF0000;stroke-width:1.0;" x1="422.5" x2="532.5" y1="456.1172" y2="456.1172"/><polygon fill="#FF0000" points="522.5,452.1172,532.5,456.1172,522.5,460.1172,526.5,456.1172" style="stroke:#FF0000;stroke-width:1.0;"/><line style="stroke:#181818;stroke-width:1.0;" x1="308.5" x2="308.5" y1="419.4136" y2="444.1172"/><polygon fill="#181818" points="304.5,434.1172,308.5,444.1172,312.5,434.1172,308.5,438.1172" style="stroke:#181818;stroke-width:1.0;"/><line style="stroke:#008000;stroke-width:1.0;" x1="308.5" x2="308.5" y1="325.7969" y2="357.5073"/><polygon fill="#008000" points="304.5,347.5073,308.5,357.5073,312.5,347.5073,308.5,351.5073" style="stroke:#008000;stroke-width:1.0;"/><line style="stroke:#008000;stroke-width:1.0;" x1="308.5" x2="308.5" y1="533.7964" y2="543.7964"/><line style="stroke:#008000;stroke-width:1.0;" x1="308.5" x2="576.5" y1="543.7964" y2="543.7964"/><polygon fill="#008000" points="572.5,458.1484,576.5,448.1484,580.5,458.1484,576.5,454.1484" style="stroke:#008000;stroke-width:1.0;"/><line style="stroke:#008000;stroke-width:1.0;" x1="576.5" x2="576.5" y1="313.7969" y2="543.7964"/><line style="stroke:#008000;stroke-width:1.0;" x1="576.5" x2="378" y1="313.7969" y2="313.7969"/><polygon fill="#008000" points="388,309.7969,378,313.7969,388,317.7969,384,313.7969" style="stroke:#008000;stroke-width:1.0;"/><line style="stroke:#181818;stroke-width:1.0;" x1="239" x2="135.5" y1="313.7969" y2="313.7969"/><polygon fill="#181818" points="131.5,444.1484,135.5,454.1484,139.5,444.1484,135.5,448.1484" style="stroke:#181818;stroke-width:1.0;"/><line style="stroke:#181818;stroke-width:1.0;" x1="135.5" x2="135.5" y1="313.7969" y2="555.7964"/><line style="stroke:#181818;stroke-width:1.0;" x1="135.5" x2="308.5" y1="555.7964" y2="555.7964"/><line style="stroke:#181818;stroke-width:1.0;" x1="308.5" x2="308.5" y1="555.7964" y2="587.7964"/><polygon fill="#181818" points="304.5,577.7964,308.5,587.7964,312.5,577.7964,308.5,581.7964" style="stroke:#181818;stroke-width:1.0;"/><line style="stroke:#181818;stroke-width:1.0;" x1="308.5" x2="308.5" y1="281.7969" y2="301.7969"/><polygon fill="#181818" points="304.5,291.7969,308.5,301.7969,312.5,291.7969,308.5,295.7969" style="stroke:#181818;stroke-width:1.0;"/><line style="stroke:#181818;stroke-width:1.0;" x1="308.5" x2="308.5" y1="201.5313" y2="247.8281"/><polygon fill="#181818" points="304.5,237.8281,308.5,247.8281,312.5,237.8281,308.5,241.8281" style="stroke:#181818;stroke-width:1.0;"/><line style="stroke:#181818;stroke-width:1.0;" x1="308.5" x2="308.5" y1="621.7651" y2="641.7651"/><polygon fill="#181818" points="304.5,631.7651,308.5,641.7651,312.5,631.7651,308.5,635.7651" style="stroke:#181818;stroke-width:1.0;"/><line style="stroke:#181818;stroke-width:1.0;" x1="308.5" x2="308.5" y1="724.4375" y2="744.4375"/><polygon fill="#181818" points="304.5,734.4375,308.5,744.4375,312.5,734.4375,308.5,738.4375" style="stroke:#181818;stroke-width:1.0;"/><line style="stroke:#FF0000;stroke-width:1.0;" x1="441" x2="545" y1="712.4375" y2="712.4375"/><polygon fill="#FF0000" points="535,708.4375,545,712.4375,535,716.4375,539,712.4375" style="stroke:#FF0000;stroke-width:1.0;"/><line style="stroke:#181818;stroke-width:1.0;" x1="308.5" x2="308.5" y1="675.7339" y2="700.4375"/><polygon fill="#181818" points="304.5,690.4375,308.5,700.4375,312.5,690.4375,308.5,694.4375" style="stroke:#181818;stroke-width:1.0;"/><line style="stroke:#181818;stroke-width:1.0;" x1="308.5" x2="308.5" y1="121.2656" y2="167.5625"/><polygon fill="#181818" points="304.5,157.5625,308.5,167.5625,312.5,157.5625,308.5,161.5625" style="stroke:#181818;stroke-width:1.0;"/><line style="stroke:#181818;stroke-width:1.0;" x1="308.5" x2="308.5" y1="778.4063" y2="810.4063"/><polygon fill="#181818" points="304.5,800.4063,308.5,810.4063,312.5,800.4063,308.5,804.4063" style="stroke:#181818;stroke-width:1.0;"/><line style="stroke:#181818;stroke-width:1.0;" x1="308.5" x2="308.5" y1="844.375" y2="864.375"/><polygon fill="#181818" points="304.5,854.375,308.5,864.375,312.5,854.375,308.5,858.375" style="stroke:#181818;stroke-width:1.0;"/><!--SRC=[ZLJBRjim4BphAnPmWSQ7H7Lh9x5SfCYZ2G8OxS6zjJtG96MneKY1N2KmYlZRkrIiLoAWzebOQcTdPyP4XLe2jtcXj7IWyaBBN1e4PL2wb74P-GTb2kPO3dyZWFUG8HO-YUEDmgnSdr1lN6XciCnrUrXhkuwdyyba9b9-9gQJsUdyT29dw-cSdK_uX_bwUZOLZ9tDppz-YhtZiP4OUriwBbFhDhA5yhZLChvrDb_LJ7xOLIYU_66FRBISJ6T4Z75KZmgtDuhbreWhnXyspfP6N5jj7Omkgr_dmw_DbPCYUeuyCeTHbEp50C-TAl0s78zQNOHoCW18A3BcvNWH6OiIdDfac01cohzSWEMyT1wUCccet8EZUrXBgXCWmUbjRO288jeF5Ifhu7flIfBSrzEJfB45HiimyiwnBVb2QurMXLDcS-S8EFbVSqjc4NeF7UhtKrSFsojToYeGhoOF0gHA4q9lQcXyolhYtjJQVXa3wNZqcGT_aaq0lXYo80t-ZYiiWEEVe-hBtySN-yeXr6XrCklTMmuD1i1kLthQVR2VUIyTtjSAxNPDtw8vgNGuGPmPoW5K5CJGpezCAz4sZ4EGJ8VOqCfIqpur32NxGfaNc8R1BzEvRS7xk7JNHILS8wBEMQN38ZCXshVZjZIyYXLQw8H8Au-jEg-N8F1zC8o5t3e9GzeHOk4ieVbnIF1pT8ZPkQINfV7Ar_HyXzooudOGMYKhmnQmnUlysT-8uSFg8HBMK89hXIWBz924E5IXfhOEI3yRmRPSUK_iclwUfwEw-etbtT3qRNqnDCGbUcj3xN2_sjFaKkjcl0URTXtE65bKFN6DTr8iw96Dakyb5YM2axxKGMcFjlW7]--></g></svg>