<?xml version="1.0" encoding="us-ascii" standalone="no"?><svg xmlns="http://www.w3.org/2000/svg" xmlns:xlink="http://www.w3.org/1999/xlink" contentStyleType="text/css" height="511px" preserveAspectRatio="none" style="width:617px;height:511px;background:#FFFFFF;" version="1.1" viewBox="0 0 617 511" width="617px" zoomAndPan="magnify"><defs/><g><text fill="#000000" font-family="sans-serif" font-size="14" font-weight="bold" lengthAdjust="spacing" textLength="225" x="194.5" y="32.9951">require environment loading</text><ellipse cx="176" cy="57.2969" fill="#222222" rx="10" ry="10" style="stroke:#222222;stroke-width:1.0;"/><rect fill="#87CEFA" height="381.1328" style="stroke:#000000;stroke-width:1.5;" width="595" x="11" y="77.2969"/><path d="M138,77.2969 L138,86.5938 L128,96.5938 L11,96.5938 " fill="none" style="stroke:#000000;stroke-width:1.5;"/><text fill="#000000" font-family="sans-serif" font-size="14" lengthAdjust="spacing" textLength="117" x="14" y="91.292">Env::requireLoad</text><rect fill="#87CEFA" height="285.8672" style="stroke:#000000;stroke-width:1.5;" width="575" x="21" y="106.5938"/><path d="M221,106.5938 L221,115.8906 L211,125.8906 L21,125.8906 " fill="none" style="stroke:#000000;stroke-width:1.5;"/><text fill="#000000" font-family="sans-serif" font-size="14" lengthAdjust="spacing" textLength="190" x="24" y="120.5889">Env::getOrderedConfigFiles</text><rect fill="#00BFFF" height="33.9688" rx="12.5" ry="12.5" style="stroke:#181818;stroke-width:0.5;" width="190" x="81" y="142.8906"/><text fill="#000000" font-family="sans-serif" font-size="12" lengthAdjust="spacing" textLength="170" x="91" y="164.0293">Env::parseEnvFileArgument</text><path d="M295.5,201.2773 L295.5,209.8438 L275.5,213.8438 L295.5,217.8438 L295.5,226.4102 A0,0 0 0 0 295.5,226.4102 L536.5,226.4102 A0,0 0 0 0 536.5,226.4102 L536.5,211.2773 L526.5,201.2773 L295.5,201.2773 A0,0 0 0 0 295.5,201.2773 " fill="#FEFFDD" style="stroke:#181818;stroke-width:0.5;"/><path d="M526.5,201.2773 L526.5,211.2773 L536.5,211.2773 L526.5,201.2773 " fill="#FEFFDD" style="stroke:#181818;stroke-width:0.5;"/><text fill="#000000" font-family="sans-serif" font-size="13" lengthAdjust="spacing" textLength="220" x="301.5" y="218.3442">generate a file to load if necessary</text><rect fill="#00BFFF" height="33.9688" rx="12.5" ry="12.5" style="stroke:#181818;stroke-width:0.5;" width="199" x="76.5" y="196.8594"/><text fill="#000000" font-family="sans-serif" font-size="12" lengthAdjust="spacing" textLength="179" x="86.5" y="217.998">Env::parseVerboseArgument</text><path d="M341,240.8281 L341,279.6602 L321,283.6602 L341,287.6602 L341,326.4922 A0,0 0 0 0 341,326.4922 L586,326.4922 A0,0 0 0 0 586,326.4922 L586,250.8281 L576,240.8281 L341,240.8281 A0,0 0 0 0 341,240.8281 " fill="#FEFFDD" style="stroke:#181818;stroke-width:0.5;"/><path d="M576,240.8281 L576,250.8281 L586,250.8281 L576,240.8281 " fill="#FEFFDD" style="stroke:#181818;stroke-width:0.5;"/><text fill="#000000" font-family="sans-serif" font-size="13" font-style="italic" lengthAdjust="spacing" textLength="60" x="347" y="257.895">Example:</text><text fill="#000000" font-family="monospace" font-size="13" lengthAdjust="spacing" textLength="208" x="347" y="273.0278">BASH_FRAMEWORK_ENV_FILES=(</text><text fill="#000000" font-family="monospace" font-size="13" lengthAdjust="spacing" textLength="208" x="363" y="288.1606">"${HOME}/.bash-tools/.env"</text><text fill="#000000" font-family="monospace" font-size="13" lengthAdjust="spacing" textLength="112" x="363" y="303.2935">"${HOME}/.env"</text><text fill="#000000" font-family="monospace" font-size="13" lengthAdjust="spacing" textLength="8" x="347" y="318.4263">)</text><rect fill="#00BFFF" height="33.9688" rx="12.5" ry="12.5" style="stroke:#181818;stroke-width:0.5;" width="290" x="31" y="266.6758"/><text fill="#000000" font-family="sans-serif" font-size="12" lengthAdjust="spacing" textLength="270" x="41" y="287.8145">add eventual BASH_FRAMEWORK_ENV_FILES</text><rect fill="#00BFFF" height="33.9688" rx="12.5" ry="12.5" style="stroke:#181818;stroke-width:0.5;" width="146" x="103" y="346.4922"/><text fill="#000000" font-family="sans-serif" font-size="12" lengthAdjust="spacing" textLength="126" x="113" y="367.6309">default variables file</text><rect fill="#00BFFF" height="33.9688" rx="12.5" ry="12.5" style="stroke:#181818;stroke-width:0.5;" width="275" x="38.5" y="412.4609"/><text fill="#000000" font-family="sans-serif" font-size="12" lengthAdjust="spacing" textLength="255" x="48.5" y="433.5996">Env::mergeConfFiles $orderedConfigFiles</text><ellipse cx="176" cy="489.4297" fill="none" rx="11" ry="11" style="stroke:#222222;stroke-width:1.0;"/><ellipse cx="176" cy="489.4297" fill="#222222" rx="6" ry="6" style="stroke:#111111;stroke-width:1.0;"/><line style="stroke:#181818;stroke-width:1.0;" x1="176" x2="176" y1="176.8594" y2="196.8594"/><polygon fill="#181818" points="172,186.8594,176,196.8594,180,186.8594,176,190.8594" style="stroke:#181818;stroke-width:1.0;"/><line style="stroke:#181818;stroke-width:1.0;" x1="176" x2="176" y1="230.8281" y2="266.6758"/><polygon fill="#181818" points="172,256.6758,176,266.6758,180,256.6758,176,260.6758" style="stroke:#181818;stroke-width:1.0;"/><line style="stroke:#181818;stroke-width:1.0;" x1="176" x2="176" y1="300.6445" y2="346.4922"/><polygon fill="#181818" points="172,336.4922,176,346.4922,180,336.4922,176,340.4922" style="stroke:#181818;stroke-width:1.0;"/><line style="stroke:#181818;stroke-width:1.0;" x1="176" x2="176" y1="380.4609" y2="412.4609"/><polygon fill="#181818" points="172,402.4609,176,412.4609,180,402.4609,176,406.4609" style="stroke:#181818;stroke-width:1.0;"/><line style="stroke:#181818;stroke-width:1.0;" x1="176" x2="176" y1="67.2969" y2="142.8906"/><polygon fill="#181818" points="172,132.8906,176,142.8906,180,132.8906,176,136.8906" style="stroke:#181818;stroke-width:1.0;"/><line style="stroke:#181818;stroke-width:1.0;" x1="176" x2="176" y1="446.4297" y2="478.4297"/><polygon fill="#181818" points="172,468.4297,176,478.4297,180,468.4297,176,472.4297" style="stroke:#181818;stroke-width:1.0;"/><!--SRC=[VL9HRzCm47xFhpYrau07QWBfkcQ0r6wfXkYejA3nM5tYIshgsC5s8ggf_nqd6-kq3lnqFd_tVUVxpWad2GpzQeGX8DKAerL5oe7Ko8Kg0xiLgaQ35Tm50AzWurnjOyPAuJPDDifrnMg9oZMLF0IPr1cBfc4uvaK-uL4uFfsUXZJEeYcUXVcxQHPD8euucPwz_y2ioPaYnwnkJ4w5DYKTgApRIM8BewlqRoVVTTebHp-nnU4oZCQ-CSoTQ8NRNGgijE9ppBUbqOtY5rfg0yDPVvu0aySdGppO1u5rQ5mGU0KddD0A1ebgu_XXDai_ZW4CbwBSk7Ixcyk6_40yttDyIMvbE7dI2wqAKIw497jS2VuCBudgXrJS5tioIpxgYcQcR3edpeF_WM_9PDe-0NTOfPqtjHECeIH51lqTeV2iu7HlBOW25ELaBPhT2mh8EL3h6HkKC9-bL-l5pUmw-R6w-RfEljsk5r-MIVfShRyoblp6gfRabwHFVCmrfyzz-2-YJw_xPu31oTtLwZhPir66TlFMQIqj6_cz71m17fDlxbNOGOOKxvfwuLkS2coaWnQDmCmxqm-b-yU-GnyFkIA_ZPsJlOzmee-yFRzV7bt_0G00]--></g></svg>