<svg xmlns="http://www.w3.org/2000/svg" xmlns:xlink="http://www.w3.org/1999/xlink" contentStyleType="text/css" height="897px" preserveAspectRatio="none" style="width:925px;height:897px;background:#FFFFFF;" version="1.1" viewBox="0 0 925 897" width="925px" zoomAndPan="magnify"><title>compiler implement interface</title><defs/><g><text fill="#000000" font-family="sans-serif" font-size="14" font-weight="bold" lengthAdjust="spacing" textLength="233.9053" x="344.3877" y="32.9951">compiler implement interface</text><ellipse cx="300.1904" cy="57.2969" fill="#222222" rx="10" ry="10" style="stroke:#222222;stroke-width:1.0;"/><path d="M470.0156,91.7148 L470.0156,100.2813 L450.0156,104.2813 L470.0156,108.2813 L470.0156,116.8477 A0,0 0 0 0 470.0156,116.8477 L913.6807,116.8477 A0,0 0 0 0 913.6807,116.8477 L913.6807,101.7148 L903.6807,91.7148 L470.0156,91.7148 A0,0 0 0 0 470.0156,91.7148 " fill="#FEFFDD" style="stroke:#181818;stroke-width:0.5;"/><path d="M903.6807,91.7148 L903.6807,101.7148 L913.6807,101.7148 L903.6807,91.7148 " fill="#FEFFDD" style="stroke:#181818;stroke-width:0.5;"/><text fill="#000000" font-family="sans-serif" font-size="13" lengthAdjust="spacing" textLength="422.665" x="476.0156" y="108.7817">this phase occurs when the scriptFile has been entirely compiled</text><rect fill="#F1F1F1" height="33.9688" rx="12.5" ry="12.5" style="stroke:#181818;stroke-width:0.5;" width="299.6504" x="150.3652" y="87.2969"/><text fill="#000000" font-family="sans-serif" font-size="12" lengthAdjust="spacing" textLength="279.6504" x="160.3652" y="108.4355">compile scriptFile (implement directive phase)</text><rect fill="#D3D3D3" height="659.1406" style="stroke:#000000;stroke-width:1.5;" width="547.667" x="45.9531" y="131.2656"/><path d="M276.043,131.2656 L276.043,140.5625 L266.043,150.5625 L45.9531,150.5625 " fill="none" style="stroke:#000000;stroke-width:1.5;"/><text fill="#000000" font-family="sans-serif" font-size="14" lengthAdjust="spacing" textLength="220.0898" x="48.9531" y="145.2607">Compiler::Implement::interface</text><rect fill="#00FF7F" height="33.9688" rx="12.5" ry="12.5" style="stroke:#181818;stroke-width:0.5;" width="270.6699" x="164.8555" y="167.5625"/><text fill="#000000" font-family="sans-serif" font-size="12" lengthAdjust="spacing" textLength="246.8555" x="178.6699" y="188.7012">Compiler::Implement::interface scriptFile</text><rect fill="#87CEFA" height="356.2651" style="stroke:#000000;stroke-width:1.5;" width="476.8643" x="106.7559" y="211.5313"/><path d="M344.1396,211.5313 L344.1396,220.8281 L334.1396,230.8281 L106.7559,230.8281 " fill="none" style="stroke:#000000;stroke-width:1.5;"/><text fill="#000000" font-family="sans-serif" font-size="14" lengthAdjust="spacing" textLength="227.3838" x="109.7559" y="225.5264">Compiler::Implement::interfaces</text><rect fill="#00FF7F" height="33.9688" rx="12.5" ry="12.5" style="stroke:#181818;stroke-width:0.5;" width="241.25" x="179.5654" y="247.8281"/><text fill="#000000" font-family="sans-serif" font-size="12" lengthAdjust="spacing" textLength="221.25" x="189.5654" y="268.9668">Compiler::Implement::filter scriptFile</text><rect fill="#00FF7F" height="61.9063" rx="12.5" ry="12.5" style="stroke:#181818;stroke-width:0.5;" width="318.8691" x="140.7559" y="357.5073"/><text fill="#000000" font-family="sans-serif" font-size="12" lengthAdjust="spacing" textLength="298.8691" x="150.7559" y="378.646">Compiler::Implement::parse $implementDirective</text><text fill="#000000" font-family="sans-serif" font-size="12" lengthAdjust="spacing" textLength="7.6289" x="150.7559" y="392.6147">&#160;&#160;</text><text fill="#000000" font-family="sans-serif" font-size="12" lengthAdjust="spacing" text-decoration="wavy underline" textLength="257.0391" x="158.3848" y="392.6147">uses Compiler::Implement::assertInterface</text><text fill="#000000" font-family="sans-serif" font-size="12" lengthAdjust="spacing" textLength="3.8145" x="150.7559" y="406.5835">&#160;</text><polygon fill="#AAAAAA" points="200.9756,444.1172,399.4053,444.1172,411.4053,456.1172,399.4053,468.1172,200.9756,468.1172,188.9756,456.1172,200.9756,444.1172" style="stroke:#181818;stroke-width:0.5;"/><text fill="#008000" font-family="sans-serif" font-size="11" lengthAdjust="spacing" textLength="77.8647" x="304.1904" y="478.3276">valid directive</text><text fill="#000000" font-family="sans-serif" font-size="11" lengthAdjust="spacing" textLength="198.4297" x="200.9756" y="459.9253">implement directive can be parsed?</text><text fill="#FF0000" font-family="sans-serif" font-size="11" lengthAdjust="spacing" textLength="99.2148" x="411.4053" y="440.7183">invalid implement</text><text fill="#FF0000" font-family="sans-serif" font-size="11" lengthAdjust="spacing" textLength="48.0229" x="411.4053" y="453.5229">directive</text><ellipse cx="530.6201" cy="456.1172" fill="none" rx="10" ry="10" style="stroke:#FF0000;stroke-width:1.5;"/><line style="stroke:#FF0000;stroke-width:2.5;" x1="524.4329" x2="536.8073" y1="449.93" y2="462.3044"/><line style="stroke:#FF0000;stroke-width:2.5;" x1="536.8073" x2="524.4329" y1="449.93" y2="462.3044"/><rect fill="#00FF7F" height="33.9688" rx="12.5" ry="12.5" style="stroke:#181818;stroke-width:0.5;" width="252.5059" x="173.9375" y="499.8276"/><text fill="#000000" font-family="sans-serif" font-size="12" lengthAdjust="spacing" textLength="232.5059" x="183.9375" y="520.9663">add interfaceFunction to interfaces list</text><polygon fill="#AAAAAA" points="242.8433,301.7969,357.5376,301.7969,369.5376,313.7969,357.5376,325.7969,242.8433,325.7969,230.8433,313.7969,242.8433,301.7969" style="stroke:#181818;stroke-width:0.5;"/><text fill="#008000" font-family="sans-serif" font-size="11" lengthAdjust="spacing" textLength="145.8896" x="304.1904" y="336.0073">implement directive found</text><text fill="#000000" font-family="sans-serif" font-size="11" lengthAdjust="spacing" textLength="114.6943" x="242.8433" y="317.605">implementDirective?</text><text fill="#000000" font-family="sans-serif" font-size="11" lengthAdjust="spacing" textLength="220.8433" x="10" y="311.2026">no more implement directive to process</text><rect fill="#00FF7F" height="33.9688" rx="12.5" ry="12.5" style="stroke:#181818;stroke-width:0.5;" width="396.623" x="101.8789" y="587.7964"/><text fill="#000000" font-family="sans-serif" font-size="12" lengthAdjust="spacing" textLength="376.623" x="111.8789" y="608.9351">Compiler::Implement::mergeInterfacesFunctions interfacesList</text><rect fill="#00FF7F" height="33.9688" rx="12.5" ry="12.5" style="stroke:#181818;stroke-width:0.5;" width="488.4746" x="55.9531" y="641.7651"/><text fill="#000000" font-family="sans-serif" font-size="12" lengthAdjust="spacing" textLength="468.4746" x="65.9531" y="662.9038">Compiler::Implement::validateInterfaceFunctions scriptFile interfaceFunctions</text><polygon fill="#AAAAAA" points="182.6091,700.4375,417.7717,700.4375,429.7717,712.4375,417.7717,724.4375,182.6091,724.4375,170.6091,712.4375,182.6091,700.4375" style="stroke:#181818;stroke-width:0.5;"/><text fill="#000000" font-family="sans-serif" font-size="11" lengthAdjust="spacing" textLength="235.1626" x="182.6091" y="716.2456">one function cannot be found in scriptFile?</text><text fill="#FF0000" font-family="sans-serif" font-size="11" lengthAdjust="spacing" textLength="90.6748" x="429.7717" y="697.0386">missing function</text><text fill="#FF0000" font-family="sans-serif" font-size="11" lengthAdjust="spacing" textLength="86.6035" x="429.7717" y="709.8433">#functionName</text><ellipse cx="540.4465" cy="712.4375" fill="none" rx="10" ry="10" style="stroke:#FF0000;stroke-width:1.5;"/><line style="stroke:#FF0000;stroke-width:2.5;" x1="534.2593" x2="546.6337" y1="706.2503" y2="718.6247"/><line style="stroke:#FF0000;stroke-width:2.5;" x1="546.6337" x2="534.2593" y1="706.2503" y2="718.6247"/><rect fill="#00FF7F" height="33.9688" rx="12.5" ry="12.5" style="stroke:#181818;stroke-width:0.5;" width="323.5449" x="138.418" y="744.4375"/><text fill="#000000" font-family="sans-serif" font-size="12" lengthAdjust="spacing" textLength="303.5449" x="148.418" y="765.5762">All functions of interfaces have been implemented</text><rect fill="#F1F1F1" height="33.9688" rx="12.5" ry="12.5" style="stroke:#181818;stroke-width:0.5;" width="99.7109" x="250.335" y="810.4063"/><text fill="#000000" font-family="sans-serif" font-size="12" lengthAdjust="spacing" textLength="79.7109" x="260.335" y="831.5449">Output result</text><ellipse cx="300.1904" cy="875.375" fill="none" rx="11" ry="11" style="stroke:#222222;stroke-width:1.0;"/><ellipse cx="300.1904" cy="875.375" fill="#222222" rx="6" ry="6" style="stroke:#222222;stroke-width:1.0;"/><line style="stroke:#181818;stroke-width:1.0;" x1="300.1904" x2="300.1904" y1="67.2969" y2="87.2969"/><polygon fill="#181818" points="296.1904,77.2969,300.1904,87.2969,304.1904,77.2969,300.1904,81.2969" style="stroke:#181818;stroke-width:1.0;"/><line style="stroke:#181818;stroke-width:1.0;" x1="300.1904" x2="300.1904" y1="468.1172" y2="499.8276"/><polygon fill="#181818" points="296.1904,489.8276,300.1904,499.8276,304.1904,489.8276,300.1904,493.8276" style="stroke:#181818;stroke-width:1.0;"/><line style="stroke:#FF0000;stroke-width:1.0;" x1="411.4053" x2="520.6201" y1="456.1172" y2="456.1172"/><polygon fill="#FF0000" points="510.6201,452.1172,520.6201,456.1172,510.6201,460.1172,514.6201,456.1172" style="stroke:#FF0000;stroke-width:1.0;"/><line style="stroke:#181818;stroke-width:1.0;" x1="300.1904" x2="300.1904" y1="419.4136" y2="444.1172"/><polygon fill="#181818" points="296.1904,434.1172,300.1904,444.1172,304.1904,434.1172,300.1904,438.1172" style="stroke:#181818;stroke-width:1.0;"/><line style="stroke:#008000;stroke-width:1.0;" x1="300.1904" x2="300.1904" y1="325.7969" y2="357.5073"/><polygon fill="#008000" points="296.1904,347.5073,300.1904,357.5073,304.1904,347.5073,300.1904,351.5073" style="stroke:#008000;stroke-width:1.0;"/><line style="stroke:#008000;stroke-width:1.0;" x1="300.1904" x2="300.1904" y1="533.7964" y2="543.7964"/><line style="stroke:#008000;stroke-width:1.0;" x1="300.1904" x2="564.6201" y1="543.7964" y2="543.7964"/><polygon fill="#008000" points="560.6201,458.1484,564.6201,448.1484,568.6201,458.1484,564.6201,454.1484" style="stroke:#008000;stroke-width:1.0;"/><line style="stroke:#008000;stroke-width:1.0;" x1="564.6201" x2="564.6201" y1="313.7969" y2="543.7964"/><line style="stroke:#008000;stroke-width:1.0;" x1="564.6201" x2="369.5376" y1="313.7969" y2="313.7969"/><polygon fill="#008000" points="379.5376,309.7969,369.5376,313.7969,379.5376,317.7969,375.5376,313.7969" style="stroke:#008000;stroke-width:1.0;"/><line style="stroke:#181818;stroke-width:1.0;" x1="230.8433" x2="128.7559" y1="313.7969" y2="313.7969"/><polygon fill="#181818" points="124.7559,444.1484,128.7559,454.1484,132.7559,444.1484,128.7559,448.1484" style="stroke:#181818;stroke-width:1.0;"/><line style="stroke:#181818;stroke-width:1.0;" x1="128.7559" x2="128.7559" y1="313.7969" y2="555.7964"/><line style="stroke:#181818;stroke-width:1.0;" x1="128.7559" x2="300.1904" y1="555.7964" y2="555.7964"/><line style="stroke:#181818;stroke-width:1.0;" x1="300.1904" x2="300.1904" y1="555.7964" y2="587.7964"/><polygon fill="#181818" points="296.1904,577.7964,300.1904,587.7964,304.1904,577.7964,300.1904,581.7964" style="stroke:#181818;stroke-width:1.0;"/><line style="stroke:#181818;stroke-width:1.0;" x1="300.1904" x2="300.1904" y1="281.7969" y2="301.7969"/><polygon fill="#181818" points="296.1904,291.7969,300.1904,301.7969,304.1904,291.7969,300.1904,295.7969" style="stroke:#181818;stroke-width:1.0;"/><line style="stroke:#181818;stroke-width:1.0;" x1="300.1904" x2="300.1904" y1="201.5313" y2="247.8281"/><polygon fill="#181818" points="296.1904,237.8281,300.1904,247.8281,304.1904,237.8281,300.1904,241.8281" style="stroke:#181818;stroke-width:1.0;"/><line style="stroke:#181818;stroke-width:1.0;" x1="300.1904" x2="300.1904" y1="621.7651" y2="641.7651"/><polygon fill="#181818" points="296.1904,631.7651,300.1904,641.7651,304.1904,631.7651,300.1904,635.7651" style="stroke:#181818;stroke-width:1.0;"/><line style="stroke:#181818;stroke-width:1.0;" x1="300.1904" x2="300.1904" y1="724.4375" y2="744.4375"/><polygon fill="#181818" points="296.1904,734.4375,300.1904,744.4375,304.1904,734.4375,300.1904,738.4375" style="stroke:#181818;stroke-width:1.0;"/><line style="stroke:#FF0000;stroke-width:1.0;" x1="429.7717" x2="530.4465" y1="712.4375" y2="712.4375"/><polygon fill="#FF0000" points="520.4465,708.4375,530.4465,712.4375,520.4465,716.4375,524.4465,712.4375" style="stroke:#FF0000;stroke-width:1.0;"/><line style="stroke:#181818;stroke-width:1.0;" x1="300.1904" x2="300.1904" y1="675.7339" y2="700.4375"/><polygon fill="#181818" points="296.1904,690.4375,300.1904,700.4375,304.1904,690.4375,300.1904,694.4375" style="stroke:#181818;stroke-width:1.0;"/><line style="stroke:#181818;stroke-width:1.0;" x1="300.1904" x2="300.1904" y1="121.2656" y2="167.5625"/><polygon fill="#181818" points="296.1904,157.5625,300.1904,167.5625,304.1904,157.5625,300.1904,161.5625" style="stroke:#181818;stroke-width:1.0;"/><line style="stroke:#181818;stroke-width:1.0;" x1="300.1904" x2="300.1904" y1="778.4063" y2="810.4063"/><polygon fill="#181818" points="296.1904,800.4063,300.1904,810.4063,304.1904,800.4063,300.1904,804.4063" style="stroke:#181818;stroke-width:1.0;"/><line style="stroke:#181818;stroke-width:1.0;" x1="300.1904" x2="300.1904" y1="844.375" y2="864.375"/><polygon fill="#181818" points="296.1904,854.375,300.1904,864.375,304.1904,854.375,300.1904,858.375" style="stroke:#181818;stroke-width:1.0;"/><!--SRC=[ZLJBRjim4BphAnPmWSQ7H7Lh9x5SfCYZ2G8OxS6zjJtG96MneKY1N2KmYlZRkrIiLoAWzebOQcTdPyP4XLe2jtcXj7IWyaBBN1e4PL2wb74P-GTb2kPO3dyZWFUG8HO-YUEDmgnSdr1lN6XciCnrUrXhkuwdyyba9b9-9gQJsUdyT29dw-cSdK_uX_bwUZOLZ9tDppz-YhtZiP4OUriwBbFhDhA5yhZLChvrDb_LJ7xOLIYU_66FRBISJ6T4Z75KZmgtDuhbreWhnXyspfP6N5jj7Omkgr_dmw_DbPCYUeuyCeTHbEp50C-TAl0s78zQNOHoCW18A3BcvNWH6OiIdDfac01cohzSWEMyT1wUCccet8EZUrXBgXCWmUbjRO288jeF5Ifhu7flIfBSrzEJfB45HiimyiwnBVb2QurMXLDcS-S8EFbVSqjc4NeF7UhtKrSFsojToYeGhoOF0gHA4q9lQcXyolhYtjJQVXa3wNZqcGT_aaq0lXYo80t-ZYiiWEEVe-hBtySN-yeXr6XrCklTMmuD1i1kLthQVR2VUIyTtjSAxNPDtw8vgNGuGPmPoW5K5CJGpezCAz4sZ4EGJ8VOqCfIqpur32NxGfaNc8R1BzEvRS7xk7JNHILS8wBEMQN38ZCXshVZjZIyYXLQw8H8Au-jEg-N8F1zC8o5t3e9GzeHOk4ieVbnIF1pT8ZPkQINfV7Ar_HyXzooudOGMYKhmnQmnUlysT-8uSFg8HBMK89hXIWBz924E5IXfhOEI3yRmRPSUK_iclwUfwEw-etbtT3qRNqnDCGbUcj3xN2_sjFaKkjcl0URTXtE65bKFN6DTr8iw96Dakyb5YM2axxKGMcFjlW7]--></g></svg>
