<svg xmlns="http://www.w3.org/2000/svg" xmlns:xlink="http://www.w3.org/1999/xlink" contentStyleType="text/css" height="1471px" preserveAspectRatio="none" style="width:1922px;height:1471px;background:#FFFFFF;" version="1.1" viewBox="0 0 1922 1471" width="1922px" zoomAndPan="magnify"><title>compiler facade generation</title><defs/><g><text fill="#000000" font-family="sans-serif" font-size="14" font-weight="bold" lengthAdjust="spacing" textLength="217.4785" x="851.181" y="32.9951">compiler facade generation</text><ellipse cx="956.4203" cy="57.2969" fill="#222222" rx="10" ry="10" style="stroke:#222222;stroke-width:1.0;"/><path d="M1114.14,91.7148 L1114.14,100.2813 L1094.14,104.2813 L1114.14,108.2813 L1114.14,116.8477 A0,0 0 0 0 1114.14,116.8477 L1716.1918,116.8477 A0,0 0 0 0 1716.1918,116.8477 L1716.1918,101.7148 L1706.1918,91.7148 L1114.14,91.7148 A0,0 0 0 0 1114.14,91.7148 " fill="#FEFFDD" style="stroke:#181818;stroke-width:0.5;"/><path d="M1706.1918,91.7148 L1706.1918,101.7148 L1716.1918,101.7148 L1706.1918,91.7148 " fill="#FEFFDD" style="stroke:#181818;stroke-width:0.5;"/><text fill="#000000" font-family="sans-serif" font-size="13" lengthAdjust="spacing" textLength="581.0518" x="1120.14" y="108.7817">this phase occurs before compiler begin to compile the script during template evaluation</text><rect fill="#F1F1F1" height="33.9688" rx="12.5" ry="12.5" style="stroke:#181818;stroke-width:0.5;" width="275.4395" x="818.7006" y="87.2969"/><text fill="#000000" font-family="sans-serif" font-size="12" lengthAdjust="spacing" textLength="255.4395" x="828.7006" y="108.4355">compile scriptFile (facade directive phase)</text><rect fill="#D3D3D3" height="1147.8906" style="stroke:#000000;stroke-width:1.5;" width="1900.8406" x="11" y="131.2656"/><path d="M200.5732,131.2656 L200.5732,140.5625 L190.5732,150.5625 L11,150.5625 " fill="none" style="stroke:#000000;stroke-width:1.5;"/><text fill="#000000" font-family="sans-serif" font-size="14" lengthAdjust="spacing" textLength="179.5732" x="14" y="145.2607">Compiler::Facade::facade</text><rect fill="#00FF7F" height="33.9688" rx="12.5" ry="12.5" style="stroke:#181818;stroke-width:0.5;" width="249.7754" x="831.5326" y="167.5625"/><text fill="#000000" font-family="sans-serif" font-size="12" lengthAdjust="spacing" textLength="225.9609" x="845.347" y="188.7012">Compiler::Facade::generate scriptFile</text><rect fill="#00FF7F" height="33.9688" rx="12.5" ry="12.5" style="stroke:#181818;stroke-width:0.5;" width="219.5117" x="846.6644" y="221.5313"/><text fill="#000000" font-family="sans-serif" font-size="12" lengthAdjust="spacing" textLength="199.5117" x="856.6644" y="242.6699">Compiler::Facade::filter scriptFile</text><polygon fill="#AAAAAA" points="889.0345,275.5,1023.806,275.5,1035.806,287.5,1023.806,299.5,889.0345,299.5,877.0345,287.5,889.0345,275.5" style="stroke:#181818;stroke-width:0.5;"/><text fill="#000000" font-family="sans-serif" font-size="11" lengthAdjust="spacing" textLength="134.7715" x="889.0345" y="291.3081">facade directives count?</text><rect fill="#00FF7F" height="61.9063" rx="12.5" ry="12.5" style="stroke:#181818;stroke-width:0.5;" width="309.207" x="539.4862" y="347.9141"/><text fill="#000000" font-family="sans-serif" font-size="12" lengthAdjust="spacing" textLength="252.9199" x="549.4862" y="369.0527">Compiler::Facade::parse $facadeDirective</text><text fill="#000000" font-family="sans-serif" font-size="12" lengthAdjust="spacing" textLength="7.6289" x="549.4862" y="383.0215">&#160;&#160;</text><text fill="#000000" font-family="sans-serif" font-size="12" lengthAdjust="spacing" text-decoration="wavy underline" textLength="281.5781" x="557.1151" y="383.0215">uses Compiler::Facade::assertFacadeTemplate</text><text fill="#000000" font-family="sans-serif" font-size="12" lengthAdjust="spacing" textLength="3.8145" x="549.4862" y="396.9902">&#160;</text><polygon fill="#AAAAAA" points="638.045,444.8203,750.1344,444.8203,762.1344,456.8203,750.1344,468.8203,638.045,468.8203,626.045,456.8203,638.045,444.8203" style="stroke:#181818;stroke-width:0.5;"/><text fill="#000000" font-family="sans-serif" font-size="11" lengthAdjust="spacing" textLength="112.0894" x="638.045" y="460.6284">facade parse result?</text><rect fill="#87CEFA" height="708.7578" style="stroke:#000000;stroke-width:1.5;" width="1033.1033" x="21" y="504.4297"/><path d="M342.1719,504.4297 L342.1719,513.7266 L332.1719,523.7266 L21,523.7266 " fill="none" style="stroke:#000000;stroke-width:1.5;"/><text fill="#000000" font-family="sans-serif" font-size="14" lengthAdjust="spacing" textLength="311.1719" x="24" y="518.4248">Compiler::Facade::generateFacadeScriptFile</text><rect fill="#FF00FF" height="280.3984" style="stroke:#000000;stroke-width:1.5;" width="764.0017" x="31" y="534.4297"/><path d="M375.1406,534.4297 L375.1406,543.7266 L365.1406,553.7266 L31,553.7266 " fill="none" style="stroke:#000000;stroke-width:1.5;"/><text fill="#000000" font-family="sans-serif" font-size="14" lengthAdjust="spacing" textLength="334.1406" x="34" y="548.4248">Compiler::Facade::generateFacadeChoiceScript</text><path d="M543.3572,570.5781 L543.3572,586.7109 L523.3572,590.7109 L543.3572,594.7109 L543.3572,610.8438 A0,0 0 0 0 543.3572,610.8438 L785.0017,610.8438 A0,0 0 0 0 785.0017,610.8438 L785.0017,580.5781 L775.0017,570.5781 L543.3572,570.5781 A0,0 0 0 0 543.3572,570.5781 " fill="#FEFFDD" style="stroke:#181818;stroke-width:0.5;"/><path d="M775.0017,570.5781 L775.0017,580.5781 L785.0017,580.5781 L775.0017,570.5781 " fill="#FEFFDD" style="stroke:#181818;stroke-width:0.5;"/><text fill="#000000" font-family="sans-serif" font-size="13" lengthAdjust="spacing" textLength="185.6499" x="549.3572" y="587.645">list all IMPLEMENT directives</text><text fill="#000000" font-family="sans-serif" font-size="13" lengthAdjust="spacing" textLength="220.6445" x="549.3572" y="602.7778">and merge all the function names</text><rect fill="#FF00FF" height="33.9688" rx="12.5" ry="12.5" style="stroke:#181818;stroke-width:0.5;" width="312.0605" x="211.2966" y="573.7266"/><text fill="#000000" font-family="sans-serif" font-size="12" lengthAdjust="spacing" textLength="292.0605" x="221.2966" y="594.8652">Compiler::Implement::mergeInterfacesFunctions</text><polygon fill="#AAAAAA" points="334.7351,630.8438,399.9187,630.8438,411.9187,642.8438,399.9187,654.8438,334.7351,654.8438,322.7351,642.8438,334.7351,630.8438" style="stroke:#181818;stroke-width:0.5;"/><text fill="#000000" font-family="sans-serif" font-size="11" lengthAdjust="spacing" textLength="65.1836" x="334.7351" y="646.6519">implement?</text><ellipse cx="51" cy="708.2969" fill="none" rx="10" ry="10" style="stroke:#FF0000;stroke-width:1.5;"/><line style="stroke:#FF0000;stroke-width:2.5;" x1="44.8128" x2="57.1872" y1="702.1097" y2="714.4841"/><line style="stroke:#FF0000;stroke-width:2.5;" x1="57.1872" x2="44.8128" y1="702.1097" y2="714.4841"/><path d="M149.9292,698.2969 L149.9292,768.8281 A0,0 0 0 0 149.9292,768.8281 L405.418,768.8281 A0,0 0 0 0 405.418,768.8281 L405.418,737.5625 L425.418,733.5625 L405.418,729.5625 L405.418,708.2969 L395.418,698.2969 L149.9292,698.2969 A0,0 0 0 0 149.9292,698.2969 " fill="#FEFFDD" style="stroke:#181818;stroke-width:0.5;"/><path d="M395.418,698.2969 L395.418,708.2969 L405.418,708.2969 L395.418,698.2969 " fill="#FEFFDD" style="stroke:#181818;stroke-width:0.5;"/><text fill="#000000" font-family="sans-serif" font-size="13" lengthAdjust="spacing" textLength="164.0107" x="155.9292" y="715.3638">generate the switch case</text><text fill="#000000" font-family="sans-serif" font-size="13" lengthAdjust="spacing" textLength="172.2437" x="155.9292" y="730.4966">to call the public functions</text><text fill="#000000" font-family="sans-serif" font-size="13" lengthAdjust="spacing" textLength="141.5337" x="155.9292" y="745.6294">of the script file using</text><text fill="#000000" font-family="sans-serif" font-size="13" lengthAdjust="spacing" textLength="234.4888" x="155.9292" y="760.7622">interfaceFunctions computed above</text><rect fill="#FF00FF" height="47.9375" rx="12.5" ry="12.5" style="stroke:#181818;stroke-width:0.5;" width="185.1406" x="425.418" y="709.5938"/><text fill="#000000" font-family="sans-serif" font-size="12" lengthAdjust="spacing" textLength="165.1406" x="435.418" y="730.7324">generate switch case script</text><text fill="#000000" font-family="sans-serif" font-size="12" lengthAdjust="spacing" textLength="144.6094" x="435.418" y="744.7012">from interface functions</text><polygon fill="#AAAAAA" points="367.3269,778.8281,367.3269,778.8281,379.3269,790.8281,367.3269,802.8281,367.3269,802.8281,355.3269,790.8281,367.3269,778.8281" style="stroke:#181818;stroke-width:0.5;"/><path d="M529.6873,824.8281 L529.6873,856.0938 L509.6873,860.0938 L529.6873,864.0938 L529.6873,895.3594 A0,0 0 0 0 529.6873,895.3594 L1044.1033,895.3594 A0,0 0 0 0 1044.1033,895.3594 L1044.1033,834.8281 L1034.1033,824.8281 L529.6873,824.8281 A0,0 0 0 0 529.6873,824.8281 " fill="#FEFFDD" style="stroke:#181818;stroke-width:0.5;"/><path d="M1034.1033,824.8281 L1034.1033,834.8281 L1044.1033,834.8281 L1034.1033,824.8281 " fill="#FEFFDD" style="stroke:#181818;stroke-width:0.5;"/><text fill="#000000" font-family="sans-serif" font-size="13" lengthAdjust="spacing" textLength="342.6719" x="535.6873" y="841.895">copy back IMPLEMENT directives inside template file</text><text fill="#000000" font-family="sans-serif" font-size="13" lengthAdjust="spacing" textLength="455.1143" x="535.6873" y="857.0278">This way, the compiler will automatically check for function presence.</text><text fill="#000000" font-family="sans-serif" font-size="13" lengthAdjust="spacing" textLength="493.416" x="535.6873" y="872.1606">Note that compiler only checks using regexp, does not check if the function</text><text fill="#000000" font-family="sans-serif" font-size="13" lengthAdjust="spacing" textLength="126.2866" x="535.6873" y="887.2935">is really accessible.</text><rect fill="#00BFFF" height="33.9688" rx="12.5" ry="12.5" style="stroke:#181818;stroke-width:0.5;" width="284.7207" x="224.9666" y="843.1094"/><text fill="#000000" font-family="sans-serif" font-size="12" lengthAdjust="spacing" textLength="260.9063" x="238.781" y="864.248">Compiler::Facade::generateFacadeHeaders</text><path d="M528.5769,905.3594 L528.5769,929.0586 L508.5769,933.0586 L528.5769,937.0586 L528.5769,960.7578 A0,0 0 0 0 528.5769,960.7578 L1026.8191,960.7578 A0,0 0 0 0 1026.8191,960.7578 L1026.8191,915.3594 L1016.8191,905.3594 L528.5769,905.3594 A0,0 0 0 0 528.5769,905.3594 " fill="#FEFFDD" style="stroke:#181818;stroke-width:0.5;"/><path d="M1016.8191,905.3594 L1016.8191,915.3594 L1026.8191,915.3594 L1016.8191,905.3594 " fill="#FEFFDD" style="stroke:#181818;stroke-width:0.5;"/><text fill="#000000" font-family="sans-serif" font-size="13" lengthAdjust="spacing" textLength="367.4785" x="534.5769" y="922.4263">move the script inside main function of the template file</text><text fill="#000000" font-family="sans-serif" font-size="13" lengthAdjust="spacing" textLength="477.2422" x="534.5769" y="937.5591">The script needs to be compiled before being able to know if all interface</text><text fill="#000000" font-family="sans-serif" font-size="13" lengthAdjust="spacing" textLength="223.0439" x="534.5769" y="952.6919">functions have been implemented</text><rect fill="#00BFFF" height="33.9688" rx="12.5" ry="12.5" style="stroke:#181818;stroke-width:0.5;" width="282.5" x="226.0769" y="916.0742"/><text fill="#000000" font-family="sans-serif" font-size="12" lengthAdjust="spacing" textLength="258.6855" x="239.8914" y="937.2129">Compiler::Facade::generateFacadeContent</text><rect fill="#00BFFF" height="33.9688" rx="12.5" ry="12.5" style="stroke:#181818;stroke-width:0.5;" width="307.3145" x="213.6697" y="980.7578"/><text fill="#000000" font-family="sans-serif" font-size="12" lengthAdjust="spacing" textLength="283.5" x="227.4841" y="1001.8965">Compiler::Facade::generateMainFunctionName</text><path d="M456.9314,1024.7266 L456.9314,1108.957 L436.9314,1112.957 L456.9314,1116.957 L456.9314,1201.1875 A0,0 0 0 0 456.9314,1201.1875 L836.9358,1201.1875 A0,0 0 0 0 836.9358,1201.1875 L836.9358,1034.7266 L826.9358,1024.7266 L456.9314,1024.7266 A0,0 0 0 0 456.9314,1024.7266 " fill="#FEFFDD" style="stroke:#181818;stroke-width:0.5;"/><path d="M826.9358,1024.7266 L826.9358,1034.7266 L836.9358,1034.7266 L826.9358,1024.7266 " fill="#FEFFDD" style="stroke:#181818;stroke-width:0.5;"/><text fill="#008000" font-family="sans-serif" font-size="13" lengthAdjust="spacing" textLength="359.0044" x="462.9314" y="1041.7935">The following variables will be used when the template</text><text fill="#008000" font-family="sans-serif" font-size="13" lengthAdjust="spacing" textLength="196.6821" x="462.9314" y="1056.9263">will evaluated by the compiler</text><text fill="#000000" font-family="sans-serif" font-size="13" lengthAdjust="spacing" textLength="201.1953" x="462.9314" y="1072.0591">export FACADE_HEADERS_FILE</text><text fill="#000000" font-family="sans-serif" font-size="13" lengthAdjust="spacing" textLength="201.6587" x="462.9314" y="1087.1919">export FACADE_CONTENT_FILE</text><text fill="#000000" font-family="sans-serif" font-size="13" lengthAdjust="spacing" textLength="241.4902" x="462.9314" y="1102.3247">export FACADE_CHOICE_SCRIPT_FILE</text><text fill="#000000" font-family="sans-serif" font-size="13" lengthAdjust="spacing" textLength="198.7134" x="462.9314" y="1117.4575">export MAIN_FUNCTION_NAME</text><text fill="#FF0000" font-family="sans-serif" font-size="13" lengthAdjust="spacing" textLength="263.8975" x="462.9314" y="1132.5903">The following variable actually overrides</text><text fill="#FF0000" font-family="sans-serif" font-size="13" lengthAdjust="spacing" textLength="204.6865" x="462.9314" y="1147.7231">the file variable of the compiler</text><text fill="#FF0000" font-family="sans-serif" font-size="13" lengthAdjust="spacing" textLength="263.3071" x="462.9314" y="1162.856">it represents the facade template to use</text><text fill="#FF0000" font-family="sans-serif" font-size="13" lengthAdjust="spacing" textLength="247.2222" x="462.9314" y="1177.9888">(not really nice, part to be refactored)</text><text fill="#000000" font-family="sans-serif" font-size="13" lengthAdjust="spacing" textLength="66.2695" x="462.9314" y="1193.1216">export file</text><rect fill="#00BFFF" height="33.9688" rx="12.5" ry="12.5" style="stroke:#181818;stroke-width:0.5;" width="139.209" x="297.7224" y="1095.9727"/><text fill="#000000" font-family="sans-serif" font-size="12" lengthAdjust="spacing" textLength="115.3945" x="311.5369" y="1117.1113">export all variables</text><rect fill="#FFC0CB" height="33.9688" rx="12.5" ry="12.5" style="stroke:#181818;stroke-width:0.5;" width="126.1895" x="304.2322" y="1233.1875"/><text fill="#000000" font-family="sans-serif" font-size="12" lengthAdjust="spacing" textLength="106.1895" x="314.2322" y="1254.3262">compilerContinue</text><ellipse cx="1084.1033" cy="514.4297" fill="none" rx="10" ry="10" style="stroke:#FF0000;stroke-width:1.5;"/><line style="stroke:#FF0000;stroke-width:2.5;" x1="1077.9161" x2="1090.2905" y1="508.2425" y2="520.6169"/><line style="stroke:#FF0000;stroke-width:2.5;" x1="1090.2905" x2="1077.9161" y1="508.2425" y2="520.6169"/><ellipse cx="1178.8196" cy="514.4297" fill="none" rx="10" ry="10" style="stroke:#FF0000;stroke-width:1.5;"/><line style="stroke:#FF0000;stroke-width:2.5;" x1="1172.6324" x2="1185.0068" y1="508.2425" y2="520.6169"/><line style="stroke:#FF0000;stroke-width:2.5;" x1="1185.0068" x2="1172.6324" y1="508.2425" y2="520.6169"/><rect fill="#FFC0CB" height="33.9688" rx="12.5" ry="12.5" style="stroke:#181818;stroke-width:0.5;" width="126.1895" x="1397.1794" y="347.9141"/><text fill="#000000" font-family="sans-serif" font-size="12" lengthAdjust="spacing" textLength="106.1895" x="1407.1794" y="369.0527">compilerContinue</text><rect fill="#F1F1F1" height="33.9688" rx="12.5" ry="12.5" style="stroke:#181818;stroke-width:0.5;" width="280.6719" x="1621.1687" y="360.7188"/><text fill="#000000" font-family="sans-serif" font-size="12" lengthAdjust="spacing" textLength="260.6719" x="1631.1687" y="381.8574">You can provide only one FACADE directive</text><ellipse cx="1761.5046" cy="439.6875" fill="none" rx="10" ry="10" style="stroke:#FF0000;stroke-width:1.5;"/><line style="stroke:#FF0000;stroke-width:2.5;" x1="1755.3175" x2="1767.6918" y1="433.5003" y2="445.8747"/><line style="stroke:#FF0000;stroke-width:2.5;" x1="1767.6918" x2="1755.3175" y1="433.5003" y2="445.8747"/><rect fill="#FFC0CB" height="129.2344" style="stroke:#000000;stroke-width:1.5;" width="264.291" x="824.2748" y="1289.1563"/><path d="M958.1625,1289.1563 L958.1625,1298.4531 L948.1625,1308.4531 L824.2748,1308.4531 " fill="none" style="stroke:#000000;stroke-width:1.5;"/><text fill="#000000" font-family="sans-serif" font-size="14" lengthAdjust="spacing" textLength="123.8877" x="827.2748" y="1303.1514">compilerContinue</text><rect fill="#F1F1F1" height="33.9688" rx="12.5" ry="12.5" style="stroke:#181818;stroke-width:0.5;" width="244.291" x="834.2748" y="1318.4531"/><text fill="#000000" font-family="sans-serif" font-size="12" lengthAdjust="spacing" textLength="224.291" x="844.2748" y="1339.5918">Continue normal compilation process</text><rect fill="#F1F1F1" height="33.9688" rx="12.5" ry="12.5" style="stroke:#181818;stroke-width:0.5;" width="99.7109" x="906.5648" y="1372.4219"/><text fill="#000000" font-family="sans-serif" font-size="12" lengthAdjust="spacing" textLength="79.7109" x="916.5648" y="1393.5605">Output result</text><ellipse cx="956.4203" cy="1449.3906" fill="none" rx="11" ry="11" style="stroke:#222222;stroke-width:1.0;"/><ellipse cx="956.4203" cy="1449.3906" fill="#222222" rx="6" ry="6" style="stroke:#222222;stroke-width:1.0;"/><line style="stroke:#181818;stroke-width:1.0;" x1="956.4203" x2="956.4203" y1="67.2969" y2="87.2969"/><polygon fill="#181818" points="952.4203,77.2969,956.4203,87.2969,960.4203,77.2969,956.4203,81.2969" style="stroke:#181818;stroke-width:1.0;"/><line style="stroke:#181818;stroke-width:1.0;" x1="956.4203" x2="956.4203" y1="201.5313" y2="221.5313"/><polygon fill="#181818" points="952.4203,211.5313,956.4203,221.5313,960.4203,211.5313,956.4203,215.5313" style="stroke:#181818;stroke-width:1.0;"/><line style="stroke:#181818;stroke-width:1.0;" x1="322.7351" x2="51" y1="642.8438" y2="642.8438"/><line style="stroke:#181818;stroke-width:1.0;" x1="51" x2="51" y1="642.8438" y2="698.2969"/><polygon fill="#181818" points="47,688.2969,51,698.2969,55,688.2969,51,692.2969" style="stroke:#181818;stroke-width:1.0;"/><text fill="#FF0000" font-family="sans-serif" font-size="11" lengthAdjust="spacing" textLength="88.9292" x="51" y="676.1484">invalid interface</text><line style="stroke:#181818;stroke-width:1.0;" x1="411.9187" x2="630.5586" y1="642.8438" y2="642.8438"/><line style="stroke:#181818;stroke-width:1.0;" x1="630.5586" x2="630.5586" y1="642.8438" y2="790.8281"/><line style="stroke:#181818;stroke-width:1.0;" x1="630.5586" x2="379.3269" y1="790.8281" y2="790.8281"/><polygon fill="#181818" points="389.3269,786.8281,379.3269,790.8281,389.3269,794.8281,385.3269,790.8281" style="stroke:#181818;stroke-width:1.0;"/><text fill="#008000" font-family="sans-serif" font-size="11" lengthAdjust="spacing" textLength="66.2578" x="634.5586" y="640.2495">no interface</text><text fill="#008000" font-family="sans-serif" font-size="11" lengthAdjust="spacing" textLength="73.0952" x="634.5586" y="653.0542">implemented</text><line style="stroke:#181818;stroke-width:1.0;" x1="517.9883" x2="517.9883" y1="642.8438" y2="709.5938"/><polygon fill="#181818" points="513.9883,699.5938,517.9883,709.5938,521.9883,699.5938,517.9883,703.5938" style="stroke:#181818;stroke-width:1.0;"/><text fill="#008000" font-family="sans-serif" font-size="11" lengthAdjust="spacing" textLength="78.9014" x="517.9883" y="676.7969">valid interface</text><line style="stroke:#181818;stroke-width:1.0;" x1="517.9883" x2="517.9883" y1="757.5313" y2="790.8281"/><line style="stroke:#181818;stroke-width:1.0;" x1="517.9883" x2="379.3269" y1="790.8281" y2="790.8281"/><polygon fill="#181818" points="389.3269,786.8281,379.3269,790.8281,389.3269,794.8281,385.3269,790.8281" style="stroke:#181818;stroke-width:1.0;"/><line style="stroke:#181818;stroke-width:1.0;" x1="367.3269" x2="367.3269" y1="607.6953" y2="630.8438"/><polygon fill="#181818" points="363.3269,620.8438,367.3269,630.8438,371.3269,620.8438,367.3269,624.8438" style="stroke:#181818;stroke-width:1.0;"/><line style="stroke:#181818;stroke-width:1.0;" x1="367.3269" x2="367.3269" y1="802.8281" y2="843.1094"/><polygon fill="#181818" points="363.3269,833.1094,367.3269,843.1094,371.3269,833.1094,367.3269,837.1094" style="stroke:#181818;stroke-width:1.0;"/><line style="stroke:#181818;stroke-width:1.0;" x1="367.3269" x2="367.3269" y1="877.0781" y2="916.0742"/><polygon fill="#181818" points="363.3269,906.0742,367.3269,916.0742,371.3269,906.0742,367.3269,910.0742" style="stroke:#181818;stroke-width:1.0;"/><line style="stroke:#181818;stroke-width:1.0;" x1="367.3269" x2="367.3269" y1="950.043" y2="980.7578"/><polygon fill="#181818" points="363.3269,970.7578,367.3269,980.7578,371.3269,970.7578,367.3269,974.7578" style="stroke:#181818;stroke-width:1.0;"/><line style="stroke:#181818;stroke-width:1.0;" x1="367.3269" x2="367.3269" y1="1014.7266" y2="1095.9727"/><polygon fill="#181818" points="363.3269,1085.9727,367.3269,1095.9727,371.3269,1085.9727,367.3269,1089.9727" style="stroke:#181818;stroke-width:1.0;"/><line style="stroke:#181818;stroke-width:1.0;" x1="367.3269" x2="367.3269" y1="1129.9414" y2="1233.1875"/><polygon fill="#181818" points="363.3269,1223.1875,367.3269,1233.1875,371.3269,1223.1875,367.3269,1227.1875" style="stroke:#181818;stroke-width:1.0;"/><line style="stroke:#181818;stroke-width:1.0;" x1="626.045" x2="367.3269" y1="456.8203" y2="456.8203"/><line style="stroke:#181818;stroke-width:1.0;" x1="367.3269" x2="367.3269" y1="456.8203" y2="573.7266"/><polygon fill="#181818" points="363.3269,563.7266,367.3269,573.7266,371.3269,563.7266,367.3269,567.7266" style="stroke:#181818;stroke-width:1.0;"/><text fill="#008000" font-family="sans-serif" font-size="11" lengthAdjust="spacing" textLength="155.2085" x="367.3269" y="522.3042">valid directive and template</text><line style="stroke:#181818;stroke-width:1.0;" x1="762.1344" x2="1178.8196" y1="456.8203" y2="456.8203"/><line style="stroke:#181818;stroke-width:1.0;" x1="1178.8196" x2="1178.8196" y1="456.8203" y2="504.4297"/><polygon fill="#181818" points="1174.8196,494.4297,1178.8196,504.4297,1182.8196,494.4297,1178.8196,498.4297" style="stroke:#181818;stroke-width:1.0;"/><text fill="#FF0000" font-family="sans-serif" font-size="11" lengthAdjust="spacing" textLength="198.3599" x="1178.8196" y="484.4331">facade directive template not found</text><line style="stroke:#181818;stroke-width:1.0;" x1="1084.1033" x2="1084.1033" y1="456.8203" y2="504.4297"/><polygon fill="#181818" points="1080.1033,494.4297,1084.1033,504.4297,1088.1033,494.4297,1084.1033,498.4297" style="stroke:#181818;stroke-width:1.0;"/><text fill="#FF0000" font-family="sans-serif" font-size="11" lengthAdjust="spacing" textLength="64.7163" x="1084.1033" y="479.4331">parse failed</text><line style="stroke:#181818;stroke-width:1.0;" x1="694.0897" x2="694.0897" y1="409.8203" y2="444.8203"/><polygon fill="#181818" points="690.0897,434.8203,694.0897,444.8203,698.0897,434.8203,694.0897,438.8203" style="stroke:#181818;stroke-width:1.0;"/><line style="stroke:#181818;stroke-width:1.0;" x1="1761.5046" x2="1761.5046" y1="394.6875" y2="429.6875"/><polygon fill="#181818" points="1757.5046,419.6875,1761.5046,429.6875,1765.5046,419.6875,1761.5046,423.6875" style="stroke:#181818;stroke-width:1.0;"/><line style="stroke:#181818;stroke-width:1.0;" x1="877.0345" x2="694.0897" y1="287.5" y2="287.5"/><line style="stroke:#181818;stroke-width:1.0;" x1="694.0897" x2="694.0897" y1="287.5" y2="347.9141"/><polygon fill="#181818" points="690.0897,337.9141,694.0897,347.9141,698.0897,337.9141,694.0897,341.9141" style="stroke:#181818;stroke-width:1.0;"/><text fill="#008000" font-family="sans-serif" font-size="11" lengthAdjust="spacing" textLength="98.0708" x="694.0897" y="321.5151">One facade found</text><line style="stroke:#181818;stroke-width:1.0;" x1="1035.806" x2="1761.5046" y1="287.5" y2="287.5"/><line style="stroke:#181818;stroke-width:1.0;" x1="1761.5046" x2="1761.5046" y1="287.5" y2="360.7188"/><polygon fill="#181818" points="1757.5046,350.7188,1761.5046,360.7188,1765.5046,350.7188,1761.5046,354.7188" style="stroke:#181818;stroke-width:1.0;"/><text fill="#FF0000" font-family="sans-serif" font-size="11" lengthAdjust="spacing" textLength="81.1948" x="1761.5046" y="321.5151">more than one</text><text fill="#FF0000" font-family="sans-serif" font-size="11" lengthAdjust="spacing" textLength="88.6714" x="1761.5046" y="334.3198">facade directive</text><line style="stroke:#181818;stroke-width:1.0;" x1="1460.2742" x2="1460.2742" y1="287.5" y2="347.9141"/><polygon fill="#181818" points="1456.2742,337.9141,1460.2742,347.9141,1464.2742,337.9141,1460.2742,341.9141" style="stroke:#181818;stroke-width:1.0;"/><text fill="#008000" font-family="sans-serif" font-size="11" lengthAdjust="spacing" textLength="140.8945" x="1460.2742" y="316.5151">no facade directive found</text><line style="stroke:#181818;stroke-width:1.0;" x1="956.4203" x2="956.4203" y1="255.5" y2="275.5"/><polygon fill="#181818" points="952.4203,265.5,956.4203,275.5,960.4203,265.5,956.4203,269.5" style="stroke:#181818;stroke-width:1.0;"/><line style="stroke:#181818;stroke-width:1.0;" x1="956.4203" x2="956.4203" y1="121.2656" y2="167.5625"/><polygon fill="#181818" points="952.4203,157.5625,956.4203,167.5625,960.4203,157.5625,956.4203,161.5625" style="stroke:#181818;stroke-width:1.0;"/><line style="stroke:#181818;stroke-width:1.0;" x1="956.4203" x2="956.4203" y1="1352.4219" y2="1372.4219"/><polygon fill="#181818" points="952.4203,1362.4219,956.4203,1372.4219,960.4203,1362.4219,956.4203,1366.4219" style="stroke:#181818;stroke-width:1.0;"/><line style="stroke:#181818;stroke-width:1.0;" x1="956.4203" x2="956.4203" y1="1406.3906" y2="1438.3906"/><polygon fill="#181818" points="952.4203,1428.3906,956.4203,1438.3906,960.4203,1428.3906,956.4203,1432.3906" style="stroke:#181818;stroke-width:1.0;"/><!--SRC=[fLTjRzis4FxkNq7K0vO0QJnlJjF8GuhKiHi3iLFKteTX7G9AEjbS958WANl6aFps7ILAecovsKi_kBR4U-xkkNlk6Crq32GGISfYa2IY0Gs1h823f9e9tb5FZATKqeJyrI7aUxBMEbLUhxTYUftvvsZPIsFATPR4zHS_5dvlSDNlNuHHS1aE-XVlhjxruS8VND7t_U27AtzmEGWflRnw_-DFFIM37WVTKoAJ0KH2hg26KdeNGsyYHR8e8rcAXNbu_WVTqEvzVt21WT50imtJkrj64y73ZpHuMacHyN0aOY59zoR_vnmSLwyaX9tdJaTfAdMdurakY0eaI_N4V3snj8HCWZ47agwfWjDXXmiDHBBLMdj4hvagNX0H19bKn3V9EEpwi6ASQ54-GPFI3mapoVYAQ4WmTGI53OspeWGTp5epyvMCB9JdJVAGFC-6rhqtGNoIT8TrmZIxYzJWVP80t6ininLsqnmUsBLuOx76H5mZGjIMwM1zo9B2F3EkFvpYcS3GSl9pO2ZtLWRz-e53sM-HgPGvHiZRtxhvwz_VNkU_Nma8gK7WxmgSsz9pRad8oqkcC8f3AweKI5tyMbh6Nrvogs7-kPTIuKM2ok8YdTQ4i68iT9g4yh2gvwaDwLkbB6jI_5xK_LSKT_6q-nXdaElmtuADre855f9qPnJVQkeWaUgXm_4KGuS47tfU0YZAASVQ8oEW9XaFZ5yrT11gBJWF2OcPqeJ6CPdEFj-FP-FvqkcGnad3L-ueFswq4La_XDEaSHXuQDmvJygAiJBe3wVEsqQrKF3NZ1VLOcLEfurGi0lnLDc3ZjTZc6u77CTiTFO1yxKcYrno1uNKll889s2DN37Jg82jGGnHimI4LD3vnAdXzuwPqLHodsP-p8BQqTvH4RdJAp9jcYaKwjwnAkAgPVBXbsa82VN51lO9tYjh2ybSrAXVUUDLLNm8_mdtwAxWedhstAc-Tcy1KgivxrM1tG5-IASQhMe8HBeZFkwcLZ5WMehXjAbsW67LiLwQ1REbkxES-MghR1bMZ6PQ9BWkJFbs95W3-i3bKoienUa5F81p1t0kyewWkWOJl3HNHJrnwgtWp_ICX08ZnAmiE8iQ2dLGCKW9UHWqm5cXc1yxNiiI_qUUHmABo_KhF2VOM6vxMc8JYkktOiHsy76sAtCE42eZ3h-YFIoNkm-69EgRRIx84nTRGuqHKTMa3cYb9hAc6sCCd3XD-_zPcc6AfTJcE3I7no2mfa8MWtb39JC9lDQz3QaPUY8Hns9hygyWYcxqpJ10ZhPhpCyb-HXQRcMlF8RRNQF5NSaMOKzkHZUtuyUxCNv-MJnEflVZeuT63_Cb2ksLGtSFqz7uSJ7wClryxEZiPZf_dFmo7osd3_F7-SriV9YEsItjr9YRPvRB0fjJIkn7rMwUoyhCqyhITceB7Uv6qoYxGkLQ5TeiBYzLWsD_PWhQhK-CigriELuLplBBXUrv2GYbiTiRKzMoqf1DSu0_s_-xAUDFvSLQ6Wapda7PRI5eQaVmmPekBbuHDOehVU_lvd8h7nWVtDeh9aoopftpEAQx8TfNqO4J1_TRULTP6rWtwiHC5HpAEA1ulT_Qygakp4xetgyYGqWpxyN6pBnye2EIRVJQUjYf4wtJD7y9rTVAD_knlobooc-ENlaGwPG9ZMr_KhjkX9dznedta6bS-FRwF2p-rXBftm00]--></g></svg>
