<svg xmlns="http://www.w3.org/2000/svg" xmlns:xlink="http://www.w3.org/1999/xlink" version="1.1" data-diagram-type="ACTIVITY" style="width:625px;height:420px;background:#FFFFFF;" width="625px" height="420px" viewBox="0 0 625 420" zoomAndPan="magnify" preserveAspectRatio="none" contentStyleType="text/css"><?plantuml 1.2026.8?><defs/><g font-family="sans-serif" lengthAdjust="spacing"><g class="title" data-source-line="1"><text x="198.644" y="32.995" fill="#000" font-size="14" textLength="226.625" font-weight="700">require environment loading</text></g><ellipse cx="180.883" cy="62.297" rx="10" ry="10" fill="#222" style="stroke:#222;stroke-width:1;"/><rect x="16" y="82.297" width="589.912" height="276.195" fill="#87CEFA" style="stroke:#000;stroke-width:1.5;"/><path d="M145.656,82.297 L145.656,91.594 L135.656,101.594 L16,101.594" style="stroke:#000;stroke-width:1.5;" fill="none"/><text x="19" y="96.292" fill="#000" font-size="14" textLength="119.656">Env::requireLoad</text><rect x="26" y="111.594" width="569.912" height="180.93" fill="#87CEFA" style="stroke:#000;stroke-width:1.5;"/><path d="M228.616,111.594 L228.616,120.891 L218.616,130.891 L26,130.891" style="stroke:#000;stroke-width:1.5;" fill="none"/><text x="29" y="125.589" fill="#000" font-size="14" textLength="192.616">Env::getOrderedConfigFiles</text><path d="M345.766,140.891 L345.766,179.723 L325.766,183.723 L345.766,187.723 L345.766,226.555 A0,0 0 0 0 345.766,226.555 L585.912,226.555 A0,0 0 0 0 585.912,226.555 L585.912,150.891 L575.912,140.891 L345.766,140.891 A0,0 0 0 0 345.766,140.891" style="stroke:#181818;stroke-width:0.5;" fill="#FEFFDD"/><path d="M575.912,140.891 L575.912,150.891 L585.912,150.891 L575.912,140.891" style="stroke:#181818;stroke-width:0.5;" fill="#FEFFDD"/><text x="351.766" y="157.958" fill="#000" font-size="13" textLength="60.779" font-style="italic">Example:</text><text x="351.766" y="173.09" fill="#000" font-size="13" textLength="203.493" font-family="monospace">BASH_FRAMEWORK_ENV_FILES=(</text><text x="367.419" y="188.223" fill="#000" font-size="13" textLength="203.493" font-family="monospace">"${HOME}/.bash-tools/.env"</text><text x="367.419" y="203.356" fill="#000" font-size="13" textLength="109.573" font-family="monospace">"${HOME}/.env"</text><text x="351.766" y="218.489" fill="#000" font-size="13" font-family="monospace">)</text><rect x="36" y="166.738" width="289.766" height="33.969" fill="#00BFFF" style="stroke:#181818;stroke-width:0.5;" rx="12.5" ry="12.5"/><text x="46" y="187.877" fill="#000" font-size="12" textLength="269.766">add eventual BASH_FRAMEWORK_ENV_FILES</text><rect x="109.488" y="246.555" width="142.789" height="33.969" fill="#00BFFF" style="stroke:#181818;stroke-width:0.5;" rx="12.5" ry="12.5"/><text x="119.488" y="267.693" fill="#000" font-size="12" textLength="122.789">default variables file</text><rect x="46.632" y="312.523" width="268.502" height="33.969" fill="#00BFFF" style="stroke:#181818;stroke-width:0.5;" rx="12.5" ry="12.5"/><text x="56.632" y="333.662" fill="#000" font-size="12" textLength="248.502">Env::mergeConfFiles $orderedConfigFiles</text><ellipse cx="180.883" cy="389.492" rx="11" ry="11" fill="none" style="stroke:#222;stroke-width:1;"/><ellipse cx="180.883" cy="389.492" rx="6" ry="6" fill="#222" style="stroke:#222;stroke-width:1;"/><line x1="180.883" y1="200.707" x2="180.883" y2="246.555" style="stroke:#181818;stroke-width:1;"/><polygon points="176.883,236.555,180.883,246.555,184.883,236.555,180.883,240.555" fill="#181818" style="stroke:#181818;stroke-width:1;stroke-linejoin:miter;stroke-miterlimit:10;"/><line x1="180.883" y1="280.523" x2="180.883" y2="312.523" style="stroke:#181818;stroke-width:1;"/><polygon points="176.883,302.523,180.883,312.523,184.883,302.523,180.883,306.523" fill="#181818" style="stroke:#181818;stroke-width:1;stroke-linejoin:miter;stroke-miterlimit:10;"/><line x1="180.883" y1="72.297" x2="180.883" y2="166.738" style="stroke:#181818;stroke-width:1;"/><polygon points="176.883,156.738,180.883,166.738,184.883,156.738,180.883,160.738" fill="#181818" style="stroke:#181818;stroke-width:1;stroke-linejoin:miter;stroke-miterlimit:10;"/><line x1="180.883" y1="346.492" x2="180.883" y2="378.492" style="stroke:#181818;stroke-width:1;"/><polygon points="176.883,368.492,180.883,378.492,184.883,368.492,180.883,372.492" fill="#181818" style="stroke:#181818;stroke-width:1;stroke-linejoin:miter;stroke-miterlimit:10;"/><?plantuml-src TPBVRzCm4CVVyrTOxIJWWPf0kgwXJ6gtL4DqL5eHF5QN-9AQEhxWN2AggVyxRZfMHC5Fzltutjtdp9eD2eS_6krGe6sr8rkYPM48bBP5K6-rhS11AHu38Lw83NDLnr8McZTDEiYeb9K1oqrfJfVKK2gZSHWELPwDL1GEByUN8GxJQ0nNOVPcd4QZI06CnbTltydQPT8YoveQbs5Ehi2JLCqxWtBkg5pzxkGBhGx6mNTeeRy8ew5l33BMhURThOQIh9f1jYqSDLRTa24d-jFk_16OFBiSgc0V13M3uo3m5LYp9YjwYMtZ-8dDmkFeYVv25njURNSpqw07ulN-ZY-GbqwX5xqXc-jYhWtMvvd2dnYK4jXwsWqOCPkkxjRpX-bzyctvy6cTVFwwddzS9Altaqd_5h5wohs-xd8jiT_RGRDxIfdyXB8ow3VJ6IOPAJo6_a_umylEBKJlul5kUP_ivI25UlEQYKmj1_upzCu2deslZbNagGnQTMWgE8wcC8V6i6Z1QKWz0f5x4F-QPN_8Y3js9VhL7x1rqCG5dO4y5-WsHzKl?></g></svg>
