<svg xmlns="http://www.w3.org/2000/svg" xmlns:xlink="http://www.w3.org/1999/xlink" contentStyleType="text/css" height="1099px" preserveAspectRatio="none" style="width:752px;height:1099px;background:#FFFFFF;" version="1.1" viewBox="0 0 752 1099" width="752px" zoomAndPan="magnify"><title>compiler require directive</title><defs/><g><text fill="#000000" font-family="sans-serif" font-size="14" font-weight="bold" lengthAdjust="spacing" textLength="205.4883" x="272.2367" y="32.9951">compiler require directive</text><ellipse cx="236.0198" cy="57.2969" fill="#222222" rx="10" ry="10" style="stroke:#222222;stroke-width:1.0;"/><path d="M395.0696,77.2969 L395.0696,100.9961 L375.0696,104.9961 L395.0696,108.9961 L395.0696,132.6953 A0,0 0 0 0 395.0696,132.6953 L740.9617,132.6953 A0,0 0 0 0 740.9617,132.6953 L740.9617,87.2969 L730.9617,77.2969 L395.0696,77.2969 A0,0 0 0 0 395.0696,77.2969 " fill="#FEFFDD" style="stroke:#181818;stroke-width:0.5;"/><path d="M730.9617,77.2969 L730.9617,87.2969 L740.9617,87.2969 L730.9617,77.2969 " fill="#FEFFDD" style="stroke:#181818;stroke-width:0.5;"/><text fill="#000000" font-family="sans-serif" font-size="13" font-weight="bold" lengthAdjust="spacing" textLength="78.8887" x="401.0696" y="94.3638">first phase</text><text fill="#000000" font-family="sans-serif" font-size="13" lengthAdjust="spacing" textLength="241.8711" x="484.0906" y="94.3638">occurs during importFunctions phase</text><text fill="#000000" font-family="sans-serif" font-size="13" lengthAdjust="spacing" textLength="315.6943" x="401.0696" y="109.4966">where we collect functions linked to require that</text><text fill="#000000" font-family="sans-serif" font-size="13" lengthAdjust="spacing" textLength="137.4902" x="401.0696" y="124.6294">need to be imported.</text><rect fill="#F1F1F1" height="33.9688" rx="12.5" ry="12.5" style="stroke:#181818;stroke-width:0.5;" width="278.0996" x="96.97" y="88.0117"/><text fill="#000000" font-family="sans-serif" font-size="12" lengthAdjust="spacing" textLength="258.0996" x="106.97" y="109.1504">compile scriptFile (require directive phase)</text><rect fill="none" height="504.7578" style="stroke:#000000;stroke-width:1.5;" width="582.9321" x="11" y="142.6953"/><path d="M188.7129,142.6953 L188.7129,151.9922 L178.7129,161.9922 L11,161.9922 " fill="none" style="stroke:#000000;stroke-width:1.5;"/><text fill="#000000" font-family="sans-serif" font-size="14" lengthAdjust="spacing" textLength="167.7129" x="14" y="156.6904">compilerImportFunction</text><rect fill="#F1F1F1" height="33.9688" rx="12.5" ry="12.5" style="stroke:#181818;stroke-width:0.5;" width="292.4551" x="89.7922" y="178.9922"/><text fill="#000000" font-family="sans-serif" font-size="12" lengthAdjust="spacing" textLength="272.4551" x="99.7922" y="200.1309">Compiler::extractUniqueFrameworkFunctions</text><rect fill="#87CEFA" height="344.5547" style="stroke:#000000;stroke-width:1.5;" width="562.9321" x="21" y="222.9609"/><path d="M224.9219,222.9609 L224.9219,232.2578 L214.9219,242.2578 L21,242.2578 " fill="none" style="stroke:#000000;stroke-width:1.5;"/><text fill="#000000" font-family="sans-serif" font-size="14" lengthAdjust="spacing" textLength="193.9219" x="24" y="236.9561">Compiler::Require::requires</text><rect fill="#00FF7F" height="33.9688" rx="12.5" ry="12.5" style="stroke:#181818;stroke-width:0.5;" width="222.8984" x="124.5706" y="259.2578"/><text fill="#000000" font-family="sans-serif" font-size="12" lengthAdjust="spacing" textLength="202.8984" x="134.5706" y="280.3965">Compiler::Require::filter scriptFile</text><rect fill="#00FF7F" height="61.9063" rx="12.5" ry="12.5" style="stroke:#181818;stroke-width:0.5;" width="278.9668" x="96.5364" y="373.6406"/><text fill="#000000" font-family="sans-serif" font-size="12" lengthAdjust="spacing" textLength="258.9668" x="106.5364" y="394.7793">Compiler::Require::parse $requireDirective</text><text fill="#000000" font-family="sans-serif" font-size="12" lengthAdjust="spacing" textLength="7.6289" x="106.5364" y="408.748">&#160;&#160;</text><text fill="#000000" font-family="sans-serif" font-size="12" lengthAdjust="spacing" text-decoration="wavy underline" textLength="238.6875" x="114.1653" y="408.748">uses Compiler::Require::assertInterface</text><text fill="#000000" font-family="sans-serif" font-size="12" lengthAdjust="spacing" textLength="3.8145" x="106.5364" y="422.7168">&#160;</text><polygon fill="#AAAAAA" points="61,455.5469,411.0396,455.5469,423.0396,467.5469,411.0396,479.5469,61,479.5469,49,467.5469,61,455.5469" style="stroke:#181818;stroke-width:0.5;"/><text fill="#000000" font-family="sans-serif" font-size="11" lengthAdjust="spacing" textLength="350.0396" x="61" y="471.355">implement directive can't be parsed or function does not exist?</text><text fill="#FF0000" font-family="sans-serif" font-size="11" lengthAdjust="spacing" textLength="87.8926" x="423.0396" y="464.9526">invalid directive</text><ellipse cx="530.9321" cy="467.5469" fill="none" rx="10" ry="10" style="stroke:#FF0000;stroke-width:1.5;"/><line style="stroke:#FF0000;stroke-width:2.5;" x1="524.7449" x2="537.1193" y1="461.3597" y2="473.7341"/><line style="stroke:#FF0000;stroke-width:2.5;" x1="537.1193" x2="524.7449" y1="461.3597" y2="473.7341"/><rect fill="#F1F1F1" height="33.9688" rx="12.5" ry="12.5" style="stroke:#181818;stroke-width:0.5;" width="170.3164" x="150.8616" y="499.5469"/><text fill="#000000" font-family="sans-serif" font-size="12" lengthAdjust="spacing" textLength="150.3164" x="160.8616" y="520.6855">Compiler::Require::parse</text><polygon fill="#AAAAAA" points="188.55,317.9302,283.4895,317.9302,295.4895,329.9302,283.4895,341.9302,188.55,341.9302,176.55,329.9302,188.55,317.9302" style="stroke:#181818;stroke-width:0.5;"/><text fill="#008000" font-family="sans-serif" font-size="11" lengthAdjust="spacing" textLength="126.1348" x="240.0198" y="352.1406">require directive found</text><text fill="#000000" font-family="sans-serif" font-size="11" lengthAdjust="spacing" textLength="94.9395" x="188.55" y="333.7383">requireDirective?</text><text fill="#000000" font-family="sans-serif" font-size="11" lengthAdjust="spacing" textLength="89.0205" x="67.9788" y="314.5313">no more require</text><text fill="#000000" font-family="sans-serif" font-size="11" lengthAdjust="spacing" textLength="108.5713" x="67.9788" y="327.3359">directive to process</text><rect fill="#F1F1F1" height="47.9375" rx="12.5" ry="12.5" style="stroke:#181818;stroke-width:0.5;" width="282.6758" x="94.6819" y="587.5156"/><text fill="#000000" font-family="sans-serif" font-size="12" lengthAdjust="spacing" textLength="226.6172" x="104.6819" y="608.6543">import functions from 2 previous task</text><text fill="#000000" font-family="sans-serif" font-size="12" lengthAdjust="spacing" textLength="262.6758" x="104.6819" y="622.623">and inject them before # FUNCTIONS token</text><rect fill="#87CEFA" height="146.9609" style="stroke:#000000;stroke-width:1.5;" width="651.0146" x="69.2834" y="701.1938"/><path d="M273.2053,701.1938 L273.2053,710.4907 L263.2053,720.4907 L69.2834,720.4907 " fill="none" style="stroke:#000000;stroke-width:1.5;"/><text fill="#000000" font-family="sans-serif" font-size="14" lengthAdjust="spacing" textLength="193.9219" x="72.2834" y="715.189">Compiler::Require::requires</text><path d="M402.7561,740.4907 L402.7561,826.1548 L700.2981,826.1548 L700.2981,750.4907 L690.2981,740.4907 L402.7561,740.4907 " fill="#FEFFDD" style="stroke:#181818;stroke-width:0.5;"/><path d="M690.2981,740.4907 L690.2981,750.4907 L700.2981,750.4907 L690.2981,740.4907 " fill="#FEFFDD" style="stroke:#181818;stroke-width:0.5;"/><text fill="#000000" font-family="sans-serif" font-size="13" font-weight="bold" lengthAdjust="spacing" textLength="100.166" x="408.7561" y="757.5576">second phase</text><text fill="#000000" font-family="sans-serif" font-size="13" lengthAdjust="spacing" textLength="246.708" x="408.7561" y="772.6904">call again Compiler::Require::requires</text><text fill="#000000" font-family="sans-serif" font-size="13" lengthAdjust="spacing" textLength="276.542" x="408.7561" y="787.8232">to get final list of requires in reverse order</text><text fill="#000000" font-family="sans-serif" font-size="13" lengthAdjust="spacing" textLength="272.6699" x="408.7561" y="802.9561">to add the calls to those require functions</text><text fill="#000000" font-family="sans-serif" font-size="13" lengthAdjust="spacing" textLength="125.252" x="408.7561" y="818.0889">just after the token</text><text fill="#000000" font-family="sans-serif" font-size="13" lengthAdjust="spacing" text-decoration="wavy underline" textLength="81.3516" x="538.1404" y="818.0889"># REQUIRES</text><rect fill="#F1F1F1" height="33.9688" rx="12.5" ry="12.5" style="stroke:#181818;stroke-width:0.5;" width="313.4727" x="79.2834" y="766.3384"/><text fill="#000000" font-family="sans-serif" font-size="12" lengthAdjust="spacing" textLength="293.4727" x="89.2834" y="787.4771">File::insertFileAfterToken requires "# REQUIRES"</text><rect fill="#FFC0CB" height="190.2031" style="stroke:#000000;stroke-width:1.5;" width="334.9844" x="68.5276" y="858.1548"/><path d="M173.3625,858.1548 L173.3625,867.4517 L163.3625,877.4517 L68.5276,877.4517 " fill="none" style="stroke:#000000;stroke-width:1.5;"/><text fill="#000000" font-family="sans-serif" font-size="14" lengthAdjust="spacing" textLength="94.835" x="71.5276" y="872.1499">compilerEnds</text><rect fill="#F1F1F1" height="33.9688" rx="12.5" ry="12.5" style="stroke:#181818;stroke-width:0.5;" width="312.0605" x="79.9895" y="894.4517"/><text fill="#000000" font-family="sans-serif" font-size="12" lengthAdjust="spacing" textLength="292.0605" x="89.9895" y="915.5903">Compiler::Implement::mergeInterfacesFunctions</text><rect fill="#F1F1F1" height="33.9688" rx="12.5" ry="12.5" style="stroke:#181818;stroke-width:0.5;" width="314.9844" x="78.5276" y="948.4204"/><text fill="#000000" font-family="sans-serif" font-size="12" lengthAdjust="spacing" textLength="294.9844" x="88.5276" y="969.5591">Compiler::Implement::validateInterfaceFunctions</text><rect fill="#F1F1F1" height="33.9688" rx="12.5" ry="12.5" style="stroke:#181818;stroke-width:0.5;" width="99.7109" x="186.1643" y="1002.3892"/><text fill="#000000" font-family="sans-serif" font-size="12" lengthAdjust="spacing" textLength="79.7109" x="196.1643" y="1023.5278">Output result</text><ellipse cx="236.0198" cy="1078.3579" fill="none" rx="10" ry="10" style="stroke:#FF0000;stroke-width:1.5;"/><line style="stroke:#FF0000;stroke-width:2.5;" x1="229.8326" x2="242.207" y1="1072.1707" y2="1084.5451"/><line style="stroke:#FF0000;stroke-width:2.5;" x1="242.207" x2="229.8326" y1="1072.1707" y2="1084.5451"/><line style="stroke:#181818;stroke-width:1.0;" x1="236.0198" x2="236.0198" y1="67.2969" y2="88.0117"/><polygon fill="#181818" points="232.0198,78.0117,236.0198,88.0117,240.0198,78.0117,236.0198,82.0117" style="stroke:#181818;stroke-width:1.0;"/><line style="stroke:#181818;stroke-width:1.0;" x1="236.0198" x2="236.0198" y1="479.5469" y2="499.5469"/><polygon fill="#181818" points="232.0198,489.5469,236.0198,499.5469,240.0198,489.5469,236.0198,493.5469" style="stroke:#181818;stroke-width:1.0;"/><line style="stroke:#FF0000;stroke-width:1.0;" x1="423.0396" x2="520.9321" y1="467.5469" y2="467.5469"/><polygon fill="#FF0000" points="510.9321,463.5469,520.9321,467.5469,510.9321,471.5469,514.9321,467.5469" style="stroke:#FF0000;stroke-width:1.0;"/><line style="stroke:#181818;stroke-width:1.0;" x1="236.0198" x2="236.0198" y1="435.5469" y2="455.5469"/><polygon fill="#181818" points="232.0198,445.5469,236.0198,455.5469,240.0198,445.5469,236.0198,449.5469" style="stroke:#181818;stroke-width:1.0;"/><line style="stroke:#008000;stroke-width:1.0;" x1="236.0198" x2="236.0198" y1="341.9302" y2="373.6406"/><polygon fill="#008000" points="232.0198,363.6406,236.0198,373.6406,240.0198,363.6406,236.0198,367.6406" style="stroke:#008000;stroke-width:1.0;"/><line style="stroke:#181818;stroke-width:1.0;" x1="236.0198" x2="236.0198" y1="533.5156" y2="543.5156"/><line style="stroke:#181818;stroke-width:1.0;" x1="236.0198" x2="564.9321" y1="543.5156" y2="543.5156"/><polygon fill="#181818" points="560.9321,469.1758,564.9321,459.1758,568.9321,469.1758,564.9321,465.1758" style="stroke:#181818;stroke-width:1.0;"/><line style="stroke:#181818;stroke-width:1.0;" x1="564.9321" x2="564.9321" y1="329.9302" y2="543.5156"/><line style="stroke:#181818;stroke-width:1.0;" x1="564.9321" x2="295.4895" y1="329.9302" y2="329.9302"/><polygon fill="#181818" points="305.4895,325.9302,295.4895,329.9302,305.4895,333.9302,301.4895,329.9302" style="stroke:#181818;stroke-width:1.0;"/><line style="stroke:#181818;stroke-width:1.0;" x1="176.55" x2="37" y1="329.9302" y2="329.9302"/><polygon fill="#181818" points="33,455.1758,37,465.1758,41,455.1758,37,459.1758" style="stroke:#181818;stroke-width:1.0;"/><line style="stroke:#181818;stroke-width:1.0;" x1="37" x2="37" y1="329.9302" y2="555.5156"/><line style="stroke:#181818;stroke-width:1.0;" x1="37" x2="236.0198" y1="555.5156" y2="555.5156"/><line style="stroke:#181818;stroke-width:1.0;" x1="236.0198" x2="236.0198" y1="555.5156" y2="587.5156"/><polygon fill="#181818" points="232.0198,577.5156,236.0198,587.5156,240.0198,577.5156,236.0198,581.5156" style="stroke:#181818;stroke-width:1.0;"/><line style="stroke:#181818;stroke-width:1.0;" x1="236.0198" x2="236.0198" y1="293.2266" y2="317.9302"/><polygon fill="#181818" points="232.0198,307.9302,236.0198,317.9302,240.0198,307.9302,236.0198,311.9302" style="stroke:#181818;stroke-width:1.0;"/><line style="stroke:#181818;stroke-width:1.0;" x1="236.0198" x2="236.0198" y1="212.9609" y2="259.2578"/><polygon fill="#181818" points="232.0198,249.2578,236.0198,259.2578,240.0198,249.2578,236.0198,253.2578" style="stroke:#181818;stroke-width:1.0;"/><line style="stroke:#181818;stroke-width:1.0;" x1="236.0198" x2="236.0198" y1="121.9805" y2="178.9922"/><polygon fill="#181818" points="232.0198,168.9922,236.0198,178.9922,240.0198,168.9922,236.0198,172.9922" style="stroke:#181818;stroke-width:1.0;"/><line style="stroke:#008000;stroke-width:1.5;stroke-dasharray:7.0,7.0;" x1="236.0198" x2="236.0198" y1="635.4531" y2="766.3384"/><polygon fill="#008000" points="232.0198,756.3384,236.0198,766.3384,240.0198,756.3384,236.0198,760.3384" style="stroke:#008000;stroke-width:1.0;"/><text fill="#000000" font-family="sans-serif" font-size="11" lengthAdjust="spacing" textLength="47.8779" x="240.0198" y="668.7578">compiler</text><text fill="#000000" font-family="sans-serif" font-size="11" lengthAdjust="spacing" textLength="42.5122" x="240.0198" y="681.5625">process</text><text fill="#000000" font-family="sans-serif" font-size="11" lengthAdjust="spacing" textLength="53.5605" x="240.0198" y="694.3672">continues</text><text fill="#000000" font-family="sans-serif" font-size="11" lengthAdjust="spacing" textLength="3.4966" x="240.0198" y="707.1719">&#160;</text><line style="stroke:#181818;stroke-width:1.0;" x1="236.0198" x2="236.0198" y1="928.4204" y2="948.4204"/><polygon fill="#181818" points="232.0198,938.4204,236.0198,948.4204,240.0198,938.4204,236.0198,942.4204" style="stroke:#181818;stroke-width:1.0;"/><line style="stroke:#181818;stroke-width:1.0;" x1="236.0198" x2="236.0198" y1="982.3892" y2="1002.3892"/><polygon fill="#181818" points="232.0198,992.3892,236.0198,1002.3892,240.0198,992.3892,236.0198,996.3892" style="stroke:#181818;stroke-width:1.0;"/><line style="stroke:#181818;stroke-width:1.0;" x1="236.0198" x2="236.0198" y1="800.3071" y2="894.4517"/><polygon fill="#181818" points="232.0198,884.4517,236.0198,894.4517,240.0198,884.4517,236.0198,888.4517" style="stroke:#181818;stroke-width:1.0;"/><line style="stroke:#181818;stroke-width:1.0;" x1="236.0198" x2="236.0198" y1="1036.3579" y2="1068.3579"/><polygon fill="#181818" points="232.0198,1058.3579,236.0198,1068.3579,240.0198,1058.3579,236.0198,1062.3579" style="stroke:#181818;stroke-width:1.0;"/><!--SRC=[bLNRRXit47tVhnX81M8RYLMbSXoj2XU9OnK2WWInxAUs3zHoLakBIsx8eHoZYB-zmzLUPCTkKJr813ddpCoPYqYHHiXiMIcD3Xn-3SeXIFxAI6qnyHjbAk542Nyd02-W8AfyEXgj5HLXTSp8KQM5eL3g_h3ITZMQJCVZ4vbdft8oFdapVJF6azLaAjwEiv-dgydfH0fnEdtx-fUHTzd888sy3Ix3tBerzbIUxZIEviwMopQIAxkCbyStOYk67yUJ4mvCn6WLtNrGehH6lXVPPkriCFBSQkjW-Ax-x1bUT4yEPV8zIJm9HqcIDbg0pvogQ1wF1p_80bKXF1xE4cC9mQbrGSnzT9GhvsdtU7G4Dik2yo23KsODggoietamp62DtranwhP0fhwDLT2QwI7lJBGo6vH0jYiC5I9wChYxNc53Y_8uGIDZE4d2Af6A331eAxjuu7nG5pCzRnxJ5B-HOsMkZVeQSCuQuwrrcoxMMSBcUwmzy78NLves0Ve133z6EPQRk_Sw83jYAC1mMKKHVdU89dq2dYjDt7-zwBCQTbliw_-XbV-tGr0U3dxDOWNJTIGz-x56UQp_OSq3yEgFOMttrwkpvkQ_Gk9yFS9FZtqtQ83x- -3HmnD8uJqwMXZEA1SPtjytc5dpgt8uuB9fBD7GNi2PC2yerhHsBO6xi-q5a9PzSNa1lobF3mNW3ZvJPYkqaZtR8VSAcYvQpf_D-km1k5sQCsgF-uQFX693bJyhuxFIxR9bS5D4Ow6qNA16q3zDdpXtSkLiXjx7SdsFBPFk-dfl67BU0V2Q3N6hRF10mc_YG1i9ojp4mU64IvOlZrw6CB_-T7wr-FnfoVGRDBCuv6tuBwNmHIr7j_kI9e8aiuQK2UYJsODH-bzD3_1eCtXaNjck1hxAXDOWra8P-1TcDcHnriX2A2CqRmJUBpPlHVISEf-t65lLEibfr00XPLIZTkBZ1HNMTzBtehBrJM16aSVfYuXQA-xj8LnUVBbUN5uiw_PjTmiN9avdcYeJUpoUtqNiLGtheXhqy44j_1ChYJTm5AxY7VTu7ItQuKZJ4ldle1iblxUIdaFKSo2e1pt4V0vK1U9GVT1KnyQv_GC0]--></g></svg>
