<?xml version="1.0" encoding="us-ascii" standalone="no"?><svg xmlns="http://www.w3.org/2000/svg" xmlns:xlink="http://www.w3.org/1999/xlink" contentStyleType="text/css" height="1192px" preserveAspectRatio="none" style="width:922px;height:1192px;background:#FFFFFF;" version="1.1" viewBox="0 0 922 1192" width="922px" zoomAndPan="magnify"><defs/><g><text fill="#000000" font-family="sans-serif" font-size="14" font-weight="bold" lengthAdjust="spacing" textLength="199" x="360.125" y="32.9951">compiler embed injection</text><ellipse cx="305" cy="57.2969" fill="#222222" rx="10" ry="10" style="stroke:#222222;stroke-width:1.0;"/><rect fill="#F1F1F1" height="33.9688" rx="12.5" ry="12.5" style="stroke:#181818;stroke-width:0.5;" width="73" x="268.5" y="87.2969"/><text fill="#000000" font-family="sans-serif" font-size="12" lengthAdjust="spacing" textLength="53" x="278.5" y="108.4355">compiler</text><rect fill="#00FF7F" height="33.9688" rx="12.5" ry="12.5" style="stroke:#181818;stroke-width:0.5;" width="158" x="226" y="141.2656"/><text fill="#000000" font-family="sans-serif" font-size="12" lengthAdjust="spacing" textLength="138" x="236" y="162.4043">Embed::inject fromFile</text><rect fill="#00FF7F" height="33.9688" rx="12.5" ry="12.5" style="stroke:#181818;stroke-width:0.5;" width="152" x="229" y="195.2344"/><text fill="#000000" font-family="sans-serif" font-size="12" lengthAdjust="spacing" textLength="132" x="239" y="216.373">Embed::filter fromFile</text><rect fill="#00FF7F" height="184.5859" style="stroke:#000000;stroke-width:1.5;" width="352.5" x="187" y="294.9136"/><path d="M305,294.9136 L305,304.2104 L295,314.2104 L187,314.2104 " fill="none" style="stroke:#000000;stroke-width:1.5;"/><text fill="#000000" font-family="sans-serif" font-size="14" lengthAdjust="spacing" textLength="108" x="190" y="308.9087">Embed::embed</text><rect fill="#00FF7F" height="75.875" rx="12.5" ry="12.5" style="stroke:#181818;stroke-width:0.5;" width="216" x="197" y="331.2104"/><text fill="#000000" font-family="sans-serif" font-size="12" lengthAdjust="spacing" textLength="196" x="207" y="352.3491">Embed::parse $embedDirective</text><text fill="#000000" font-family="sans-serif" font-size="12" lengthAdjust="spacing" textLength="8" x="207" y="366.3179">&#160;&#160;</text><text fill="#000000" font-family="sans-serif" font-size="12" lengthAdjust="spacing" text-decoration="wavy underline" textLength="176" x="215" y="366.3179">uses Embed::assertAsName</text><text fill="#000000" font-family="sans-serif" font-size="12" lengthAdjust="spacing" textLength="8" x="207" y="380.2866">&#160;&#160;</text><text fill="#000000" font-family="sans-serif" font-size="12" lengthAdjust="spacing" text-decoration="wavy underline" textLength="184" x="215" y="380.2866">uses Embed::assertResource</text><text fill="#000000" font-family="sans-serif" font-size="12" lengthAdjust="spacing" textLength="4" x="207" y="394.2554">&#160;</text><polygon fill="#AAAAAA" points="213.5,431.7891,396.5,431.7891,408.5,443.7891,396.5,455.7891,213.5,455.7891,201.5,443.7891,213.5,431.7891" style="stroke:#181818;stroke-width:0.5;"/><text fill="#008000" font-family="sans-serif" font-size="11" lengthAdjust="spacing" textLength="78" x="309" y="465.9995">valid directive</text><text fill="#000000" font-family="sans-serif" font-size="11" lengthAdjust="spacing" textLength="183" x="213.5" y="447.5972">embed directive can be parsed?</text><text fill="#FF0000" font-family="sans-serif" font-size="11" lengthAdjust="spacing" textLength="79" x="408.5" y="428.3901">invalid embed</text><text fill="#FF0000" font-family="sans-serif" font-size="11" lengthAdjust="spacing" textLength="48" x="408.5" y="441.1948">directive</text><ellipse cx="507.5" cy="443.7891" fill="none" rx="10" ry="10" style="stroke:#FF0000;stroke-width:1.5;"/><line style="stroke:#FF0000;stroke-width:2.5;" x1="501.3128" x2="513.6872" y1="437.6019" y2="449.9762"/><line style="stroke:#FF0000;stroke-width:2.5;" x1="513.6872" x2="501.3128" y1="437.6019" y2="449.9762"/><polygon fill="#AAAAAA" points="217.5,499.4995,392.5,499.4995,404.5,511.4995,392.5,523.4995,217.5,523.4995,205.5,511.4995,217.5,499.4995" style="stroke:#181818;stroke-width:0.5;"/><text fill="#000000" font-family="sans-serif" font-size="11" lengthAdjust="spacing" textLength="175" x="217.5" y="515.3076">embed name already injected?</text><text fill="#000000" font-family="sans-serif" font-size="11" lengthAdjust="spacing" textLength="20" x="185.5" y="508.9053">yes</text><text fill="#008000" font-family="sans-serif" font-size="11" lengthAdjust="spacing" textLength="184" x="404.5" y="508.9053">embed resource can be injected</text><rect fill="#F1F1F1" height="33.9688" rx="12.5" ry="12.5" style="stroke:#181818;stroke-width:0.5;" width="92" x="41.25" y="533.4995"/><text fill="#000000" font-family="sans-serif" font-size="12" lengthAdjust="spacing" textLength="72" x="51.25" y="554.6382">display skip</text><rect fill="#F1F1F1" height="33.9688" rx="12.5" ry="12.5" style="stroke:#181818;stroke-width:0.5;" width="116" x="464.75" y="581.9019"/><text fill="#000000" font-family="sans-serif" font-size="12" lengthAdjust="spacing" textLength="96" x="474.75" y="603.0405">display warning</text><polygon fill="#AAAAAA" points="422.25,533.4995,623.25,533.4995,635.25,545.4995,623.25,557.4995,422.25,557.4995,410.25,545.4995,422.25,533.4995" style="stroke:#181818;stroke-width:0.5;"/><text fill="#000000" font-family="sans-serif" font-size="11" lengthAdjust="spacing" textLength="20" x="526.75" y="567.71">yes</text><text fill="#000000" font-family="sans-serif" font-size="11" lengthAdjust="spacing" textLength="201" x="422.25" y="549.3076">embed resources already injected?</text><polygon fill="#AAAAAA" points="522.75,635.8706,534.75,647.8706,522.75,659.8706,510.75,647.8706,522.75,635.8706" style="stroke:#181818;stroke-width:0.5;"/><rect fill="#D3D3D3" height="309.4219" style="stroke:#000000;stroke-width:1.5;" width="729" x="153.25" y="669.8706"/><path d="M271.25,669.8706 L271.25,679.1675 L261.25,689.1675 L153.25,689.1675 " fill="none" style="stroke:#000000;stroke-width:1.5;"/><text fill="#000000" font-family="sans-serif" font-size="14" lengthAdjust="spacing" textLength="108" x="156.25" y="683.8657">Embed::embed</text><rect fill="#00FF7F" height="33.9688" rx="12.5" ry="12.5" style="stroke:#181818;stroke-width:0.5;" width="258" x="393.75" y="706.1675"/><text fill="#000000" font-family="sans-serif" font-size="12" lengthAdjust="spacing" text-decoration="underline" textLength="94" x="403.75" y="727.3062">Embed::embed</text><text fill="#000000" font-family="sans-serif" font-size="12" lengthAdjust="spacing" textLength="4" x="497.75" y="727.3062">&#160;</text><text fill="#000000" font-family="sans-serif" font-size="12" font-weight="bold" lengthAdjust="spacing" textLength="71" x="501.75" y="727.3062">$resource</text><text fill="#000000" font-family="sans-serif" font-size="12" lengthAdjust="spacing" textLength="4" x="572.75" y="727.3062">&#160;</text><text fill="#000000" font-family="sans-serif" font-size="12" font-weight="bold" lengthAdjust="spacing" textLength="65" x="576.75" y="727.3062">$asName</text><polygon fill="#AAAAAA" points="480.25,760.1362,565.25,760.1362,577.25,772.1362,565.25,784.1362,480.25,784.1362,468.25,772.1362,480.25,760.1362" style="stroke:#181818;stroke-width:0.5;"/><text fill="#000000" font-family="sans-serif" font-size="11" lengthAdjust="spacing" textLength="85" x="480.25" y="775.9443">resource type?</text><rect fill="#00FF7F" height="33.9688" rx="12.5" ry="12.5" style="stroke:#181818;stroke-width:0.5;" width="135" x="163.25" y="832.5503"/><text fill="#000000" font-family="sans-serif" font-size="12" lengthAdjust="spacing" textLength="115" x="173.25" y="853.689">Embed::embedFile</text><rect fill="#00FF7F" height="33.9688" rx="12.5" ry="12.5" style="stroke:#181818;stroke-width:0.5;" width="131" x="355.75" y="832.5503"/><text fill="#000000" font-family="sans-serif" font-size="12" lengthAdjust="spacing" textLength="111" x="365.75" y="853.689">Embed::embedDir</text><rect fill="#00FF7F" height="33.9688" rx="12.5" ry="12.5" style="stroke:#181818;stroke-width:0.5;" width="236" x="579.25" y="845.355"/><text fill="#000000" font-family="sans-serif" font-size="12" lengthAdjust="spacing" textLength="216" x="589.25" y="866.4937">Embed::embedFrameworkFunction</text><rect fill="#00FF7F" height="33.9688" rx="12.5" ry="12.5" style="stroke:#181818;stroke-width:0.5;" width="91" x="651.75" y="899.3237"/><text fill="#000000" font-family="sans-serif" font-size="12" lengthAdjust="spacing" textLength="71" x="661.75" y="920.4624">bin/compile</text><ellipse cx="835.25" cy="842.5503" fill="none" rx="10" ry="10" style="stroke:#FF0000;stroke-width:1.5;"/><line style="stroke:#FF0000;stroke-width:2.5;" x1="829.0628" x2="841.4372" y1="836.3631" y2="848.7375"/><line style="stroke:#FF0000;stroke-width:2.5;" x1="841.4372" x2="829.0628" y1="836.3631" y2="848.7375"/><polygon fill="#AAAAAA" points="522.75,943.2925,522.75,943.2925,534.75,955.2925,522.75,967.2925,522.75,967.2925,510.75,955.2925,522.75,943.2925" style="stroke:#181818;stroke-width:0.5;"/><polygon fill="#AAAAAA" points="425.25,1003.9961,620.25,1003.9961,632.25,1015.9961,620.25,1027.9961,425.25,1027.9961,413.25,1015.9961,425.25,1003.9961" style="stroke:#181818;stroke-width:0.5;"/><text fill="#000000" font-family="sans-serif" font-size="11" lengthAdjust="spacing" textLength="195" x="425.25" y="1019.8042">embed resource injection failure ?</text><text fill="#FF0000" font-family="sans-serif" font-size="11" lengthAdjust="spacing" textLength="73" x="632.25" y="1000.5972">display error</text><text fill="#FF0000" font-family="sans-serif" font-size="11" lengthAdjust="spacing" textLength="71" x="632.25" y="1013.4019">and return 2</text><ellipse cx="725.25" cy="1015.9961" fill="none" rx="10" ry="10" style="stroke:#FF0000;stroke-width:1.5;"/><line style="stroke:#FF0000;stroke-width:2.5;" x1="719.0628" x2="731.4372" y1="1009.8089" y2="1022.1833"/><line style="stroke:#FF0000;stroke-width:2.5;" x1="731.4372" x2="719.0628" y1="1009.8089" y2="1022.1833"/><polygon fill="#AAAAAA" points="305,1037.9961,317,1049.9961,305,1061.9961,293,1049.9961,305,1037.9961" style="stroke:#181818;stroke-width:0.5;"/><polygon fill="#AAAAAA" points="258,249.2031,352,249.2031,364,261.2031,352,273.2031,258,273.2031,246,261.2031,258,249.2031" style="stroke:#181818;stroke-width:0.5;"/><text fill="#008000" font-family="sans-serif" font-size="11" lengthAdjust="spacing" textLength="75" x="309" y="283.4136">embed found</text><text fill="#000000" font-family="sans-serif" font-size="11" lengthAdjust="spacing" textLength="94" x="258" y="265.0112">embedDirective?</text><text fill="#000000" font-family="sans-serif" font-size="11" lengthAdjust="spacing" textLength="208" x="38" y="258.6089">no more embed directive to process</text><rect fill="#F1F1F1" height="33.9688" rx="12.5" ry="12.5" style="stroke:#181818;stroke-width:0.5;" width="103" x="253.5" y="1105.0903"/><text fill="#000000" font-family="sans-serif" font-size="12" lengthAdjust="spacing" textLength="83" x="263.5" y="1126.229">Output result</text><ellipse cx="305" cy="1170.0591" fill="none" rx="11" ry="11" style="stroke:#222222;stroke-width:1.0;"/><ellipse cx="305" cy="1170.0591" fill="#222222" rx="6" ry="6" style="stroke:#111111;stroke-width:1.0;"/><line style="stroke:#181818;stroke-width:1.0;" x1="305" x2="305" y1="67.2969" y2="87.2969"/><polygon fill="#181818" points="301,77.2969,305,87.2969,309,77.2969,305,81.2969" style="stroke:#181818;stroke-width:1.0;"/><line style="stroke:#181818;stroke-width:1.0;" x1="305" x2="305" y1="121.2656" y2="141.2656"/><polygon fill="#181818" points="301,131.2656,305,141.2656,309,131.2656,305,135.2656" style="stroke:#181818;stroke-width:1.0;"/><line style="stroke:#181818;stroke-width:1.0;" x1="305" x2="305" y1="175.2344" y2="195.2344"/><polygon fill="#181818" points="301,185.2344,305,195.2344,309,185.2344,305,189.2344" style="stroke:#181818;stroke-width:1.0;"/><line style="stroke:#181818;stroke-width:1.0;" x1="305" x2="305" y1="455.7891" y2="499.4995"/><polygon fill="#181818" points="301,489.4995,305,499.4995,309,489.4995,305,493.4995" style="stroke:#181818;stroke-width:1.0;"/><line style="stroke:#FF0000;stroke-width:1.0;" x1="408.5" x2="497.5" y1="443.7891" y2="443.7891"/><polygon fill="#FF0000" points="487.5,439.7891,497.5,443.7891,487.5,447.7891,491.5,443.7891" style="stroke:#FF0000;stroke-width:1.0;"/><line style="stroke:#181818;stroke-width:1.0;" x1="305" x2="305" y1="407.0854" y2="431.7891"/><polygon fill="#181818" points="301,421.7891,305,431.7891,309,421.7891,305,425.7891" style="stroke:#181818;stroke-width:1.0;"/><line style="stroke:#181818;stroke-width:1.0;" x1="522.75" x2="522.75" y1="557.4995" y2="581.9019"/><polygon fill="#181818" points="518.75,571.9019,522.75,581.9019,526.75,571.9019,522.75,575.9019" style="stroke:#181818;stroke-width:1.0;"/><line style="stroke:#181818;stroke-width:1.0;" x1="635.25" x2="647.25" y1="545.4995" y2="545.4995"/><polygon fill="#181818" points="643.25,588.8862,647.25,598.8862,651.25,588.8862,647.25,592.8862" style="stroke:#181818;stroke-width:1.0;"/><line style="stroke:#181818;stroke-width:1.0;" x1="647.25" x2="647.25" y1="545.4995" y2="647.8706"/><line style="stroke:#181818;stroke-width:1.0;" x1="647.25" x2="534.75" y1="647.8706" y2="647.8706"/><polygon fill="#181818" points="544.75,643.8706,534.75,647.8706,544.75,651.8706,540.75,647.8706" style="stroke:#181818;stroke-width:1.0;"/><line style="stroke:#181818;stroke-width:1.0;" x1="522.75" x2="522.75" y1="615.8706" y2="635.8706"/><polygon fill="#181818" points="518.75,625.8706,522.75,635.8706,526.75,625.8706,522.75,629.8706" style="stroke:#181818;stroke-width:1.0;"/><line style="stroke:#181818;stroke-width:1.0;" x1="697.25" x2="697.25" y1="879.3237" y2="899.3237"/><polygon fill="#181818" points="693.25,889.3237,697.25,899.3237,701.25,889.3237,697.25,893.3237" style="stroke:#181818;stroke-width:1.0;"/><line style="stroke:#181818;stroke-width:1.0;" x1="468.25" x2="230.75" y1="772.1362" y2="772.1362"/><line style="stroke:#181818;stroke-width:1.0;" x1="230.75" x2="230.75" y1="772.1362" y2="832.5503"/><polygon fill="#181818" points="226.75,822.5503,230.75,832.5503,234.75,822.5503,230.75,826.5503" style="stroke:#181818;stroke-width:1.0;"/><text fill="#000000" font-family="sans-serif" font-size="11" lengthAdjust="spacing" textLength="97" x="234.75" y="806.1514">resource is a file</text><line style="stroke:#181818;stroke-width:1.0;" x1="577.25" x2="835.25" y1="772.1362" y2="772.1362"/><line style="stroke:#181818;stroke-width:1.0;" x1="835.25" x2="835.25" y1="772.1362" y2="832.5503"/><polygon fill="#181818" points="831.25,822.5503,835.25,832.5503,839.25,822.5503,835.25,826.5503" style="stroke:#181818;stroke-width:1.0;"/><text fill="#000000" font-family="sans-serif" font-size="11" lengthAdjust="spacing" textLength="4" x="835.25" y="806.1514">&#160;</text><text fill="#FF0000" font-family="sans-serif" font-size="11" lengthAdjust="spacing" textLength="29" x="839.25" y="806.1514">error</text><line style="stroke:#181818;stroke-width:1.0;" x1="421.25" x2="421.25" y1="772.1362" y2="832.5503"/><polygon fill="#181818" points="417.25,822.5503,421.25,832.5503,425.25,822.5503,421.25,826.5503" style="stroke:#181818;stroke-width:1.0;"/><text fill="#000000" font-family="sans-serif" font-size="11" lengthAdjust="spacing" textLength="130" x="425.25" y="801.1514">resource is a directory</text><line style="stroke:#181818;stroke-width:1.0;" x1="697.25" x2="697.25" y1="772.1362" y2="845.355"/><polygon fill="#181818" points="693.25,835.355,697.25,845.355,701.25,835.355,697.25,839.355" style="stroke:#181818;stroke-width:1.0;"/><text fill="#000000" font-family="sans-serif" font-size="11" lengthAdjust="spacing" textLength="108" x="701.25" y="801.1514">resource is a bash</text><text fill="#000000" font-family="sans-serif" font-size="11" lengthAdjust="spacing" textLength="110" x="697.25" y="813.9561">framework function</text><line style="stroke:#181818;stroke-width:1.0;" x1="230.75" x2="230.75" y1="866.519" y2="955.2925"/><line style="stroke:#181818;stroke-width:1.0;" x1="230.75" x2="510.75" y1="955.2925" y2="955.2925"/><polygon fill="#181818" points="500.75,951.2925,510.75,955.2925,500.75,959.2925,504.75,955.2925" style="stroke:#181818;stroke-width:1.0;"/><line style="stroke:#181818;stroke-width:1.0;" x1="697.25" x2="697.25" y1="933.2925" y2="955.2925"/><line style="stroke:#181818;stroke-width:1.0;" x1="697.25" x2="534.75" y1="955.2925" y2="955.2925"/><polygon fill="#181818" points="544.75,951.2925,534.75,955.2925,544.75,959.2925,540.75,955.2925" style="stroke:#181818;stroke-width:1.0;"/><line style="stroke:#181818;stroke-width:1.0;" x1="421.25" x2="421.25" y1="866.519" y2="955.2925"/><polygon fill="#181818" points="417.25,945.2925,421.25,955.2925,425.25,945.2925,421.25,949.2925" style="stroke:#181818;stroke-width:1.0;"/><line style="stroke:#181818;stroke-width:1.0;" x1="522.75" x2="522.75" y1="740.1362" y2="760.1362"/><polygon fill="#181818" points="518.75,750.1362,522.75,760.1362,526.75,750.1362,522.75,754.1362" style="stroke:#181818;stroke-width:1.0;"/><line style="stroke:#181818;stroke-width:1.0;" x1="522.75" x2="522.75" y1="659.8706" y2="706.1675"/><polygon fill="#181818" points="518.75,696.1675,522.75,706.1675,526.75,696.1675,522.75,700.1675" style="stroke:#181818;stroke-width:1.0;"/><line style="stroke:#181818;stroke-width:1.0;" x1="522.75" x2="522.75" y1="1027.9961" y2="1049.9961"/><line style="stroke:#181818;stroke-width:1.0;" x1="522.75" x2="317" y1="1049.9961" y2="1049.9961"/><polygon fill="#181818" points="327,1045.9961,317,1049.9961,327,1053.9961,323,1049.9961" style="stroke:#181818;stroke-width:1.0;"/><line style="stroke:#FF0000;stroke-width:1.0;" x1="632.25" x2="715.25" y1="1015.9961" y2="1015.9961"/><polygon fill="#FF0000" points="705.25,1011.9961,715.25,1015.9961,705.25,1019.9961,709.25,1015.9961" style="stroke:#FF0000;stroke-width:1.0;"/><line style="stroke:#181818;stroke-width:1.0;" x1="522.75" x2="522.75" y1="967.2925" y2="1003.9961"/><polygon fill="#181818" points="518.75,993.9961,522.75,1003.9961,526.75,993.9961,522.75,997.9961" style="stroke:#181818;stroke-width:1.0;"/><line style="stroke:#181818;stroke-width:1.0;" x1="205.5" x2="87.25" y1="511.4995" y2="511.4995"/><line style="stroke:#181818;stroke-width:1.0;" x1="87.25" x2="87.25" y1="511.4995" y2="533.4995"/><polygon fill="#181818" points="83.25,523.4995,87.25,533.4995,91.25,523.4995,87.25,527.4995" style="stroke:#181818;stroke-width:1.0;"/><line style="stroke:#181818;stroke-width:1.0;" x1="404.5" x2="522.75" y1="511.4995" y2="511.4995"/><line style="stroke:#181818;stroke-width:1.0;" x1="522.75" x2="522.75" y1="511.4995" y2="533.4995"/><polygon fill="#181818" points="518.75,523.4995,522.75,533.4995,526.75,523.4995,522.75,527.4995" style="stroke:#181818;stroke-width:1.0;"/><line style="stroke:#181818;stroke-width:1.0;" x1="87.25" x2="87.25" y1="567.4683" y2="1049.9961"/><line style="stroke:#181818;stroke-width:1.0;" x1="87.25" x2="293" y1="1049.9961" y2="1049.9961"/><polygon fill="#181818" points="283,1045.9961,293,1049.9961,283,1053.9961,287,1049.9961" style="stroke:#181818;stroke-width:1.0;"/><line style="stroke:#008000;stroke-width:1.0;" x1="305" x2="305" y1="273.2031" y2="331.2104"/><polygon fill="#008000" points="301,321.2104,305,331.2104,309,321.2104,305,325.2104" style="stroke:#008000;stroke-width:1.0;"/><line style="stroke:#008000;stroke-width:1.0;" x1="305" x2="305" y1="1061.9961" y2="1073.0903"/><line style="stroke:#008000;stroke-width:1.0;" x1="305" x2="896.25" y1="1073.0903" y2="1073.0903"/><polygon fill="#008000" points="892.25,716.3042,896.25,706.3042,900.25,716.3042,896.25,712.3042" style="stroke:#008000;stroke-width:1.0;"/><line style="stroke:#008000;stroke-width:1.0;" x1="896.25" x2="896.25" y1="261.2031" y2="1073.0903"/><line style="stroke:#008000;stroke-width:1.0;" x1="896.25" x2="364" y1="261.2031" y2="261.2031"/><polygon fill="#008000" points="374,257.2031,364,261.2031,374,265.2031,370,261.2031" style="stroke:#008000;stroke-width:1.0;"/><text fill="#008000" font-family="sans-serif" font-size="11" lengthAdjust="spacing" textLength="169" x="305" y="1083.3008">process next embed directive</text><line style="stroke:#181818;stroke-width:1.0;" x1="246" x2="24" y1="261.2031" y2="261.2031"/><polygon fill="#181818" points="20,708.7065,24,718.7065,28,708.7065,24,712.7065" style="stroke:#181818;stroke-width:1.0;"/><line style="stroke:#181818;stroke-width:1.0;" x1="24" x2="24" y1="261.2031" y2="1090.0903"/><line style="stroke:#181818;stroke-width:1.0;" x1="24" x2="305" y1="1090.0903" y2="1090.0903"/><line style="stroke:#181818;stroke-width:1.0;" x1="305" x2="305" y1="1090.0903" y2="1105.0903"/><polygon fill="#181818" points="301,1095.0903,305,1105.0903,309,1095.0903,305,1099.0903" style="stroke:#181818;stroke-width:1.0;"/><line style="stroke:#181818;stroke-width:1.0;" x1="305" x2="305" y1="229.2031" y2="249.2031"/><polygon fill="#181818" points="301,239.2031,305,249.2031,309,239.2031,305,243.2031" style="stroke:#181818;stroke-width:1.0;"/><line style="stroke:#181818;stroke-width:1.0;" x1="305" x2="305" y1="1139.0591" y2="1159.0591"/><polygon fill="#181818" points="301,1149.0591,305,1159.0591,309,1149.0591,305,1153.0591" style="stroke:#181818;stroke-width:1.0;"/><!--SRC=[ZLJRJjj047ttLumKf2QHm0rDW3WLY9RB2sgbqhTIHMjx7I_OkzRkEi52vDixkxRnfGaY3_5jvioPisT6CvrG24IQiOHAeAbFGs3yaGQQ2Uwe9yOp8aaABmx09uYrpfJdkYkcuzm_mZmtImZNUPeqDtuYV7SwdqncOHISXjF9x6H-Cg4pVpedPvFWyzoVdav3GaxdPyTVN2K3brFjAf7BW4P2hcW3fNIHKFT6YlI-Pl9Rt9kNHuzaJGPta-aCYH5aksQwk68a5JpyHeAdbHGv3x-BH4WONDfVA_3wxPEaeVFgA4saTXol5cBXE8FxJ3A-kfMKSk_QwE9vfJ0G8PyR3DiJ5R54evPDr2R62mojk5TC6ctNz684JC7mQs1uU2i3S5xA7ndc8sHx-6TWt_yzFCSdx5upSofGrIcZsmpiAG7i8eNPYi91buED1jXkSqLL3KkKeb9VgXyafTljEo6_Q7bcLT32_hEeQXJ2kWe4X8DFmL88T_Mz9Wbh9On0nvHNbRiY0D04-wZJyVJE6I_JRTK7tlhI03PO-Bv6GYmUEjMLHSx_rLuTfzqHHqM099AIiAY6nFPZsCAmeAgiuuLCeOCBmEd9Z2eToksJbfM2jK8rvgWdPHsdFb2zLNz394SVB7ezxZFI7Ll5-bPYuak5r37ISjaENovXF3weYOt7vebOpup7YofTRPWEOXY-jQcB37rVVGs8KQNH05r183AJKaViTh8jNmxMEq3bsGjPV0GD1-9TC9-e-857k7teHiWdY79kz-E7cDPPDrNIOdUEpxXRhPyUbvQZgPIuj9ggVKCtbhPtvG7OvzSzbcgMFKI49RcaSD6Vlx84T2QhT9ZbqvavmWsspYM7uqL_p70EzasrTQVJsBGL09t9oQJ0GL30wRE6tgR1XOpvrRhb0bA1xVItaHPGOOnmu__CTPPh8qUUQCnNMcJ_0000]--></g></svg>