<?xml version="1.0" encoding="us-ascii" standalone="no"?><svg xmlns="http://www.w3.org/2000/svg" xmlns:xlink="http://www.w3.org/1999/xlink" contentStyleType="text/css" height="1170px" preserveAspectRatio="none" style="width:1498px;height:1170px;background:#FFFFFF;" version="1.1" viewBox="0 0 1498 1170" width="1498px" zoomAndPan="magnify"><defs/><g><text fill="#000000" font-family="sans-serif" font-size="14" font-weight="bold" lengthAdjust="spacing" textLength="217" x="639.25" y="32.9951">compiler facade generation</text><ellipse cx="744.25" cy="57.2969" fill="#222222" rx="10" ry="10" style="stroke:#222222;stroke-width:1.0;"/><path d="M906.75,91.7148 L906.75,100.2813 L886.75,104.2813 L906.75,108.2813 L906.75,116.8477 A0,0 0 0 0 906.75,116.8477 L1317.75,116.8477 A0,0 0 0 0 1317.75,116.8477 L1317.75,101.7148 L1307.75,91.7148 L906.75,91.7148 A0,0 0 0 0 906.75,91.7148 " fill="#FEFFDD" style="stroke:#181818;stroke-width:0.5;"/><path d="M1307.75,91.7148 L1307.75,101.7148 L1317.75,101.7148 L1307.75,91.7148 " fill="#FEFFDD" style="stroke:#181818;stroke-width:0.5;"/><text fill="#000000" font-family="sans-serif" font-size="13" lengthAdjust="spacing" textLength="390" x="912.75" y="108.7817">this phase occurs before compiler begin to compile the script</text><rect fill="#F1F1F1" height="33.9688" rx="12.5" ry="12.5" style="stroke:#181818;stroke-width:0.5;" width="285" x="601.75" y="87.2969"/><text fill="#000000" font-family="sans-serif" font-size="12" lengthAdjust="spacing" textLength="265" x="611.75" y="108.4355">compile scriptFile (facade directive phase)</text><rect fill="#D3D3D3" height="878.4209" style="stroke:#000000;stroke-width:1.5;" width="1476.5" x="11" y="131.2656"/><path d="M215,131.2656 L215,140.5625 L205,150.5625 L11,150.5625 " fill="none" style="stroke:#000000;stroke-width:1.5;"/><text fill="#000000" font-family="sans-serif" font-size="14" lengthAdjust="spacing" textLength="194" x="14" y="145.2607">Compiler::Facade::generate</text><rect fill="#00FF7F" height="33.9688" rx="12.5" ry="12.5" style="stroke:#181818;stroke-width:0.5;" width="258" x="615.25" y="167.5625"/><text fill="#000000" font-family="sans-serif" font-size="12" lengthAdjust="spacing" textLength="234" x="629.25" y="188.7012">Compiler::Facade::generate scriptFile</text><rect fill="#00FF7F" height="33.9688" rx="12.5" ry="12.5" style="stroke:#181818;stroke-width:0.5;" width="224" x="632.25" y="221.5313"/><text fill="#000000" font-family="sans-serif" font-size="12" lengthAdjust="spacing" textLength="204" x="642.25" y="242.6699">Compiler::Facade::filter scriptFile</text><polygon fill="#AAAAAA" points="675.25,275.5,813.25,275.5,825.25,287.5,813.25,299.5,675.25,299.5,663.25,287.5,675.25,275.5" style="stroke:#181818;stroke-width:0.5;"/><text fill="#000000" font-family="sans-serif" font-size="11" lengthAdjust="spacing" textLength="138" x="675.25" y="291.3081">facade directives count?</text><rect fill="#F1F1F1" height="33.9688" rx="12.5" ry="12.5" style="stroke:#181818;stroke-width:0.5;" width="227" x="21" y="335.1094"/><text fill="#000000" font-family="sans-serif" font-size="12" lengthAdjust="spacing" textLength="207" x="31" y="356.248">continue with normal compilation</text><rect fill="#00FF7F" height="61.9063" rx="12.5" ry="12.5" style="stroke:#181818;stroke-width:0.5;" width="297" x="326" y="335.1094"/><text fill="#000000" font-family="sans-serif" font-size="12" lengthAdjust="spacing" textLength="261" x="336" y="356.248">Compiler::Facade::parse $facadeDirective</text><text fill="#000000" font-family="sans-serif" font-size="12" lengthAdjust="spacing" textLength="8" x="336" y="370.2168">&#160;&#160;</text><text fill="#000000" font-family="sans-serif" font-size="12" lengthAdjust="spacing" text-decoration="wavy underline" textLength="269" x="344" y="370.2168">uses Compiler::Facade::assertTemplateFile</text><text fill="#000000" font-family="sans-serif" font-size="12" lengthAdjust="spacing" textLength="4" x="336" y="384.1855">&#160;</text><polygon fill="#AAAAAA" points="383.5,432.0156,565.5,432.0156,577.5,444.0156,565.5,456.0156,383.5,456.0156,371.5,444.0156,383.5,432.0156" style="stroke:#181818;stroke-width:0.5;"/><text fill="#008000" font-family="sans-serif" font-size="11" lengthAdjust="spacing" textLength="78" x="478.5" y="466.2261">valid directive</text><text fill="#000000" font-family="sans-serif" font-size="11" lengthAdjust="spacing" textLength="182" x="383.5" y="447.8237">facade directive can be parsed?</text><text fill="#FF0000" font-family="sans-serif" font-size="11" lengthAdjust="spacing" textLength="78" x="577.5" y="428.6167">invalid facade</text><text fill="#FF0000" font-family="sans-serif" font-size="11" lengthAdjust="spacing" textLength="48" x="577.5" y="441.4214">directive</text><ellipse cx="675.5" cy="444.0156" fill="none" rx="10" ry="10" style="stroke:#FF0000;stroke-width:1.5;"/><line style="stroke:#FF0000;stroke-width:2.5;" x1="669.3128" x2="681.6872" y1="437.8284" y2="450.2028"/><line style="stroke:#FF0000;stroke-width:2.5;" x1="681.6872" x2="669.3128" y1="437.8284" y2="450.2028"/><polygon fill="#AAAAAA" points="370,492.4297,579,492.4297,591,504.4297,579,516.4297,370,516.4297,358,504.4297,370,492.4297" style="stroke:#181818;stroke-width:0.5;"/><text fill="#008000" font-family="sans-serif" font-size="11" lengthAdjust="spacing" textLength="143" x="478.5" y="526.6401">valid facade template file</text><text fill="#000000" font-family="sans-serif" font-size="11" lengthAdjust="spacing" textLength="209" x="370" y="508.2378">facade directive template file exists?</text><text fill="#FF0000" font-family="sans-serif" font-size="11" lengthAdjust="spacing" textLength="78" x="591" y="489.0308">invalid facade</text><text fill="#FF0000" font-family="sans-serif" font-size="11" lengthAdjust="spacing" textLength="71" x="591" y="501.8354">template file</text><ellipse cx="689" cy="504.4297" fill="none" rx="10" ry="10" style="stroke:#FF0000;stroke-width:1.5;"/><line style="stroke:#FF0000;stroke-width:2.5;" x1="682.8128" x2="695.1872" y1="498.2425" y2="510.6169"/><line style="stroke:#FF0000;stroke-width:2.5;" x1="695.1872" x2="682.8128" y1="498.2425" y2="510.6169"/><rect fill="#F1F1F1" height="33.9688" rx="12.5" ry="12.5" style="stroke:#181818;stroke-width:0.5;" width="297" x="326" y="548.1401"/><text fill="#000000" font-family="sans-serif" font-size="12" lengthAdjust="spacing" textLength="277" x="336" y="569.2788">call Compiler::Implement::interfaceFunctions</text><polygon fill="#AAAAAA" points="448,602.1089,501,602.1089,513,614.1089,501,626.1089,448,626.1089,436,614.1089,448,602.1089" style="stroke:#181818;stroke-width:0.5;"/><text fill="#008000" font-family="sans-serif" font-size="11" lengthAdjust="spacing" textLength="80" x="478.5" y="636.3193">valid interface</text><text fill="#000000" font-family="sans-serif" font-size="11" lengthAdjust="spacing" textLength="53" x="448" y="617.917">no error?</text><text fill="#FF0000" font-family="sans-serif" font-size="11" lengthAdjust="spacing" textLength="90" x="513" y="611.5146">invalid interface</text><ellipse cx="623" cy="614.1089" fill="none" rx="10" ry="10" style="stroke:#FF0000;stroke-width:1.5;"/><line style="stroke:#FF0000;stroke-width:2.5;" x1="616.8128" x2="629.1872" y1="607.9217" y2="620.2961"/><line style="stroke:#FF0000;stroke-width:2.5;" x1="629.1872" x2="616.8128" y1="607.9217" y2="620.2961"/><rect fill="#87CEFA" height="315.8672" style="stroke:#000000;stroke-width:1.5;" width="913.5" x="258" y="647.8193"/><path d="M574,647.8193 L574,657.1162 L564,667.1162 L258,667.1162 " fill="none" style="stroke:#000000;stroke-width:1.5;"/><text fill="#000000" font-family="sans-serif" font-size="14" lengthAdjust="spacing" textLength="306" x="261" y="661.8145">Compiler::Facade::generateFacadeScriptFile</text><rect fill="#00BFFF" height="33.9688" rx="12.5" ry="12.5" style="stroke:#181818;stroke-width:0.5;" width="172" x="388.5" y="684.1162"/><text fill="#000000" font-family="sans-serif" font-size="12" lengthAdjust="spacing" textLength="152" x="398.5" y="705.2549">use facade template file</text><path d="M649,728.085 L649,751.7842 L629,755.7842 L649,759.7842 L649,783.4834 A0,0 0 0 0 649,783.4834 L1150,783.4834 A0,0 0 0 0 1150,783.4834 L1150,738.085 L1140,728.085 L649,728.085 A0,0 0 0 0 649,728.085 " fill="#FEFFDD" style="stroke:#181818;stroke-width:0.5;"/><path d="M1140,728.085 L1140,738.085 L1150,738.085 L1140,728.085 " fill="#FEFFDD" style="stroke:#181818;stroke-width:0.5;"/><text fill="#000000" font-family="sans-serif" font-size="13" lengthAdjust="spacing" textLength="437" x="655" y="745.1519">This way, the compiler will automatically check for function presence.</text><text fill="#000000" font-family="sans-serif" font-size="13" lengthAdjust="spacing" textLength="480" x="655" y="760.2847">Note that compiler only checks using regexp, does not check if the function</text><text fill="#000000" font-family="sans-serif" font-size="13" lengthAdjust="spacing" textLength="122" x="655" y="775.4175">is really accessible.</text><rect fill="#00BFFF" height="33.9688" rx="12.5" ry="12.5" style="stroke:#181818;stroke-width:0.5;" width="309" x="320" y="738.7998"/><text fill="#000000" font-family="sans-serif" font-size="12" lengthAdjust="spacing" textLength="289" x="330" y="759.9385">copy IMPLEMENT directives inside template file</text><path d="M679.5,800.335 L679.5,816.4678 L659.5,820.4678 L679.5,824.4678 L679.5,840.6006 A0,0 0 0 0 679.5,840.6006 L1161.5,840.6006 A0,0 0 0 0 1161.5,840.6006 L1161.5,810.335 L1151.5,800.335 L679.5,800.335 A0,0 0 0 0 679.5,800.335 " fill="#FEFFDD" style="stroke:#181818;stroke-width:0.5;"/><path d="M1151.5,800.335 L1151.5,810.335 L1161.5,810.335 L1151.5,800.335 " fill="#FEFFDD" style="stroke:#181818;stroke-width:0.5;"/><text fill="#000000" font-family="sans-serif" font-size="13" lengthAdjust="spacing" textLength="461" x="685.5" y="817.4019">The script needs to be compiled before being able to know if all interface</text><text fill="#000000" font-family="sans-serif" font-size="13" lengthAdjust="spacing" textLength="218" x="685.5" y="832.5347">functions have been implemented</text><rect fill="#00BFFF" height="33.9688" rx="12.5" ry="12.5" style="stroke:#181818;stroke-width:0.5;" width="370" x="289.5" y="803.4834"/><text fill="#000000" font-family="sans-serif" font-size="12" lengthAdjust="spacing" textLength="350" x="299.5" y="824.6221">move the script inside main function of the template file</text><path d="M701,857.4521 L701,873.585 L681,877.585 L701,881.585 L701,897.7178 A0,0 0 0 0 701,897.7178 L1095,897.7178 A0,0 0 0 0 1095,897.7178 L1095,867.4521 L1085,857.4521 L701,857.4521 A0,0 0 0 0 701,857.4521 " fill="#FEFFDD" style="stroke:#181818;stroke-width:0.5;"/><path d="M1085,857.4521 L1085,867.4521 L1095,867.4521 L1085,857.4521 " fill="#FEFFDD" style="stroke:#181818;stroke-width:0.5;"/><text fill="#000000" font-family="sans-serif" font-size="13" lengthAdjust="spacing" textLength="330" x="707" y="874.519">generate the switch case to call the public functions</text><text fill="#000000" font-family="sans-serif" font-size="13" lengthAdjust="spacing" textLength="373" x="707" y="889.6519">of the script file using interfaceFunctions computed above;</text><rect fill="#00BFFF" height="33.9688" rx="12.5" ry="12.5" style="stroke:#181818;stroke-width:0.5;" width="413" x="268" y="860.6006"/><text fill="#000000" font-family="sans-serif" font-size="12" lengthAdjust="spacing" textLength="393" x="278" y="881.7393">Compiler::Facade::generateSwitchCaseFromInterfaceFunctions</text><rect fill="#00BFFF" height="33.9688" rx="12.5" ry="12.5" style="stroke:#181818;stroke-width:0.5;" width="384" x="282.5" y="917.7178"/><text fill="#000000" font-family="sans-serif" font-size="12" lengthAdjust="spacing" textLength="364" x="292.5" y="938.8564">inject switch case inside main function of the template file</text><rect fill="#F1F1F1" height="33.9688" rx="12.5" ry="12.5" style="stroke:#181818;stroke-width:0.5;" width="286" x="1191.5" y="335.1094"/><text fill="#000000" font-family="sans-serif" font-size="12" lengthAdjust="spacing" textLength="266" x="1201.5" y="356.248">You can provide only one FACADE directive</text><ellipse cx="1334.5" cy="414.0781" fill="none" rx="10" ry="10" style="stroke:#FF0000;stroke-width:1.5;"/><line style="stroke:#FF0000;stroke-width:2.5;" x1="1328.3128" x2="1340.6872" y1="407.8909" y2="420.2653"/><line style="stroke:#FF0000;stroke-width:2.5;" x1="1340.6872" x2="1328.3128" y1="407.8909" y2="420.2653"/><polygon fill="#AAAAAA" points="744.25,973.6865,744.25,973.6865,756.25,985.6865,744.25,997.6865,744.25,997.6865,732.25,985.6865,744.25,973.6865" style="stroke:#181818;stroke-width:0.5;"/><rect fill="#F1F1F1" height="33.9688" rx="12.5" ry="12.5" style="stroke:#181818;stroke-width:0.5;" width="253" x="617.75" y="1029.6865"/><text fill="#000000" font-family="sans-serif" font-size="12" lengthAdjust="spacing" textLength="233" x="627.75" y="1050.8252">Continue normal compilation process</text><rect fill="#F1F1F1" height="33.9688" rx="12.5" ry="12.5" style="stroke:#181818;stroke-width:0.5;" width="103" x="692.75" y="1083.6553"/><text fill="#000000" font-family="sans-serif" font-size="12" lengthAdjust="spacing" textLength="83" x="702.75" y="1104.7939">Output result</text><ellipse cx="744.25" cy="1148.624" fill="none" rx="11" ry="11" style="stroke:#222222;stroke-width:1.0;"/><ellipse cx="744.25" cy="1148.624" fill="#222222" rx="6" ry="6" style="stroke:#111111;stroke-width:1.0;"/><line style="stroke:#181818;stroke-width:1.0;" x1="744.25" x2="744.25" y1="67.2969" y2="87.2969"/><polygon fill="#181818" points="740.25,77.2969,744.25,87.2969,748.25,77.2969,744.25,81.2969" style="stroke:#181818;stroke-width:1.0;"/><line style="stroke:#181818;stroke-width:1.0;" x1="744.25" x2="744.25" y1="201.5313" y2="221.5313"/><polygon fill="#181818" points="740.25,211.5313,744.25,221.5313,748.25,211.5313,744.25,215.5313" style="stroke:#181818;stroke-width:1.0;"/><line style="stroke:#181818;stroke-width:1.0;" x1="474.5" x2="474.5" y1="456.0156" y2="492.4297"/><polygon fill="#181818" points="470.5,482.4297,474.5,492.4297,478.5,482.4297,474.5,486.4297" style="stroke:#181818;stroke-width:1.0;"/><line style="stroke:#FF0000;stroke-width:1.0;" x1="577.5" x2="665.5" y1="444.0156" y2="444.0156"/><polygon fill="#FF0000" points="655.5,440.0156,665.5,444.0156,655.5,448.0156,659.5,444.0156" style="stroke:#FF0000;stroke-width:1.0;"/><line style="stroke:#181818;stroke-width:1.0;" x1="474.5" x2="474.5" y1="397.0156" y2="432.0156"/><polygon fill="#181818" points="470.5,422.0156,474.5,432.0156,478.5,422.0156,474.5,426.0156" style="stroke:#181818;stroke-width:1.0;"/><line style="stroke:#181818;stroke-width:1.0;" x1="474.5" x2="474.5" y1="516.4297" y2="548.1401"/><polygon fill="#181818" points="470.5,538.1401,474.5,548.1401,478.5,538.1401,474.5,542.1401" style="stroke:#181818;stroke-width:1.0;"/><line style="stroke:#FF0000;stroke-width:1.0;" x1="591" x2="679" y1="504.4297" y2="504.4297"/><polygon fill="#FF0000" points="669,500.4297,679,504.4297,669,508.4297,673,504.4297" style="stroke:#FF0000;stroke-width:1.0;"/><line style="stroke:#181818;stroke-width:1.0;" x1="474.5" x2="474.5" y1="626.1089" y2="684.1162"/><polygon fill="#181818" points="470.5,674.1162,474.5,684.1162,478.5,674.1162,474.5,678.1162" style="stroke:#181818;stroke-width:1.0;"/><line style="stroke:#FF0000;stroke-width:1.0;" x1="513" x2="613" y1="614.1089" y2="614.1089"/><polygon fill="#FF0000" points="603,610.1089,613,614.1089,603,618.1089,607,614.1089" style="stroke:#FF0000;stroke-width:1.0;"/><line style="stroke:#181818;stroke-width:1.0;" x1="474.5" x2="474.5" y1="582.1089" y2="602.1089"/><polygon fill="#181818" points="470.5,592.1089,474.5,602.1089,478.5,592.1089,474.5,596.1089" style="stroke:#181818;stroke-width:1.0;"/><line style="stroke:#181818;stroke-width:1.0;" x1="474.5" x2="474.5" y1="718.085" y2="738.7998"/><polygon fill="#181818" points="470.5,728.7998,474.5,738.7998,478.5,728.7998,474.5,732.7998" style="stroke:#181818;stroke-width:1.0;"/><line style="stroke:#181818;stroke-width:1.0;" x1="474.5" x2="474.5" y1="772.7686" y2="803.4834"/><polygon fill="#181818" points="470.5,793.4834,474.5,803.4834,478.5,793.4834,474.5,797.4834" style="stroke:#181818;stroke-width:1.0;"/><line style="stroke:#181818;stroke-width:1.0;" x1="474.5" x2="474.5" y1="837.4521" y2="860.6006"/><polygon fill="#181818" points="470.5,850.6006,474.5,860.6006,478.5,850.6006,474.5,854.6006" style="stroke:#181818;stroke-width:1.0;"/><line style="stroke:#181818;stroke-width:1.0;" x1="474.5" x2="474.5" y1="894.5693" y2="917.7178"/><polygon fill="#181818" points="470.5,907.7178,474.5,917.7178,478.5,907.7178,474.5,911.7178" style="stroke:#181818;stroke-width:1.0;"/><line style="stroke:#181818;stroke-width:1.0;" x1="1334.5" x2="1334.5" y1="369.0781" y2="404.0781"/><polygon fill="#181818" points="1330.5,394.0781,1334.5,404.0781,1338.5,394.0781,1334.5,398.0781" style="stroke:#181818;stroke-width:1.0;"/><line style="stroke:#181818;stroke-width:1.0;" x1="663.25" x2="134.5" y1="287.5" y2="287.5"/><line style="stroke:#181818;stroke-width:1.0;" x1="134.5" x2="134.5" y1="287.5" y2="335.1094"/><polygon fill="#181818" points="130.5,325.1094,134.5,335.1094,138.5,325.1094,134.5,329.1094" style="stroke:#181818;stroke-width:1.0;"/><text fill="#000000" font-family="sans-serif" font-size="11" lengthAdjust="spacing" textLength="7" x="134.5" y="315.1128">0</text><line style="stroke:#181818;stroke-width:1.0;" x1="825.25" x2="1334.5" y1="287.5" y2="287.5"/><line style="stroke:#181818;stroke-width:1.0;" x1="1334.5" x2="1334.5" y1="287.5" y2="335.1094"/><polygon fill="#181818" points="1330.5,325.1094,1334.5,335.1094,1338.5,325.1094,1334.5,329.1094" style="stroke:#181818;stroke-width:1.0;"/><text fill="#FF0000" font-family="sans-serif" font-size="11" lengthAdjust="spacing" textLength="16" x="1334.5" y="315.1128">&gt;1</text><line style="stroke:#181818;stroke-width:1.0;" x1="474.5" x2="474.5" y1="287.5" y2="335.1094"/><polygon fill="#181818" points="470.5,325.1094,474.5,335.1094,478.5,325.1094,474.5,329.1094" style="stroke:#181818;stroke-width:1.0;"/><text fill="#000000" font-family="sans-serif" font-size="11" lengthAdjust="spacing" textLength="7" x="474.5" y="310.1128">1</text><line style="stroke:#181818;stroke-width:1.0;" x1="134.5" x2="134.5" y1="369.0781" y2="985.6865"/><line style="stroke:#181818;stroke-width:1.0;" x1="134.5" x2="732.25" y1="985.6865" y2="985.6865"/><polygon fill="#181818" points="722.25,981.6865,732.25,985.6865,722.25,989.6865,726.25,985.6865" style="stroke:#181818;stroke-width:1.0;"/><line style="stroke:#181818;stroke-width:1.0;" x1="474.5" x2="474.5" y1="951.6865" y2="985.6865"/><line style="stroke:#181818;stroke-width:1.0;" x1="474.5" x2="732.25" y1="985.6865" y2="985.6865"/><polygon fill="#181818" points="722.25,981.6865,732.25,985.6865,722.25,989.6865,726.25,985.6865" style="stroke:#181818;stroke-width:1.0;"/><line style="stroke:#181818;stroke-width:1.0;" x1="744.25" x2="744.25" y1="255.5" y2="275.5"/><polygon fill="#181818" points="740.25,265.5,744.25,275.5,748.25,265.5,744.25,269.5" style="stroke:#181818;stroke-width:1.0;"/><line style="stroke:#181818;stroke-width:1.0;" x1="744.25" x2="744.25" y1="121.2656" y2="167.5625"/><polygon fill="#181818" points="740.25,157.5625,744.25,167.5625,748.25,157.5625,744.25,161.5625" style="stroke:#181818;stroke-width:1.0;"/><line style="stroke:#181818;stroke-width:1.0;" x1="744.25" x2="744.25" y1="997.6865" y2="1029.6865"/><polygon fill="#181818" points="740.25,1019.6865,744.25,1029.6865,748.25,1019.6865,744.25,1023.6865" style="stroke:#181818;stroke-width:1.0;"/><line style="stroke:#181818;stroke-width:1.0;" x1="744.25" x2="744.25" y1="1063.6553" y2="1083.6553"/><polygon fill="#181818" points="740.25,1073.6553,744.25,1083.6553,748.25,1073.6553,744.25,1077.6553" style="stroke:#181818;stroke-width:1.0;"/><line style="stroke:#181818;stroke-width:1.0;" x1="744.25" x2="744.25" y1="1117.624" y2="1137.624"/><polygon fill="#181818" points="740.25,1127.624,744.25,1137.624,748.25,1127.624,744.25,1131.624" style="stroke:#181818;stroke-width:1.0;"/><!--SRC=[hLPTRzis57tNhxY01om1shZUdAQMXnHf4XS1qcw0yr9qUw2eQucrH0eavTGecj_UIuhwo6mlsJ0_s1AbS-uzzzDMs0A1gx8I1MfOCSvIX0mbQcQ5af5P2ranpKhu5W7y3BcrbOd7uqpOl4vE23ck2YPjNHRzHLAeP3oTJIQdwOgVfTF9wUlPwmcU9jCPUpFXhsR9z6oQCdOsU_FBhsEZ-LYY7HjLQuuhfJFigOpT5ZXUQ5KkMq_krD8TddnX6pQwdKnFoJ76hTW8kxqIh5GoVSVuEjEgbkcbAfI6qON_35wyxXvfJAFlaR5CsoYAGoZ0S2qgkt2NHo4ggT3eq0XLpWmUpoEfB88MMMvZiBampGDGdDVQGEAq38ARO2OaMDMU4AIr4qMap0eNSRWCxyVnmjkDuv0EXD6ji_LUiorbWyICbfKMCdkl4MNyJy1UpNm7jmjRYSAIlqCGWBaNbkUxmJ0afvRsxJ6zmvtwerVk4k3bvr7c3FpryjpVKsYb5R968AOSfD8bAq8iVAtDEuR9VeOdtAOG4lYdni6hrZ-F17Xug0tvkejYng2sTrXIoLbqQXyUF6RklyLgJ_uvavHDy0RJjyT0cJ_wZRjoYht3vnjMYBG77BjKo-39trLXuIG7E1NZkP0Dl37xfnmywXbxCZflgOXCfb7u5Ql30coG2ojNX_XL66iEwmZmHw3_JT9ZrcV92kN4YcAGpnkYmHAbZMCXgNp952vgoLrbcJwNKW5ghVHXjHtwlqdiuS_NyfpcR-wN_LXgXi5olNrNK4zz2-oZAyGg7CPKydkJDz_tCbVL5cu-_75x_U7wuzsmmOKquX15FmB30S2TcuJtRFl23xXk_DqBoXUhhIgfsrtoji1pv6kWAGcha2ceD1gK74ywke_EWisPxQcKRC46QaCZ0JHc-BLw0QaYVycdG4qPTpwqx1qdEQZHky0uHsD4KdGMAIzErBuGbMepdDfjO4f6SxrJe1gRpuzMHoSHK-CMHDA5BMstI89E9alSsb2mbkhUYNCjq1LSHzcwOY1d6mT52Q9j3qoVrdcu2fT-2rpIb7Oh-UP0e-qLsYqZ7y1cc_XnxpQY4-BEgpef1EyLTEWGrH0fFxQQpEyskuzTJK8fN9Im-TDwXVn2jVx8gN-PskzXTmqdmdc_nWO38FwaQhz0AgqspeGlPYKH5XUN5rVNVUFDetvSq7VZNKJ_LI9AK5YbkrlKyRgIfaKV_rvR2WILkgaBImV6gke7]--></g></svg>