<svg xmlns="http://www.w3.org/2000/svg" xmlns:xlink="http://www.w3.org/1999/xlink" contentStyleType="text/css" height="1192px" preserveAspectRatio="none" style="width:1016px;height:1192px;background:#FFFFFF;" version="1.1" viewBox="0 0 1016 1192" width="1016px" zoomAndPan="magnify"><defs/><g><text fill="#000000" font-family="sans-serif" font-size="14" font-weight="bold" lengthAdjust="spacing" textLength="200.3271" x="406.7029" y="32.9951">compiler embed injection</text><ellipse cx="325.4713" cy="57.2969" fill="#222222" rx="10" ry="10" style="stroke:#222222;stroke-width:1.0;"/><rect fill="#F1F1F1" height="33.9688" rx="12.5" ry="12.5" style="stroke:#181818;stroke-width:0.5;" width="72.2305" x="289.3561" y="87.2969"/><text fill="#000000" font-family="sans-serif" font-size="12" lengthAdjust="spacing" textLength="52.2305" x="299.3561" y="108.4355">compiler</text><rect fill="#00FF7F" height="33.9688" rx="12.5" ry="12.5" style="stroke:#181818;stroke-width:0.5;" width="217.9883" x="216.4772" y="141.2656"/><text fill="#000000" font-family="sans-serif" font-size="12" lengthAdjust="spacing" textLength="197.9883" x="226.4772" y="162.4043">Compiler::Embed::inject fromFile</text><rect fill="#00FF7F" height="33.9688" rx="12.5" ry="12.5" style="stroke:#181818;stroke-width:0.5;" width="212.9434" x="218.9996" y="195.2344"/><text fill="#000000" font-family="sans-serif" font-size="12" lengthAdjust="spacing" textLength="192.9434" x="228.9996" y="216.373">Compiler::Embed::filter fromFile</text><rect fill="#00FF7F" height="184.5859" style="stroke:#000000;stroke-width:1.5;" width="377.1157" x="179.0905" y="294.9136"/><path d="M368.4791,294.9136 L368.4791,304.2104 L358.4791,314.2104 L179.0905,314.2104 " fill="none" style="stroke:#000000;stroke-width:1.5;"/><text fill="#000000" font-family="sans-serif" font-size="14" lengthAdjust="spacing" textLength="179.3887" x="182.0905" y="308.9087">Compiler::Embed::embed</text><rect fill="#00FF7F" height="75.875" rx="12.5" ry="12.5" style="stroke:#181818;stroke-width:0.5;" width="272.7617" x="189.0905" y="331.2104"/><text fill="#000000" font-family="sans-serif" font-size="12" lengthAdjust="spacing" textLength="252.7617" x="199.0905" y="352.3491">Compiler::Embed::parse $embedDirective</text><text fill="#000000" font-family="sans-serif" font-size="12" lengthAdjust="spacing" textLength="7.6289" x="199.0905" y="366.3179">&#160;&#160;</text><text fill="#000000" font-family="sans-serif" font-size="12" lengthAdjust="spacing" text-decoration="wavy underline" textLength="230.1211" x="206.7194" y="366.3179">uses Compiler::Embed::assertAsName</text><text fill="#000000" font-family="sans-serif" font-size="12" lengthAdjust="spacing" textLength="7.6289" x="199.0905" y="380.2866">&#160;&#160;</text><text fill="#000000" font-family="sans-serif" font-size="12" lengthAdjust="spacing" text-decoration="wavy underline" textLength="236.0918" x="206.7194" y="380.2866">uses Compiler::Embed::assertResource</text><text fill="#000000" font-family="sans-serif" font-size="12" lengthAdjust="spacing" textLength="3.8145" x="199.0905" y="394.2554">&#160;</text><polygon fill="#AAAAAA" points="236.8214,431.7891,414.1212,431.7891,426.1212,443.7891,414.1212,455.7891,236.8214,455.7891,224.8214,443.7891,236.8214,431.7891" style="stroke:#181818;stroke-width:0.5;"/><text fill="#008000" font-family="sans-serif" font-size="11" lengthAdjust="spacing" textLength="77.8647" x="329.4713" y="465.9995">valid directive</text><text fill="#000000" font-family="sans-serif" font-size="11" lengthAdjust="spacing" textLength="177.2998" x="236.8214" y="447.5972">embed directive can be parsed?</text><text fill="#FF0000" font-family="sans-serif" font-size="11" lengthAdjust="spacing" textLength="78.085" x="426.1212" y="428.3901">invalid embed</text><text fill="#FF0000" font-family="sans-serif" font-size="11" lengthAdjust="spacing" textLength="48.0229" x="426.1212" y="441.1948">directive</text><ellipse cx="524.2062" cy="443.7891" fill="none" rx="10" ry="10" style="stroke:#FF0000;stroke-width:1.5;"/><line style="stroke:#FF0000;stroke-width:2.5;" x1="518.019" x2="530.3934" y1="437.6019" y2="449.9762"/><line style="stroke:#FF0000;stroke-width:2.5;" x1="530.3934" x2="518.019" y1="437.6019" y2="449.9762"/><polygon fill="#AAAAAA" points="239.9608,499.4995,410.9818,499.4995,422.9818,511.4995,410.9818,523.4995,239.9608,523.4995,227.9608,511.4995,239.9608,499.4995" style="stroke:#181818;stroke-width:0.5;"/><text fill="#000000" font-family="sans-serif" font-size="11" lengthAdjust="spacing" textLength="171.021" x="239.9608" y="515.3076">embed name already injected?</text><text fill="#000000" font-family="sans-serif" font-size="11" lengthAdjust="spacing" textLength="19.0083" x="208.9525" y="508.9053">yes</text><text fill="#008000" font-family="sans-serif" font-size="11" lengthAdjust="spacing" textLength="177.7349" x="422.9818" y="508.9053">embed resource can be injected</text><rect fill="#F1F1F1" height="33.9688" rx="12.5" ry="12.5" style="stroke:#181818;stroke-width:0.5;" width="90.5762" x="38" y="533.4995"/><text fill="#000000" font-family="sans-serif" font-size="12" lengthAdjust="spacing" textLength="70.5762" x="48" y="554.6382">display skip</text><rect fill="#F1F1F1" height="33.9688" rx="12.5" ry="12.5" style="stroke:#181818;stroke-width:0.5;" width="114.6875" x="510.3108" y="581.9019"/><text fill="#000000" font-family="sans-serif" font-size="12" lengthAdjust="spacing" textLength="94.6875" x="520.3108" y="603.0405">display warning</text><polygon fill="#AAAAAA" points="470.8459,533.4995,664.4631,533.4995,676.4631,545.4995,664.4631,557.4995,470.8459,557.4995,458.8459,545.4995,470.8459,533.4995" style="stroke:#181818;stroke-width:0.5;"/><text fill="#000000" font-family="sans-serif" font-size="11" lengthAdjust="spacing" textLength="19.0083" x="571.6545" y="567.71">yes</text><text fill="#000000" font-family="sans-serif" font-size="11" lengthAdjust="spacing" textLength="193.6172" x="470.8459" y="549.3076">embed resources already injected?</text><polygon fill="#AAAAAA" points="567.6545,635.8706,579.6545,647.8706,567.6545,659.8706,555.6545,647.8706,567.6545,635.8706" style="stroke:#181818;stroke-width:0.5;"/><rect fill="#D3D3D3" height="309.4219" style="stroke:#000000;stroke-width:1.5;" width="828.1567" x="148.5762" y="669.8706"/><path d="M337.9648,669.8706 L337.9648,679.1675 L327.9648,689.1675 L148.5762,689.1675 " fill="none" style="stroke:#000000;stroke-width:1.5;"/><text fill="#000000" font-family="sans-serif" font-size="14" lengthAdjust="spacing" textLength="179.3887" x="151.5762" y="683.8657">Compiler::Embed::embed</text><rect fill="#00FF7F" height="33.9688" rx="12.5" ry="12.5" style="stroke:#181818;stroke-width:0.5;" width="311.2695" x="412.0198" y="706.1675"/><text fill="#000000" font-family="sans-serif" font-size="12" lengthAdjust="spacing" text-decoration="underline" textLength="153.7617" x="422.0198" y="727.3062">Compiler::Embed::embed</text><text fill="#000000" font-family="sans-serif" font-size="12" lengthAdjust="spacing" textLength="3.8145" x="575.7815" y="727.3062">&#160;</text><text fill="#000000" font-family="sans-serif" font-size="12" font-weight="bold" lengthAdjust="spacing" textLength="67.5059" x="579.5959" y="727.3062">$resource</text><text fill="#000000" font-family="sans-serif" font-size="12" lengthAdjust="spacing" textLength="3.8145" x="647.1018" y="727.3062">&#160;</text><text fill="#000000" font-family="sans-serif" font-size="12" font-weight="bold" lengthAdjust="spacing" textLength="62.373" x="650.9163" y="727.3062">$asName</text><polygon fill="#AAAAAA" points="526.6704,760.1362,608.6387,760.1362,620.6387,772.1362,608.6387,784.1362,526.6704,784.1362,514.6704,772.1362,526.6704,760.1362" style="stroke:#181818;stroke-width:0.5;"/><text fill="#000000" font-family="sans-serif" font-size="11" lengthAdjust="spacing" textLength="81.9683" x="526.6704" y="775.9443">resource type?</text><rect fill="#00FF7F" height="33.9688" rx="12.5" ry="12.5" style="stroke:#181818;stroke-width:0.5;" width="194.7148" x="158.5762" y="832.5503"/><text fill="#000000" font-family="sans-serif" font-size="12" lengthAdjust="spacing" textLength="174.7148" x="168.5762" y="853.689">Compiler::Embed::embedFile</text><rect fill="#00FF7F" height="33.9688" rx="12.5" ry="12.5" style="stroke:#181818;stroke-width:0.5;" width="191.2695" x="373.7573" y="832.5503"/><text fill="#000000" font-family="sans-serif" font-size="12" lengthAdjust="spacing" textLength="171.2695" x="383.7573" y="853.689">Compiler::Embed::embedDir</text><rect fill="#00FF7F" height="33.9688" rx="12.5" ry="12.5" style="stroke:#181818;stroke-width:0.5;" width="292.7598" x="619.915" y="845.355"/><text fill="#000000" font-family="sans-serif" font-size="12" lengthAdjust="spacing" textLength="272.7598" x="629.915" y="866.4937">Compiler::Embed::embedFrameworkFunction</text><rect fill="#00FF7F" height="33.9688" rx="12.5" ry="12.5" style="stroke:#181818;stroke-width:0.5;" width="89.8965" x="721.3467" y="899.3237"/><text fill="#000000" font-family="sans-serif" font-size="12" lengthAdjust="spacing" textLength="69.8965" x="731.3467" y="920.4624">bin/compile</text><ellipse cx="932.6748" cy="842.5503" fill="none" rx="10" ry="10" style="stroke:#FF0000;stroke-width:1.5;"/><line style="stroke:#FF0000;stroke-width:2.5;" x1="926.4876" x2="938.862" y1="836.3631" y2="848.7375"/><line style="stroke:#FF0000;stroke-width:2.5;" x1="938.862" x2="926.4876" y1="836.3631" y2="848.7375"/><polygon fill="#AAAAAA" points="567.6545,943.2925,567.6545,943.2925,579.6545,955.2925,567.6545,967.2925,567.6545,967.2925,555.6545,955.2925,567.6545,943.2925" style="stroke:#181818;stroke-width:0.5;"/><polygon fill="#AAAAAA" points="473.6255,1003.9961,661.6836,1003.9961,673.6836,1015.9961,661.6836,1027.9961,473.6255,1027.9961,461.6255,1015.9961,473.6255,1003.9961" style="stroke:#181818;stroke-width:0.5;"/><text fill="#000000" font-family="sans-serif" font-size="11" lengthAdjust="spacing" textLength="188.0581" x="473.6255" y="1019.8042">embed resource injection failure ?</text><text fill="#FF0000" font-family="sans-serif" font-size="11" lengthAdjust="spacing" textLength="69.6201" x="673.6836" y="1000.5972">display error</text><text fill="#FF0000" font-family="sans-serif" font-size="11" lengthAdjust="spacing" textLength="68.7554" x="673.6836" y="1013.4019">and return 2</text><ellipse cx="763.3037" cy="1015.9961" fill="none" rx="10" ry="10" style="stroke:#FF0000;stroke-width:1.5;"/><line style="stroke:#FF0000;stroke-width:2.5;" x1="757.1165" x2="769.4909" y1="1009.8089" y2="1022.1833"/><line style="stroke:#FF0000;stroke-width:2.5;" x1="769.4909" x2="757.1165" y1="1009.8089" y2="1022.1833"/><polygon fill="#AAAAAA" points="325.4713,1037.9961,337.4713,1049.9961,325.4713,1061.9961,313.4713,1049.9961,325.4713,1037.9961" style="stroke:#181818;stroke-width:0.5;"/><polygon fill="#AAAAAA" points="278.6891,249.2031,372.2535,249.2031,384.2535,261.2031,372.2535,273.2031,278.6891,273.2031,266.6891,261.2031,278.6891,249.2031" style="stroke:#181818;stroke-width:0.5;"/><text fill="#008000" font-family="sans-serif" font-size="11" lengthAdjust="spacing" textLength="73.2402" x="329.4713" y="283.4136">embed found</text><text fill="#000000" font-family="sans-serif" font-size="11" lengthAdjust="spacing" textLength="93.5645" x="278.6891" y="265.0112">embedDirective?</text><text fill="#000000" font-family="sans-serif" font-size="11" lengthAdjust="spacing" textLength="199.7134" x="66.9757" y="258.6089">no more embed directive to process</text><rect fill="#F1F1F1" height="33.9688" rx="12.5" ry="12.5" style="stroke:#181818;stroke-width:0.5;" width="99.7109" x="275.6158" y="1105.0903"/><text fill="#000000" font-family="sans-serif" font-size="12" lengthAdjust="spacing" textLength="79.7109" x="285.6158" y="1126.229">Output result</text><ellipse cx="325.4713" cy="1170.0591" fill="none" rx="11" ry="11" style="stroke:#222222;stroke-width:1.0;"/><ellipse cx="325.4713" cy="1170.0591" fill="#222222" rx="6" ry="6" style="stroke:#222222;stroke-width:1.0;"/><line style="stroke:#181818;stroke-width:1.0;" x1="325.4713" x2="325.4713" y1="67.2969" y2="87.2969"/><polygon fill="#181818" points="321.4713,77.2969,325.4713,87.2969,329.4713,77.2969,325.4713,81.2969" style="stroke:#181818;stroke-width:1.0;"/><line style="stroke:#181818;stroke-width:1.0;" x1="325.4713" x2="325.4713" y1="121.2656" y2="141.2656"/><polygon fill="#181818" points="321.4713,131.2656,325.4713,141.2656,329.4713,131.2656,325.4713,135.2656" style="stroke:#181818;stroke-width:1.0;"/><line style="stroke:#181818;stroke-width:1.0;" x1="325.4713" x2="325.4713" y1="175.2344" y2="195.2344"/><polygon fill="#181818" points="321.4713,185.2344,325.4713,195.2344,329.4713,185.2344,325.4713,189.2344" style="stroke:#181818;stroke-width:1.0;"/><line style="stroke:#181818;stroke-width:1.0;" x1="325.4713" x2="325.4713" y1="455.7891" y2="499.4995"/><polygon fill="#181818" points="321.4713,489.4995,325.4713,499.4995,329.4713,489.4995,325.4713,493.4995" style="stroke:#181818;stroke-width:1.0;"/><line style="stroke:#FF0000;stroke-width:1.0;" x1="426.1212" x2="514.2062" y1="443.7891" y2="443.7891"/><polygon fill="#FF0000" points="504.2062,439.7891,514.2062,443.7891,504.2062,447.7891,508.2062,443.7891" style="stroke:#FF0000;stroke-width:1.0;"/><line style="stroke:#181818;stroke-width:1.0;" x1="325.4713" x2="325.4713" y1="407.0854" y2="431.7891"/><polygon fill="#181818" points="321.4713,421.7891,325.4713,431.7891,329.4713,421.7891,325.4713,425.7891" style="stroke:#181818;stroke-width:1.0;"/><line style="stroke:#181818;stroke-width:1.0;" x1="567.6545" x2="567.6545" y1="557.4995" y2="581.9019"/><polygon fill="#181818" points="563.6545,571.9019,567.6545,581.9019,571.6545,571.9019,567.6545,575.9019" style="stroke:#181818;stroke-width:1.0;"/><line style="stroke:#181818;stroke-width:1.0;" x1="676.4631" x2="688.4631" y1="545.4995" y2="545.4995"/><polygon fill="#181818" points="684.4631,588.8862,688.4631,598.8862,692.4631,588.8862,688.4631,592.8862" style="stroke:#181818;stroke-width:1.0;"/><line style="stroke:#181818;stroke-width:1.0;" x1="688.4631" x2="688.4631" y1="545.4995" y2="647.8706"/><line style="stroke:#181818;stroke-width:1.0;" x1="688.4631" x2="579.6545" y1="647.8706" y2="647.8706"/><polygon fill="#181818" points="589.6545,643.8706,579.6545,647.8706,589.6545,651.8706,585.6545,647.8706" style="stroke:#181818;stroke-width:1.0;"/><line style="stroke:#181818;stroke-width:1.0;" x1="567.6545" x2="567.6545" y1="615.8706" y2="635.8706"/><polygon fill="#181818" points="563.6545,625.8706,567.6545,635.8706,571.6545,625.8706,567.6545,629.8706" style="stroke:#181818;stroke-width:1.0;"/><line style="stroke:#181818;stroke-width:1.0;" x1="766.2949" x2="766.2949" y1="879.3237" y2="899.3237"/><polygon fill="#181818" points="762.2949,889.3237,766.2949,899.3237,770.2949,889.3237,766.2949,893.3237" style="stroke:#181818;stroke-width:1.0;"/><line style="stroke:#181818;stroke-width:1.0;" x1="514.6704" x2="255.9336" y1="772.1362" y2="772.1362"/><line style="stroke:#181818;stroke-width:1.0;" x1="255.9336" x2="255.9336" y1="772.1362" y2="832.5503"/><polygon fill="#181818" points="251.9336,822.5503,255.9336,832.5503,259.9336,822.5503,255.9336,826.5503" style="stroke:#181818;stroke-width:1.0;"/><text fill="#000000" font-family="sans-serif" font-size="11" lengthAdjust="spacing" textLength="90.8306" x="259.4302" y="806.1514">resource is a file</text><line style="stroke:#181818;stroke-width:1.0;" x1="620.6387" x2="932.6748" y1="772.1362" y2="772.1362"/><line style="stroke:#181818;stroke-width:1.0;" x1="932.6748" x2="932.6748" y1="772.1362" y2="832.5503"/><polygon fill="#181818" points="928.6748,822.5503,932.6748,832.5503,936.6748,822.5503,932.6748,826.5503" style="stroke:#181818;stroke-width:1.0;"/><text fill="#000000" font-family="sans-serif" font-size="11" lengthAdjust="spacing" textLength="3.4966" x="932.6748" y="806.1514">&#160;</text><text fill="#FF0000" font-family="sans-serif" font-size="11" lengthAdjust="spacing" textLength="27.0649" x="936.1714" y="806.1514">error</text><line style="stroke:#181818;stroke-width:1.0;" x1="469.3921" x2="469.3921" y1="772.1362" y2="832.5503"/><polygon fill="#181818" points="465.3921,822.5503,469.3921,832.5503,473.3921,822.5503,469.3921,826.5503" style="stroke:#181818;stroke-width:1.0;"/><text fill="#000000" font-family="sans-serif" font-size="11" lengthAdjust="spacing" textLength="123.5298" x="472.8887" y="801.1514">resource is a directory</text><line style="stroke:#181818;stroke-width:1.0;" x1="766.2949" x2="766.2949" y1="772.1362" y2="845.355"/><polygon fill="#181818" points="762.2949,835.355,766.2949,845.355,770.2949,835.355,766.2949,839.355" style="stroke:#181818;stroke-width:1.0;"/><text fill="#000000" font-family="sans-serif" font-size="11" lengthAdjust="spacing" textLength="100.5039" x="769.7915" y="801.1514">resource is a bash</text><text fill="#000000" font-family="sans-serif" font-size="11" lengthAdjust="spacing" textLength="107.6689" x="766.2949" y="813.9561">framework function</text><line style="stroke:#181818;stroke-width:1.0;" x1="255.9336" x2="255.9336" y1="866.519" y2="955.2925"/><line style="stroke:#181818;stroke-width:1.0;" x1="255.9336" x2="555.6545" y1="955.2925" y2="955.2925"/><polygon fill="#181818" points="545.6545,951.2925,555.6545,955.2925,545.6545,959.2925,549.6545,955.2925" style="stroke:#181818;stroke-width:1.0;"/><line style="stroke:#181818;stroke-width:1.0;" x1="766.2949" x2="766.2949" y1="933.2925" y2="955.2925"/><line style="stroke:#181818;stroke-width:1.0;" x1="766.2949" x2="579.6545" y1="955.2925" y2="955.2925"/><polygon fill="#181818" points="589.6545,951.2925,579.6545,955.2925,589.6545,959.2925,585.6545,955.2925" style="stroke:#181818;stroke-width:1.0;"/><line style="stroke:#181818;stroke-width:1.0;" x1="469.3921" x2="469.3921" y1="866.519" y2="955.2925"/><polygon fill="#181818" points="465.3921,945.2925,469.3921,955.2925,473.3921,945.2925,469.3921,949.2925" style="stroke:#181818;stroke-width:1.0;"/><line style="stroke:#181818;stroke-width:1.0;" x1="567.6545" x2="567.6545" y1="740.1362" y2="760.1362"/><polygon fill="#181818" points="563.6545,750.1362,567.6545,760.1362,571.6545,750.1362,567.6545,754.1362" style="stroke:#181818;stroke-width:1.0;"/><line style="stroke:#181818;stroke-width:1.0;" x1="567.6545" x2="567.6545" y1="659.8706" y2="706.1675"/><polygon fill="#181818" points="563.6545,696.1675,567.6545,706.1675,571.6545,696.1675,567.6545,700.1675" style="stroke:#181818;stroke-width:1.0;"/><line style="stroke:#181818;stroke-width:1.0;" x1="567.6545" x2="567.6545" y1="1027.9961" y2="1049.9961"/><line style="stroke:#181818;stroke-width:1.0;" x1="567.6545" x2="337.4713" y1="1049.9961" y2="1049.9961"/><polygon fill="#181818" points="347.4713,1045.9961,337.4713,1049.9961,347.4713,1053.9961,343.4713,1049.9961" style="stroke:#181818;stroke-width:1.0;"/><line style="stroke:#FF0000;stroke-width:1.0;" x1="673.6836" x2="753.3037" y1="1015.9961" y2="1015.9961"/><polygon fill="#FF0000" points="743.3037,1011.9961,753.3037,1015.9961,743.3037,1019.9961,747.3037,1015.9961" style="stroke:#FF0000;stroke-width:1.0;"/><line style="stroke:#181818;stroke-width:1.0;" x1="567.6545" x2="567.6545" y1="967.2925" y2="1003.9961"/><polygon fill="#181818" points="563.6545,993.9961,567.6545,1003.9961,571.6545,993.9961,567.6545,997.9961" style="stroke:#181818;stroke-width:1.0;"/><line style="stroke:#181818;stroke-width:1.0;" x1="227.9608" x2="83.2881" y1="511.4995" y2="511.4995"/><line style="stroke:#181818;stroke-width:1.0;" x1="83.2881" x2="83.2881" y1="511.4995" y2="533.4995"/><polygon fill="#181818" points="79.2881,523.4995,83.2881,533.4995,87.2881,523.4995,83.2881,527.4995" style="stroke:#181818;stroke-width:1.0;"/><line style="stroke:#181818;stroke-width:1.0;" x1="422.9818" x2="567.6545" y1="511.4995" y2="511.4995"/><line style="stroke:#181818;stroke-width:1.0;" x1="567.6545" x2="567.6545" y1="511.4995" y2="533.4995"/><polygon fill="#181818" points="563.6545,523.4995,567.6545,533.4995,571.6545,523.4995,567.6545,527.4995" style="stroke:#181818;stroke-width:1.0;"/><line style="stroke:#181818;stroke-width:1.0;" x1="83.2881" x2="83.2881" y1="567.4683" y2="1049.9961"/><line style="stroke:#181818;stroke-width:1.0;" x1="83.2881" x2="313.4713" y1="1049.9961" y2="1049.9961"/><polygon fill="#181818" points="303.4713,1045.9961,313.4713,1049.9961,303.4713,1053.9961,307.4713,1049.9961" style="stroke:#181818;stroke-width:1.0;"/><line style="stroke:#008000;stroke-width:1.0;" x1="325.4713" x2="325.4713" y1="273.2031" y2="331.2104"/><polygon fill="#008000" points="321.4713,321.2104,325.4713,331.2104,329.4713,321.2104,325.4713,325.2104" style="stroke:#008000;stroke-width:1.0;"/><line style="stroke:#008000;stroke-width:1.0;" x1="325.4713" x2="325.4713" y1="1061.9961" y2="1073.0903"/><line style="stroke:#008000;stroke-width:1.0;" x1="325.4713" x2="990.7329" y1="1073.0903" y2="1073.0903"/><polygon fill="#008000" points="986.7329,716.3042,990.7329,706.3042,994.7329,716.3042,990.7329,712.3042" style="stroke:#008000;stroke-width:1.0;"/><line style="stroke:#008000;stroke-width:1.0;" x1="990.7329" x2="990.7329" y1="261.2031" y2="1073.0903"/><line style="stroke:#008000;stroke-width:1.0;" x1="990.7329" x2="384.2535" y1="261.2031" y2="261.2031"/><polygon fill="#008000" points="394.2535,257.2031,384.2535,261.2031,394.2535,265.2031,390.2535,261.2031" style="stroke:#008000;stroke-width:1.0;"/><text fill="#008000" font-family="sans-serif" font-size="11" lengthAdjust="spacing" textLength="163.8022" x="325.4713" y="1083.3008">process next embed directive</text><line style="stroke:#181818;stroke-width:1.0;" x1="266.6891" x2="24" y1="261.2031" y2="261.2031"/><polygon fill="#181818" points="20,708.7065,24,718.7065,28,708.7065,24,712.7065" style="stroke:#181818;stroke-width:1.0;"/><line style="stroke:#181818;stroke-width:1.0;" x1="24" x2="24" y1="261.2031" y2="1090.0903"/><line style="stroke:#181818;stroke-width:1.0;" x1="24" x2="325.4713" y1="1090.0903" y2="1090.0903"/><line style="stroke:#181818;stroke-width:1.0;" x1="325.4713" x2="325.4713" y1="1090.0903" y2="1105.0903"/><polygon fill="#181818" points="321.4713,1095.0903,325.4713,1105.0903,329.4713,1095.0903,325.4713,1099.0903" style="stroke:#181818;stroke-width:1.0;"/><line style="stroke:#181818;stroke-width:1.0;" x1="325.4713" x2="325.4713" y1="229.2031" y2="249.2031"/><polygon fill="#181818" points="321.4713,239.2031,325.4713,249.2031,329.4713,239.2031,325.4713,243.2031" style="stroke:#181818;stroke-width:1.0;"/><line style="stroke:#181818;stroke-width:1.0;" x1="325.4713" x2="325.4713" y1="1139.0591" y2="1159.0591"/><polygon fill="#181818" points="321.4713,1149.0591,325.4713,1159.0591,329.4713,1149.0591,325.4713,1153.0591" style="stroke:#181818;stroke-width:1.0;"/><!--SRC=[bLLTJzim57tFhxXIaTPMWgoi1PfE80Q35xH9OszZgfp4QGo97TbEkmZHtxuRno4VVFUXIPnxppq-lkT6CvrG24IQiOHAeAbFGs3ybWQQ2UweEyOp8aaAzmx09uYrpfJdkYkcuzpVmpmtImZNUPeqDtuYV7SwdqncOHGSXjF9x61-CA4pVpedHvFWyzoV7av3GWxdH_jVN2K3brFjAf7BW4P2hcW3fNIHKFT2YlIwPl9RN9UBUxTaJGPNa-aCYH5aksQwE6Sa5JpyHeAxbHGv3yz48YGCJisl5VZzyPMaeVFWA4saTXol5cBXE8FhJ3A-kfIKSk_ChdlUzr8XpwiaWWYPNU2BD-CZbcZKjudVn7Y1eH7ydCbIxpKz6G5JCFmQbDoyLGbrN1r9LEvcX3lO_JCmwtztZ_495T6iF2buKh7AQxCoPmZmEb54L1HskhnC7i1scokgdfOYIb6fJzKFajBjzbt1lsXrtZPyOVvPP0M1iAuC0U7WKp2qmkVqMPE4jH96e6FABOUkM00qmRtLwNZonunNwQRg3M-zQG0RB5olaH2BXuwziiXvMkt1STexugWDa4HI4XRMO6O_9LiO5bHLTRoGAUp-0j1vMQbAXtAx8wHLi5QenXprfApZr3kgj-flYEJO9OlU7jzkk2ksYlMbH8XxYzbfkENo-SJb4iRZdPhiU5m-4TDHu_720gaDqq4CmyUjwo93pzYt0IcLQdJ1JY4GbIwh8zxgVKEaikSha5Ld25by31VDz2giJrHymoESS7GZv1r4EJSp-8Fiw_mBcxvuFjjdtBN3hiUgvG4g9Ox8fdxV0eq9p5rrFERvuOKcR3uj416Mv9B2IT-nLGdeUB7gISEdurB2IsoTImxxYxunqJalpG7JpqxJsAq0w7WjamAjeu3JVnfwimc7FkRRGSu5f0AtqvzVMe356E7tvMUkiroNSkI9ndobHVOV]--></g></svg>
