<?xml version="1.0" encoding="us-ascii" standalone="no"?><svg xmlns="http://www.w3.org/2000/svg" xmlns:xlink="http://www.w3.org/1999/xlink" contentStyleType="text/css" height="1192px" preserveAspectRatio="none" style="width:1043px;height:1192px;background:#FFFFFF;" version="1.1" viewBox="0 0 1043 1192" width="1043px" zoomAndPan="magnify"><defs/><g><text fill="#000000" font-family="sans-serif" font-size="14" font-weight="bold" lengthAdjust="spacing" textLength="199" x="420.5" y="32.9951">compiler embed injection</text><ellipse cx="332.75" cy="57.2969" fill="#222222" rx="10" ry="10" style="stroke:#222222;stroke-width:1.0;"/><rect fill="#F1F1F1" height="33.9688" rx="12.5" ry="12.5" style="stroke:#181818;stroke-width:0.5;" width="73" x="296.25" y="87.2969"/><text fill="#000000" font-family="sans-serif" font-size="12" lengthAdjust="spacing" textLength="53" x="306.25" y="108.4355">compiler</text><rect fill="#00FF7F" height="33.9688" rx="12.5" ry="12.5" style="stroke:#181818;stroke-width:0.5;" width="220" x="222.75" y="141.2656"/><text fill="#000000" font-family="sans-serif" font-size="12" lengthAdjust="spacing" textLength="200" x="232.75" y="162.4043">Compiler::Embed::inject fromFile</text><rect fill="#00FF7F" height="33.9688" rx="12.5" ry="12.5" style="stroke:#181818;stroke-width:0.5;" width="214" x="225.75" y="195.2344"/><text fill="#000000" font-family="sans-serif" font-size="12" lengthAdjust="spacing" textLength="194" x="235.75" y="216.373">Compiler::Embed::filter fromFile</text><rect fill="#00FF7F" height="184.5859" style="stroke:#000000;stroke-width:1.5;" width="383.5" x="183.75" y="294.9136"/><path d="M372.75,294.9136 L372.75,304.2104 L362.75,314.2104 L183.75,314.2104 " fill="none" style="stroke:#000000;stroke-width:1.5;"/><text fill="#000000" font-family="sans-serif" font-size="14" lengthAdjust="spacing" textLength="179" x="186.75" y="308.9087">Compiler::Embed::embed</text><rect fill="#00FF7F" height="75.875" rx="12.5" ry="12.5" style="stroke:#181818;stroke-width:0.5;" width="278" x="193.75" y="331.2104"/><text fill="#000000" font-family="sans-serif" font-size="12" lengthAdjust="spacing" textLength="258" x="203.75" y="352.3491">Compiler::Embed::parse $embedDirective</text><text fill="#000000" font-family="sans-serif" font-size="12" lengthAdjust="spacing" textLength="8" x="203.75" y="366.3179">&#160;&#160;</text><text fill="#000000" font-family="sans-serif" font-size="12" lengthAdjust="spacing" text-decoration="wavy underline" textLength="238" x="211.75" y="366.3179">uses Compiler::Embed::assertAsName</text><text fill="#000000" font-family="sans-serif" font-size="12" lengthAdjust="spacing" textLength="8" x="203.75" y="380.2866">&#160;&#160;</text><text fill="#000000" font-family="sans-serif" font-size="12" lengthAdjust="spacing" text-decoration="wavy underline" textLength="246" x="211.75" y="380.2866">uses Compiler::Embed::assertResource</text><text fill="#000000" font-family="sans-serif" font-size="12" lengthAdjust="spacing" textLength="4" x="203.75" y="394.2554">&#160;</text><polygon fill="#AAAAAA" points="241.25,431.7891,424.25,431.7891,436.25,443.7891,424.25,455.7891,241.25,455.7891,229.25,443.7891,241.25,431.7891" style="stroke:#181818;stroke-width:0.5;"/><text fill="#008000" font-family="sans-serif" font-size="11" lengthAdjust="spacing" textLength="78" x="336.75" y="465.9995">valid directive</text><text fill="#000000" font-family="sans-serif" font-size="11" lengthAdjust="spacing" textLength="183" x="241.25" y="447.5972">embed directive can be parsed?</text><text fill="#FF0000" font-family="sans-serif" font-size="11" lengthAdjust="spacing" textLength="79" x="436.25" y="428.3901">invalid embed</text><text fill="#FF0000" font-family="sans-serif" font-size="11" lengthAdjust="spacing" textLength="48" x="436.25" y="441.1948">directive</text><ellipse cx="535.25" cy="443.7891" fill="none" rx="10" ry="10" style="stroke:#FF0000;stroke-width:1.5;"/><line style="stroke:#FF0000;stroke-width:2.5;" x1="529.0628" x2="541.4372" y1="437.6019" y2="449.9762"/><line style="stroke:#FF0000;stroke-width:2.5;" x1="541.4372" x2="529.0628" y1="437.6019" y2="449.9762"/><polygon fill="#AAAAAA" points="245.25,499.4995,420.25,499.4995,432.25,511.4995,420.25,523.4995,245.25,523.4995,233.25,511.4995,245.25,499.4995" style="stroke:#181818;stroke-width:0.5;"/><text fill="#000000" font-family="sans-serif" font-size="11" lengthAdjust="spacing" textLength="175" x="245.25" y="515.3076">embed name already injected?</text><text fill="#000000" font-family="sans-serif" font-size="11" lengthAdjust="spacing" textLength="20" x="213.25" y="508.9053">yes</text><text fill="#008000" font-family="sans-serif" font-size="11" lengthAdjust="spacing" textLength="184" x="432.25" y="508.9053">embed resource can be injected</text><rect fill="#F1F1F1" height="33.9688" rx="12.5" ry="12.5" style="stroke:#181818;stroke-width:0.5;" width="92" x="38" y="533.4995"/><text fill="#000000" font-family="sans-serif" font-size="12" lengthAdjust="spacing" textLength="72" x="48" y="554.6382">display skip</text><rect fill="#F1F1F1" height="33.9688" rx="12.5" ry="12.5" style="stroke:#181818;stroke-width:0.5;" width="116" x="523.5" y="581.9019"/><text fill="#000000" font-family="sans-serif" font-size="12" lengthAdjust="spacing" textLength="96" x="533.5" y="603.0405">display warning</text><polygon fill="#AAAAAA" points="481,533.4995,682,533.4995,694,545.4995,682,557.4995,481,557.4995,469,545.4995,481,533.4995" style="stroke:#181818;stroke-width:0.5;"/><text fill="#000000" font-family="sans-serif" font-size="11" lengthAdjust="spacing" textLength="20" x="585.5" y="567.71">yes</text><text fill="#000000" font-family="sans-serif" font-size="11" lengthAdjust="spacing" textLength="201" x="481" y="549.3076">embed resources already injected?</text><polygon fill="#AAAAAA" points="581.5,635.8706,593.5,647.8706,581.5,659.8706,569.5,647.8706,581.5,635.8706" style="stroke:#181818;stroke-width:0.5;"/><rect fill="#D3D3D3" height="309.4219" style="stroke:#000000;stroke-width:1.5;" width="853" x="150" y="669.8706"/><path d="M339,669.8706 L339,679.1675 L329,689.1675 L150,689.1675 " fill="none" style="stroke:#000000;stroke-width:1.5;"/><text fill="#000000" font-family="sans-serif" font-size="14" lengthAdjust="spacing" textLength="179" x="153" y="683.8657">Compiler::Embed::embed</text><rect fill="#00FF7F" height="33.9688" rx="12.5" ry="12.5" style="stroke:#181818;stroke-width:0.5;" width="320" x="421.5" y="706.1675"/><text fill="#000000" font-family="sans-serif" font-size="12" lengthAdjust="spacing" text-decoration="underline" textLength="156" x="431.5" y="727.3062">Compiler::Embed::embed</text><text fill="#000000" font-family="sans-serif" font-size="12" lengthAdjust="spacing" textLength="4" x="587.5" y="727.3062">&#160;</text><text fill="#000000" font-family="sans-serif" font-size="12" font-weight="bold" lengthAdjust="spacing" textLength="71" x="591.5" y="727.3062">$resource</text><text fill="#000000" font-family="sans-serif" font-size="12" lengthAdjust="spacing" textLength="4" x="662.5" y="727.3062">&#160;</text><text fill="#000000" font-family="sans-serif" font-size="12" font-weight="bold" lengthAdjust="spacing" textLength="65" x="666.5" y="727.3062">$asName</text><polygon fill="#AAAAAA" points="539,760.1362,624,760.1362,636,772.1362,624,784.1362,539,784.1362,527,772.1362,539,760.1362" style="stroke:#181818;stroke-width:0.5;"/><text fill="#000000" font-family="sans-serif" font-size="11" lengthAdjust="spacing" textLength="85" x="539" y="775.9443">resource type?</text><rect fill="#00FF7F" height="33.9688" rx="12.5" ry="12.5" style="stroke:#181818;stroke-width:0.5;" width="197" x="160" y="832.5503"/><text fill="#000000" font-family="sans-serif" font-size="12" lengthAdjust="spacing" textLength="177" x="170" y="853.689">Compiler::Embed::embedFile</text><rect fill="#00FF7F" height="33.9688" rx="12.5" ry="12.5" style="stroke:#181818;stroke-width:0.5;" width="193" x="383.5" y="832.5503"/><text fill="#000000" font-family="sans-serif" font-size="12" lengthAdjust="spacing" textLength="173" x="393.5" y="853.689">Compiler::Embed::embedDir</text><rect fill="#00FF7F" height="33.9688" rx="12.5" ry="12.5" style="stroke:#181818;stroke-width:0.5;" width="298" x="638" y="845.355"/><text fill="#000000" font-family="sans-serif" font-size="12" lengthAdjust="spacing" textLength="278" x="648" y="866.4937">Compiler::Embed::embedFrameworkFunction</text><rect fill="#00FF7F" height="33.9688" rx="12.5" ry="12.5" style="stroke:#181818;stroke-width:0.5;" width="91" x="741.5" y="899.3237"/><text fill="#000000" font-family="sans-serif" font-size="12" lengthAdjust="spacing" textLength="71" x="751.5" y="920.4624">bin/compile</text><ellipse cx="956" cy="842.5503" fill="none" rx="10" ry="10" style="stroke:#FF0000;stroke-width:1.5;"/><line style="stroke:#FF0000;stroke-width:2.5;" x1="949.8128" x2="962.1872" y1="836.3631" y2="848.7375"/><line style="stroke:#FF0000;stroke-width:2.5;" x1="962.1872" x2="949.8128" y1="836.3631" y2="848.7375"/><polygon fill="#AAAAAA" points="581.5,943.2925,581.5,943.2925,593.5,955.2925,581.5,967.2925,581.5,967.2925,569.5,955.2925,581.5,943.2925" style="stroke:#181818;stroke-width:0.5;"/><polygon fill="#AAAAAA" points="484,1003.9961,679,1003.9961,691,1015.9961,679,1027.9961,484,1027.9961,472,1015.9961,484,1003.9961" style="stroke:#181818;stroke-width:0.5;"/><text fill="#000000" font-family="sans-serif" font-size="11" lengthAdjust="spacing" textLength="195" x="484" y="1019.8042">embed resource injection failure ?</text><text fill="#FF0000" font-family="sans-serif" font-size="11" lengthAdjust="spacing" textLength="73" x="691" y="1000.5972">display error</text><text fill="#FF0000" font-family="sans-serif" font-size="11" lengthAdjust="spacing" textLength="71" x="691" y="1013.4019">and return 2</text><ellipse cx="784" cy="1015.9961" fill="none" rx="10" ry="10" style="stroke:#FF0000;stroke-width:1.5;"/><line style="stroke:#FF0000;stroke-width:2.5;" x1="777.8128" x2="790.1872" y1="1009.8089" y2="1022.1833"/><line style="stroke:#FF0000;stroke-width:2.5;" x1="790.1872" x2="777.8128" y1="1009.8089" y2="1022.1833"/><polygon fill="#AAAAAA" points="332.75,1037.9961,344.75,1049.9961,332.75,1061.9961,320.75,1049.9961,332.75,1037.9961" style="stroke:#181818;stroke-width:0.5;"/><polygon fill="#AAAAAA" points="285.75,249.2031,379.75,249.2031,391.75,261.2031,379.75,273.2031,285.75,273.2031,273.75,261.2031,285.75,249.2031" style="stroke:#181818;stroke-width:0.5;"/><text fill="#008000" font-family="sans-serif" font-size="11" lengthAdjust="spacing" textLength="75" x="336.75" y="283.4136">embed found</text><text fill="#000000" font-family="sans-serif" font-size="11" lengthAdjust="spacing" textLength="94" x="285.75" y="265.0112">embedDirective?</text><text fill="#000000" font-family="sans-serif" font-size="11" lengthAdjust="spacing" textLength="208" x="65.75" y="258.6089">no more embed directive to process</text><rect fill="#F1F1F1" height="33.9688" rx="12.5" ry="12.5" style="stroke:#181818;stroke-width:0.5;" width="103" x="281.25" y="1105.0903"/><text fill="#000000" font-family="sans-serif" font-size="12" lengthAdjust="spacing" textLength="83" x="291.25" y="1126.229">Output result</text><ellipse cx="332.75" cy="1170.0591" fill="none" rx="11" ry="11" style="stroke:#222222;stroke-width:1.0;"/><ellipse cx="332.75" cy="1170.0591" fill="#222222" rx="6" ry="6" style="stroke:#222222;stroke-width:1.0;"/><line style="stroke:#181818;stroke-width:1.0;" x1="332.75" x2="332.75" y1="67.2969" y2="87.2969"/><polygon fill="#181818" points="328.75,77.2969,332.75,87.2969,336.75,77.2969,332.75,81.2969" style="stroke:#181818;stroke-width:1.0;"/><line style="stroke:#181818;stroke-width:1.0;" x1="332.75" x2="332.75" y1="121.2656" y2="141.2656"/><polygon fill="#181818" points="328.75,131.2656,332.75,141.2656,336.75,131.2656,332.75,135.2656" style="stroke:#181818;stroke-width:1.0;"/><line style="stroke:#181818;stroke-width:1.0;" x1="332.75" x2="332.75" y1="175.2344" y2="195.2344"/><polygon fill="#181818" points="328.75,185.2344,332.75,195.2344,336.75,185.2344,332.75,189.2344" style="stroke:#181818;stroke-width:1.0;"/><line style="stroke:#181818;stroke-width:1.0;" x1="332.75" x2="332.75" y1="455.7891" y2="499.4995"/><polygon fill="#181818" points="328.75,489.4995,332.75,499.4995,336.75,489.4995,332.75,493.4995" style="stroke:#181818;stroke-width:1.0;"/><line style="stroke:#FF0000;stroke-width:1.0;" x1="436.25" x2="525.25" y1="443.7891" y2="443.7891"/><polygon fill="#FF0000" points="515.25,439.7891,525.25,443.7891,515.25,447.7891,519.25,443.7891" style="stroke:#FF0000;stroke-width:1.0;"/><line style="stroke:#181818;stroke-width:1.0;" x1="332.75" x2="332.75" y1="407.0854" y2="431.7891"/><polygon fill="#181818" points="328.75,421.7891,332.75,431.7891,336.75,421.7891,332.75,425.7891" style="stroke:#181818;stroke-width:1.0;"/><line style="stroke:#181818;stroke-width:1.0;" x1="581.5" x2="581.5" y1="557.4995" y2="581.9019"/><polygon fill="#181818" points="577.5,571.9019,581.5,581.9019,585.5,571.9019,581.5,575.9019" style="stroke:#181818;stroke-width:1.0;"/><line style="stroke:#181818;stroke-width:1.0;" x1="694" x2="706" y1="545.4995" y2="545.4995"/><polygon fill="#181818" points="702,588.8862,706,598.8862,710,588.8862,706,592.8862" style="stroke:#181818;stroke-width:1.0;"/><line style="stroke:#181818;stroke-width:1.0;" x1="706" x2="706" y1="545.4995" y2="647.8706"/><line style="stroke:#181818;stroke-width:1.0;" x1="706" x2="593.5" y1="647.8706" y2="647.8706"/><polygon fill="#181818" points="603.5,643.8706,593.5,647.8706,603.5,651.8706,599.5,647.8706" style="stroke:#181818;stroke-width:1.0;"/><line style="stroke:#181818;stroke-width:1.0;" x1="581.5" x2="581.5" y1="615.8706" y2="635.8706"/><polygon fill="#181818" points="577.5,625.8706,581.5,635.8706,585.5,625.8706,581.5,629.8706" style="stroke:#181818;stroke-width:1.0;"/><line style="stroke:#181818;stroke-width:1.0;" x1="787" x2="787" y1="879.3237" y2="899.3237"/><polygon fill="#181818" points="783,889.3237,787,899.3237,791,889.3237,787,893.3237" style="stroke:#181818;stroke-width:1.0;"/><line style="stroke:#181818;stroke-width:1.0;" x1="527" x2="258.5" y1="772.1362" y2="772.1362"/><line style="stroke:#181818;stroke-width:1.0;" x1="258.5" x2="258.5" y1="772.1362" y2="832.5503"/><polygon fill="#181818" points="254.5,822.5503,258.5,832.5503,262.5,822.5503,258.5,826.5503" style="stroke:#181818;stroke-width:1.0;"/><text fill="#000000" font-family="sans-serif" font-size="11" lengthAdjust="spacing" textLength="97" x="262.5" y="806.1514">resource is a file</text><line style="stroke:#181818;stroke-width:1.0;" x1="636" x2="956" y1="772.1362" y2="772.1362"/><line style="stroke:#181818;stroke-width:1.0;" x1="956" x2="956" y1="772.1362" y2="832.5503"/><polygon fill="#181818" points="952,822.5503,956,832.5503,960,822.5503,956,826.5503" style="stroke:#181818;stroke-width:1.0;"/><text fill="#000000" font-family="sans-serif" font-size="11" lengthAdjust="spacing" textLength="4" x="956" y="806.1514">&#160;</text><text fill="#FF0000" font-family="sans-serif" font-size="11" lengthAdjust="spacing" textLength="29" x="960" y="806.1514">error</text><line style="stroke:#181818;stroke-width:1.0;" x1="480" x2="480" y1="772.1362" y2="832.5503"/><polygon fill="#181818" points="476,822.5503,480,832.5503,484,822.5503,480,826.5503" style="stroke:#181818;stroke-width:1.0;"/><text fill="#000000" font-family="sans-serif" font-size="11" lengthAdjust="spacing" textLength="130" x="484" y="801.1514">resource is a directory</text><line style="stroke:#181818;stroke-width:1.0;" x1="787" x2="787" y1="772.1362" y2="845.355"/><polygon fill="#181818" points="783,835.355,787,845.355,791,835.355,787,839.355" style="stroke:#181818;stroke-width:1.0;"/><text fill="#000000" font-family="sans-serif" font-size="11" lengthAdjust="spacing" textLength="108" x="791" y="801.1514">resource is a bash</text><text fill="#000000" font-family="sans-serif" font-size="11" lengthAdjust="spacing" textLength="110" x="787" y="813.9561">framework function</text><line style="stroke:#181818;stroke-width:1.0;" x1="258.5" x2="258.5" y1="866.519" y2="955.2925"/><line style="stroke:#181818;stroke-width:1.0;" x1="258.5" x2="569.5" y1="955.2925" y2="955.2925"/><polygon fill="#181818" points="559.5,951.2925,569.5,955.2925,559.5,959.2925,563.5,955.2925" style="stroke:#181818;stroke-width:1.0;"/><line style="stroke:#181818;stroke-width:1.0;" x1="787" x2="787" y1="933.2925" y2="955.2925"/><line style="stroke:#181818;stroke-width:1.0;" x1="787" x2="593.5" y1="955.2925" y2="955.2925"/><polygon fill="#181818" points="603.5,951.2925,593.5,955.2925,603.5,959.2925,599.5,955.2925" style="stroke:#181818;stroke-width:1.0;"/><line style="stroke:#181818;stroke-width:1.0;" x1="480" x2="480" y1="866.519" y2="955.2925"/><polygon fill="#181818" points="476,945.2925,480,955.2925,484,945.2925,480,949.2925" style="stroke:#181818;stroke-width:1.0;"/><line style="stroke:#181818;stroke-width:1.0;" x1="581.5" x2="581.5" y1="740.1362" y2="760.1362"/><polygon fill="#181818" points="577.5,750.1362,581.5,760.1362,585.5,750.1362,581.5,754.1362" style="stroke:#181818;stroke-width:1.0;"/><line style="stroke:#181818;stroke-width:1.0;" x1="581.5" x2="581.5" y1="659.8706" y2="706.1675"/><polygon fill="#181818" points="577.5,696.1675,581.5,706.1675,585.5,696.1675,581.5,700.1675" style="stroke:#181818;stroke-width:1.0;"/><line style="stroke:#181818;stroke-width:1.0;" x1="581.5" x2="581.5" y1="1027.9961" y2="1049.9961"/><line style="stroke:#181818;stroke-width:1.0;" x1="581.5" x2="344.75" y1="1049.9961" y2="1049.9961"/><polygon fill="#181818" points="354.75,1045.9961,344.75,1049.9961,354.75,1053.9961,350.75,1049.9961" style="stroke:#181818;stroke-width:1.0;"/><line style="stroke:#FF0000;stroke-width:1.0;" x1="691" x2="774" y1="1015.9961" y2="1015.9961"/><polygon fill="#FF0000" points="764,1011.9961,774,1015.9961,764,1019.9961,768,1015.9961" style="stroke:#FF0000;stroke-width:1.0;"/><line style="stroke:#181818;stroke-width:1.0;" x1="581.5" x2="581.5" y1="967.2925" y2="1003.9961"/><polygon fill="#181818" points="577.5,993.9961,581.5,1003.9961,585.5,993.9961,581.5,997.9961" style="stroke:#181818;stroke-width:1.0;"/><line style="stroke:#181818;stroke-width:1.0;" x1="233.25" x2="84" y1="511.4995" y2="511.4995"/><line style="stroke:#181818;stroke-width:1.0;" x1="84" x2="84" y1="511.4995" y2="533.4995"/><polygon fill="#181818" points="80,523.4995,84,533.4995,88,523.4995,84,527.4995" style="stroke:#181818;stroke-width:1.0;"/><line style="stroke:#181818;stroke-width:1.0;" x1="432.25" x2="581.5" y1="511.4995" y2="511.4995"/><line style="stroke:#181818;stroke-width:1.0;" x1="581.5" x2="581.5" y1="511.4995" y2="533.4995"/><polygon fill="#181818" points="577.5,523.4995,581.5,533.4995,585.5,523.4995,581.5,527.4995" style="stroke:#181818;stroke-width:1.0;"/><line style="stroke:#181818;stroke-width:1.0;" x1="84" x2="84" y1="567.4683" y2="1049.9961"/><line style="stroke:#181818;stroke-width:1.0;" x1="84" x2="320.75" y1="1049.9961" y2="1049.9961"/><polygon fill="#181818" points="310.75,1045.9961,320.75,1049.9961,310.75,1053.9961,314.75,1049.9961" style="stroke:#181818;stroke-width:1.0;"/><line style="stroke:#008000;stroke-width:1.0;" x1="332.75" x2="332.75" y1="273.2031" y2="331.2104"/><polygon fill="#008000" points="328.75,321.2104,332.75,331.2104,336.75,321.2104,332.75,325.2104" style="stroke:#008000;stroke-width:1.0;"/><line style="stroke:#008000;stroke-width:1.0;" x1="332.75" x2="332.75" y1="1061.9961" y2="1073.0903"/><line style="stroke:#008000;stroke-width:1.0;" x1="332.75" x2="1017" y1="1073.0903" y2="1073.0903"/><polygon fill="#008000" points="1013,716.3042,1017,706.3042,1021,716.3042,1017,712.3042" style="stroke:#008000;stroke-width:1.0;"/><line style="stroke:#008000;stroke-width:1.0;" x1="1017" x2="1017" y1="261.2031" y2="1073.0903"/><line style="stroke:#008000;stroke-width:1.0;" x1="1017" x2="391.75" y1="261.2031" y2="261.2031"/><polygon fill="#008000" points="401.75,257.2031,391.75,261.2031,401.75,265.2031,397.75,261.2031" style="stroke:#008000;stroke-width:1.0;"/><text fill="#008000" font-family="sans-serif" font-size="11" lengthAdjust="spacing" textLength="169" x="332.75" y="1083.3008">process next embed directive</text><line style="stroke:#181818;stroke-width:1.0;" x1="273.75" x2="24" y1="261.2031" y2="261.2031"/><polygon fill="#181818" points="20,708.7065,24,718.7065,28,708.7065,24,712.7065" style="stroke:#181818;stroke-width:1.0;"/><line style="stroke:#181818;stroke-width:1.0;" x1="24" x2="24" y1="261.2031" y2="1090.0903"/><line style="stroke:#181818;stroke-width:1.0;" x1="24" x2="332.75" y1="1090.0903" y2="1090.0903"/><line style="stroke:#181818;stroke-width:1.0;" x1="332.75" x2="332.75" y1="1090.0903" y2="1105.0903"/><polygon fill="#181818" points="328.75,1095.0903,332.75,1105.0903,336.75,1095.0903,332.75,1099.0903" style="stroke:#181818;stroke-width:1.0;"/><line style="stroke:#181818;stroke-width:1.0;" x1="332.75" x2="332.75" y1="229.2031" y2="249.2031"/><polygon fill="#181818" points="328.75,239.2031,332.75,249.2031,336.75,239.2031,332.75,243.2031" style="stroke:#181818;stroke-width:1.0;"/><line style="stroke:#181818;stroke-width:1.0;" x1="332.75" x2="332.75" y1="1139.0591" y2="1159.0591"/><polygon fill="#181818" points="328.75,1149.0591,332.75,1159.0591,336.75,1149.0591,332.75,1153.0591" style="stroke:#181818;stroke-width:1.0;"/><!--SRC=[bLLTJzim57tFhxXIaTPMWgoi1PfE80Q35xH9OszZgfp4QGo97TbEkmZHtxuRno4VVFUXIPnxppq-lkT6CvrG24IQiOHAeAbFGs3ybWQQ2UweEyOp8aaAzmx09uYrpfJdkYkcuzpVmpmtImZNUPeqDtuYV7SwdqncOHGSXjF9x61-CA4pVpedHvFWyzoV7av3GWxdH_jVN2K3brFjAf7BW4P2hcW3fNIHKFT2YlIwPl9RN9UBUxTaJGPNa-aCYH5aksQwE6Sa5JpyHeAxbHGv3yz48YGCJisl5VZzyPMaeVFWA4saTXol5cBXE8FhJ3A-kfIKSk_ChdlUzr8XpwiaWWYPNU2BD-CZbcZKjudVn7Y1eH7ydCbIxpKz6G5JCFmQbDoyLGbrN1r9LEvcX3lO_JCmwtztZ_495T6iF2buKh7AQxCoPmZmEb54L1HskhnC7i1scokgdfOYIb6fJzKFajBjzbt1lsXrtZPyOVvPP0M1iAuC0U7WKp2qmkVqMPE4jH96e6FABOUkM00qmRtLwNZonunNwQRg3M-zQG0RB5olaH2BXuwziiXvMkt1STexugWDa4HI4XRMO6O_9LiO5bHLTRoGAUp-0j1vMQbAXtAx8wHLi5QenXprfApZr3kgj-flYEJO9OlU7jzkk2ksYlMbH8XxYzbfkENo-SJb4iRZdPhiU5m-4TDHu_720gaDqq4CmyUjwo93pzYt0IcLQdJ1JY4GbIwh8zxgVKEaikSha5Ld25by31VDz2giJrHymoESS7GZv1r4EJSp-8Fiw_mBcxvuFjjdtBN3hiUgvG4g9Ox8fdxV0eq9p5rrFERvuOKcR3uj416Mv9B2IT-nLGdeUB7gISEdurB2IsoTImxxYxunqJalpG7JpqxJsAq0w7WjamAjeu3JVnfwimc7FkRRGSu5f0AtqvzVMe356E7tvMUkiroNSkI9ndobHVOV]--></g></svg>
